<svg width="61" height="62" viewBox="0 0 61 62" fill="none" xmlns="http://www.w3.org/2000/svg">
<path d="M59.5682 33.7012C60.1424 34.5828 60.4155 35.5702 60.4155 36.5472C60.4155 38.3111 59.5228 40.0361 57.8978 41.0196C56.322 41.9745 55.38 43.6768 55.38 45.4874C55.38 45.7097 55.3943 45.9331 55.4228 46.1576C55.4522 46.3859 55.4669 46.6119 55.4669 46.8355C55.4669 49.4849 53.452 51.7672 50.7422 52.0267C49.7133 52.126 48.7616 52.5243 47.9851 53.1425C47.2092 53.7608 46.6097 54.6009 46.2847 55.5824C45.5555 57.781 43.5114 59.1634 41.3264 59.1634C40.727 59.1634 40.1172 59.059 39.5204 58.8397C38.932 58.623 38.3208 58.5173 37.7149 58.5173C36.3253 58.5173 34.9636 59.0726 33.9613 60.1087C32.935 61.17 31.5714 61.7 30.2077 61.7C28.8441 61.7 27.4811 61.17 26.4548 60.1087C25.4519 59.0726 24.0902 58.5173 22.7006 58.5173C22.0953 58.5173 21.4835 58.623 20.8951 58.8397C20.2983 59.059 19.6885 59.1634 19.0897 59.1634C16.9041 59.1634 14.8599 57.781 14.1308 55.5824C13.8058 54.6009 13.2063 53.7608 12.4304 53.1425C11.6545 52.5243 10.7028 52.126 9.6733 52.0267C6.96353 51.7672 4.94856 49.4849 4.94856 46.8355C4.94856 46.6119 4.96326 46.3859 4.99267 46.1576C5.02165 45.9331 5.03592 45.7097 5.03549 45.4874C5.03549 43.6768 4.09352 41.9745 2.51774 41.0196C0.89266 40.0361 0 38.3111 0 36.5472C0 35.5702 0.273766 34.5828 0.847249 33.7012C1.41165 32.8345 1.6945 31.8419 1.6945 30.85C1.6945 29.8581 1.41165 28.8655 0.847249 27.9988C0.273766 27.1172 0 26.1298 0 25.1528C0 23.3889 0.89266 21.6639 2.51774 20.6804C4.09352 19.7255 5.03549 18.0232 5.03549 16.2126C5.03592 15.9903 5.02165 15.7669 4.99267 15.5424C4.96326 15.3141 4.94856 15.0881 4.94856 14.8645C4.94856 12.2151 6.96353 9.9328 9.6733 9.67331C10.7028 9.57405 11.6545 9.17572 12.4304 8.55748C13.2063 7.93923 13.8058 7.09912 14.1308 6.11758C14.8599 3.91902 16.9041 2.53656 19.0897 2.53656C19.6885 2.53656 20.2983 2.641 20.8951 2.86028C21.4835 3.07696 22.0953 3.1827 22.7006 3.1827C24.0902 3.1827 25.4519 2.62738 26.4548 1.59135C27.4811 0.530017 28.8441 0 30.2077 0C31.5714 0 32.935 0.530017 33.9613 1.59135C35.3996 3.07825 37.58 3.57583 39.5204 2.86028C40.1172 2.641 40.727 2.53656 41.3264 2.53656C43.5114 2.53656 45.5555 3.91902 46.2847 6.11758C46.6097 7.09912 47.2092 7.93923 47.9851 8.55748C48.7616 9.17572 49.7133 9.57405 50.7422 9.67331C53.452 9.9328 55.4669 12.2151 55.4669 14.8645C55.4669 15.0881 55.4522 15.3141 55.4228 15.5424C55.3943 15.7669 55.38 15.9903 55.38 16.2126C55.38 18.0232 56.322 19.7255 57.8978 20.6804C59.5228 21.6639 60.4155 23.3889 60.4155 25.1528C60.4155 26.1298 60.1424 27.1172 59.5682 27.9988C59.0038 28.8655 58.7217 29.8581 58.7217 30.85C58.7217 31.8419 59.0038 32.8345 59.5682 33.7012Z" fill="url(#paint0_linear_13976_18503)"/>
<path d="M25.614 46.7037L15.0156 36.1053V34.5853L19.5652 31.5551L25.1177 37.1076L40.4026 18.2891L45.3972 20.8263V22.3463L25.614 46.7037Z" fill="url(#paint1_linear_13976_18503)"/>
<path d="M25.614 45.1874L15.0156 34.589L19.5652 30.0394L25.1177 35.592L40.4026 16.7734L45.3972 20.83L25.614 45.1874Z" fill="white"/>
<defs>
<linearGradient id="paint0_linear_13976_18503" x1="26.2979" y1="87.8435" x2="-28.4107" y2="36.0143" gradientUnits="userSpaceOnUse">
<stop stop-color="#33D679"/>
<stop offset="1" stop-color="#AADB53"/>
</linearGradient>
<linearGradient id="paint1_linear_13976_18503" x1="37.38" y1="1.68473" x2="50.9266" y2="38.4779" gradientUnits="userSpaceOnUse">
<stop stop-color="#33D679"/>
<stop offset="1" stop-color="#1DAD59"/>
</linearGradient>
</defs>
</svg>
