<svg width="43" height="43" viewBox="0 0 43 43" fill="none" xmlns="http://www.w3.org/2000/svg">
<path d="M39.5886 27.0503C39.354 26.678 39.0435 26.3593 38.6775 26.1149C38.3115 25.8705 37.8981 25.7059 37.4643 25.6319C37.1252 25.5826 36.7808 25.5826 36.4417 25.6319C36.2676 24.757 35.7766 23.977 35.0629 23.4417C34.7184 23.1669 34.3207 22.9665 33.8949 22.853C33.4692 22.7394 33.0245 22.7153 32.5889 22.7819C30.8011 23.0656 29.5542 24.8139 29.4223 25.0052C28.2008 26.4755 26.6252 27.6107 24.8438 28.3038C23.8134 28.2121 22.8056 27.949 21.8619 27.5254L23.0955 25.942L23.1351 25.8826C23.5366 25.236 23.789 24.5081 23.874 23.7517H25.0747C26.1854 23.752 27.259 23.352 28.0987 22.625C28.9384 21.898 29.4879 20.8927 29.6466 19.7934H31.0122C31.3621 19.7934 31.6978 19.6544 31.9452 19.4069C32.1926 19.1595 32.3316 18.8239 32.3316 18.474C32.3316 18.124 32.1926 17.7884 31.9452 17.541C31.6978 17.2935 31.3621 17.1545 31.0122 17.1545H29.6928V15.8351H31.0122C31.3621 15.8351 31.6978 15.6961 31.9452 15.4486C32.1926 15.2012 32.3316 14.8656 32.3316 14.5156C32.3316 14.1657 32.1926 13.8301 31.9452 13.5826C31.6978 13.3352 31.3621 13.1962 31.0122 13.1962H29.6928V11.8767H31.0122C31.3621 11.8767 31.6978 11.7377 31.9452 11.4903C32.1926 11.2428 32.3316 10.9072 32.3316 10.5573C32.3316 10.2074 32.1926 9.87175 31.9452 9.6243C31.6978 9.37686 31.3621 9.23785 31.0122 9.23785H29.64C29.4968 8.25292 29.0392 7.34061 28.3354 6.63684C27.6317 5.93307 26.7194 5.47549 25.7344 5.33229V3.96007C25.7344 3.61013 25.5954 3.27453 25.348 3.02708C25.1005 2.77964 24.7649 2.64063 24.415 2.64062C24.065 2.64063 23.7294 2.77964 23.482 3.02708C23.2345 3.27453 23.0955 3.61013 23.0955 3.96007V5.27951H21.7761V3.96007C21.7761 3.61013 21.6371 3.27453 21.3896 3.02708C21.1422 2.77964 20.8066 2.64063 20.4566 2.64062C20.1067 2.64063 19.7711 2.77964 19.5237 3.02708C19.2762 3.27453 19.1372 3.61013 19.1372 3.96007V5.27951H17.8178V3.96007C17.8178 3.61013 17.6787 3.27453 17.4313 3.02708C17.1839 2.77964 16.8483 2.64063 16.4983 2.64062C16.1484 2.64063 15.8128 2.77964 15.5653 3.02708C15.3179 3.27453 15.1789 3.61013 15.1789 3.96007V5.33229C14.1939 5.47549 13.2816 5.93307 12.5779 6.63684C11.8741 7.34061 11.4165 8.25292 11.2733 9.23785H9.90109C9.55115 9.23785 9.21555 9.37686 8.9681 9.6243C8.72066 9.87175 8.58165 10.2074 8.58165 10.5573C8.58165 10.9072 8.72066 11.2428 8.9681 11.4903C9.21555 11.7377 9.55115 11.8767 9.90109 11.8767H11.2205V13.1962H9.90109C9.55115 13.1962 9.21555 13.3352 8.9681 13.5826C8.72066 13.8301 8.58165 14.1657 8.58165 14.5156C8.58165 14.8656 8.72066 15.2012 8.9681 15.4486C9.21555 15.6961 9.55115 15.8351 9.90109 15.8351H11.2205V17.1545H9.90109C9.55115 17.1545 9.21555 17.2935 8.9681 17.541C8.72066 17.7884 8.58165 18.124 8.58165 18.474C8.58165 18.8239 8.72066 19.1595 8.9681 19.4069C9.21555 19.6544 9.55115 19.7934 9.90109 19.7934H11.2733C11.4123 20.7502 11.848 21.6392 12.5191 22.3352C13.1902 23.0311 14.0628 23.4989 15.0139 23.6726L13.8132 24.8733C13.2383 25.4505 12.5482 25.9 11.7879 26.1927C11.5971 25.3269 11.1164 24.5522 10.4254 23.9968C9.73438 23.4414 8.87446 23.1385 7.9879 23.1382H5.87679C5.36396 23.1382 4.8562 23.2395 4.38266 23.4364C3.90912 23.6332 3.47915 23.9217 3.11745 24.2852C2.75575 24.6488 2.46946 25.0802 2.27501 25.5547C2.08057 26.0293 1.98182 26.5375 1.98443 27.0503V35.7719C1.98617 36.8037 2.39682 37.7927 3.1264 38.5223C3.85598 39.2519 4.845 39.6625 5.87679 39.6642H7.9879C8.72643 39.6625 9.44921 39.4506 10.0719 39.0534C10.6945 38.6563 11.1913 38.0901 11.5042 37.4212C13.9111 38.1927 16.425 38.5779 18.9525 38.5625C22.4005 38.5273 25.8219 37.953 29.0924 36.8604C32.1699 35.8813 35.1198 34.5392 37.8799 32.8625C38.9887 32.1652 39.8033 31.0855 40.1692 29.8278C40.2686 29.3498 40.2684 28.8564 40.1685 28.3785C40.0686 27.9006 39.8712 27.4485 39.5886 27.0503ZM31.5928 26.483C31.931 25.9774 32.4206 25.5917 32.9914 25.3813C33.0723 25.369 33.1549 25.3758 33.2328 25.4009C33.3106 25.4261 33.3816 25.4691 33.44 25.5264C33.6236 25.6482 33.7602 25.829 33.8273 26.0388C33.8945 26.2487 33.8882 26.4751 33.8094 26.6809L33.7435 26.7271C32.6018 27.4523 31.3285 27.9454 29.9962 28.1785C30.5941 27.6794 31.1321 27.1126 31.5994 26.4896L31.5928 26.483ZM13.8594 19.1337V9.89757C13.8594 9.37266 14.0679 8.86925 14.4391 8.49809C14.8103 8.12692 15.3137 7.9184 15.8386 7.9184H25.0747C25.5996 7.9184 26.103 8.12692 26.4742 8.49809C26.8454 8.86925 27.0539 9.37266 27.0539 9.89757V19.1337C27.0539 19.6586 26.8454 20.162 26.4742 20.5332C26.103 20.9043 25.5996 21.1128 25.0747 21.1128H23.0955C23.0362 21.0469 22.9834 20.9809 22.9174 20.9149C22.5734 20.5395 22.1509 20.2445 21.68 20.0506C21.2092 19.8568 20.7014 19.769 20.1928 19.7934C19.1881 19.9185 18.2567 20.3842 17.5539 21.1128H15.8386C15.3137 21.1128 14.8103 20.9043 14.4391 20.5332C14.0679 20.162 13.8594 19.6586 13.8594 19.1337ZM9.24137 35.7719C9.23964 36.1038 9.10702 36.4216 8.87232 36.6563C8.63762 36.891 8.31981 37.0236 7.9879 37.0253H5.87679C5.54488 37.0236 5.22706 36.891 4.99236 36.6563C4.75767 36.4216 4.62505 36.1038 4.62331 35.7719V27.0503C4.62506 26.7191 4.75789 26.4019 4.99277 26.1683C5.22766 25.9346 5.54548 25.8035 5.87679 25.8035H7.9879C8.3192 25.8035 8.63703 25.9346 8.87191 26.1683C9.1068 26.4019 9.23963 26.7191 9.24137 27.0503V35.7719ZM37.6094 29.267C37.3933 29.8353 36.9971 30.3173 36.4813 30.6392C36.356 30.7184 23.4914 38.866 11.9001 34.7559V28.9569C13.3472 28.5833 14.6625 27.8161 15.7001 26.7403L18.9987 23.4417L19.1174 23.3097C19.4275 22.8816 19.8743 22.5721 20.3841 22.4323C20.4698 22.4323 20.7007 22.4323 21.0438 22.7819C21.532 23.2701 20.9778 24.2531 20.8921 24.3983L18.9459 26.9976C18.7848 27.213 18.6934 27.4726 18.684 27.7414C18.6746 28.0102 18.7475 28.2755 18.8931 28.5017C19.1702 28.9372 20.8723 31.0878 27.2584 31.0878C32.2591 31.0878 35.1751 28.9306 35.3004 28.8448C35.7876 28.4645 36.3846 28.2516 37.0025 28.2378C37.0817 28.2537 37.1561 28.2875 37.2202 28.3367C37.2842 28.3859 37.3362 28.4491 37.3719 28.5215C37.4648 28.6201 37.5344 28.7382 37.5755 28.8672C37.6166 28.9963 37.6282 29.1329 37.6094 29.267Z" fill="white"/>
<path d="M16.942 16.8704H17.8722C17.9234 16.8723 17.974 16.8589 18.0174 16.8318C18.0609 16.8048 18.0953 16.7654 18.1163 16.7187L18.3736 16.0194H20.2472L20.5045 16.7187C20.5236 16.7655 20.5566 16.8051 20.5992 16.8323C20.6417 16.8595 20.6916 16.8728 20.742 16.8704H21.6722C21.6921 16.8708 21.7118 16.8668 21.73 16.8589C21.7482 16.8509 21.7645 16.8391 21.7778 16.8243C21.7924 16.8123 21.8042 16.7972 21.8122 16.7801C21.8202 16.7629 21.8242 16.7442 21.824 16.7253C21.8284 16.7035 21.8284 16.6811 21.824 16.6593L20.1615 12.0413C20.1436 11.9792 20.1051 11.9252 20.0523 11.888C19.9995 11.8508 19.9356 11.8327 19.8712 11.8368H18.7497C18.6858 11.8318 18.6223 11.8496 18.5703 11.887C18.5184 11.9245 18.4814 11.9791 18.466 12.0413L16.7969 16.6593C16.7969 16.6593 16.7969 16.6593 16.7969 16.7253C16.7995 16.7629 16.8159 16.7982 16.8431 16.8243C16.8556 16.8383 16.8708 16.8496 16.8878 16.8575C16.9048 16.8655 16.9233 16.8699 16.942 16.8704ZM19.3104 13.1298L19.9701 14.9507H18.6705L19.3104 13.1298Z" fill="white"/>
<path d="M22.5454 16.8806H23.568C23.5925 16.8827 23.6173 16.879 23.6402 16.8698C23.6631 16.8607 23.6835 16.8463 23.6999 16.8278C23.7159 16.8113 23.7283 16.7916 23.7363 16.77C23.7442 16.7484 23.7476 16.7254 23.7461 16.7024V12.0844C23.7476 12.0614 23.7442 12.0384 23.7363 12.0168C23.7283 11.9952 23.7159 11.9756 23.6999 11.959C23.6825 11.942 23.6619 11.9285 23.6392 11.9195C23.6166 11.9104 23.5923 11.9059 23.568 11.9063H22.5454C22.5231 11.9066 22.501 11.9114 22.4806 11.9205C22.4602 11.9295 22.4418 11.9427 22.4266 11.959C22.4075 11.9737 22.3921 11.9927 22.3818 12.0145C22.3715 12.0363 22.3665 12.0603 22.3673 12.0844V16.7024C22.3665 16.7266 22.3715 16.7505 22.3818 16.7723C22.3921 16.7941 22.4075 16.8131 22.4266 16.8278C22.441 16.8452 22.4592 16.8591 22.4798 16.8682C22.5004 16.8774 22.5229 16.8816 22.5454 16.8806Z" fill="white"/>
</svg>
