<svg width="50" height="48" viewBox="0 0 50 48" fill="none" xmlns="http://www.w3.org/2000/svg">
<path d="M48.7528 31.6464C48.4486 31.1638 48.0461 30.7506 47.5716 30.4337C47.0971 30.1169 46.5611 29.9035 45.9987 29.8075C45.5591 29.7436 45.1126 29.7436 44.6729 29.8075C44.4472 28.6731 43.8106 27.662 42.8854 26.968C42.4387 26.6117 41.9231 26.3519 41.3711 26.2048C40.8192 26.0575 40.2426 26.0261 39.6779 26.1126C37.3601 26.4804 35.7435 28.747 35.5725 28.995C33.9888 30.9012 31.9461 32.373 29.6366 33.2716C28.3007 33.1527 26.9941 32.8116 25.7706 32.2623L27.37 30.2096L27.4213 30.1326C27.9418 29.2943 28.2691 28.3506 28.3793 27.3699H29.9359C31.3759 27.3703 32.7678 26.8517 33.8565 25.9092C34.9451 24.9666 35.6575 23.6633 35.8633 22.2381H37.6337C38.0874 22.2381 38.5225 22.0579 38.8433 21.737C39.1641 21.4163 39.3443 20.9812 39.3443 20.5275C39.3443 20.0738 39.1641 19.6387 38.8433 19.3179C38.5225 18.997 38.0874 18.8168 37.6337 18.8168H35.9232V17.1063H37.6337C38.0874 17.1063 38.5225 16.9261 38.8433 16.6052C39.1641 16.2844 39.3443 15.8493 39.3443 15.3956C39.3443 14.9419 39.1641 14.5068 38.8433 14.186C38.5225 13.8652 38.0874 13.685 37.6337 13.685H35.9232V11.9743H37.6337C38.0874 11.9743 38.5225 11.7941 38.8433 11.4734C39.1641 11.1525 39.3443 10.7174 39.3443 10.2637C39.3443 9.81011 39.1641 9.37494 38.8433 9.05414C38.5225 8.73334 38.0874 8.5531 37.6337 8.5531H35.8547C35.6691 7.27618 35.0758 6.0934 34.1633 5.18098C33.251 4.26855 32.0681 3.67533 30.7912 3.48967V1.71063C30.7912 1.25694 30.611 0.821833 30.2903 0.501034C29.9694 0.180223 29.5343 0 29.0807 0C28.6269 0 28.1918 0.180223 27.8711 0.501034C27.5502 0.821833 27.37 1.25694 27.37 1.71063V3.42124H25.6594V1.71063C25.6594 1.25694 25.4792 0.821833 25.1583 0.501034C24.8376 0.180223 24.4025 0 23.9487 0C23.4951 0 23.06 0.180223 22.7392 0.501034C22.4184 0.821833 22.2381 1.25694 22.2381 1.71063V3.42124H20.5276V1.71063C20.5276 1.25694 20.3472 0.821833 20.0265 0.501034C19.7058 0.180223 19.2705 0 18.8169 0C18.3633 0 17.9282 0.180223 17.6073 0.501034C17.2865 0.821833 17.1063 1.25694 17.1063 1.71063V3.48967C15.8293 3.67533 14.6465 4.26855 13.7342 5.18098C12.8217 6.0934 12.2285 7.27618 12.0428 8.5531H10.2638C9.81011 8.5531 9.375 8.73334 9.0542 9.05414C8.73339 9.37494 8.55317 9.81011 8.55317 10.2637C8.55317 10.7174 8.73339 11.1525 9.0542 11.4734C9.375 11.7941 9.81011 11.9743 10.2638 11.9743H11.9744V13.685H10.2638C9.81011 13.685 9.375 13.8652 9.0542 14.186C8.73339 14.5068 8.55317 14.9419 8.55317 15.3956C8.55317 15.8493 8.73339 16.2844 9.0542 16.6052C9.375 16.9261 9.81011 17.1063 10.2638 17.1063H11.9744V18.8168H10.2638C9.81011 18.8168 9.375 18.997 9.0542 19.3179C8.73339 19.6387 8.55317 20.0738 8.55317 20.5275C8.55317 20.9812 8.73339 21.4163 9.0542 21.737C9.375 22.0579 9.81011 22.2381 10.2638 22.2381H12.0428C12.223 23.4785 12.7879 24.6311 13.658 25.5335C14.528 26.4357 15.6593 27.0422 16.8924 27.2674L15.3357 28.824C14.5904 29.5723 13.6957 30.1551 12.71 30.5346C12.4626 29.4121 11.8394 28.4077 10.9436 27.6877C10.0477 26.9675 8.9328 26.5748 7.78339 26.5745H5.0464C4.38154 26.5745 3.72323 26.7059 3.1093 26.9611C2.49538 27.2163 1.93793 27.5903 1.46899 28.0616C1.00007 28.533 0.628893 29.0923 0.376807 29.7074C0.124721 30.3227 -0.00331843 30.9816 6.53582e-05 31.6464V42.9537C0.00232122 44.2914 0.534717 45.5737 1.4806 46.5196C2.42648 47.4653 3.70872 47.9978 5.0464 48H7.78339C8.74087 47.9978 9.67795 47.7231 10.4851 47.2081C11.2924 46.6933 11.9365 45.9592 12.3422 45.092C15.4627 46.0922 18.7219 46.5916 21.9987 46.5717C26.4689 46.526 30.9047 45.7815 35.1448 44.365C39.1347 43.0956 42.9591 41.3556 46.5375 39.1818C47.975 38.2778 49.0311 36.878 49.5054 35.2474C49.6344 34.6277 49.6341 33.988 49.5046 33.3684C49.3751 32.7488 49.1192 32.1627 48.7528 31.6464ZM38.3865 30.911C38.8249 30.2555 39.4597 29.7554 40.1997 29.4825C40.3046 29.4667 40.4117 29.4754 40.5127 29.508C40.6136 29.5407 40.7056 29.5965 40.7813 29.6707C41.0192 29.8287 41.1964 30.0631 41.2834 30.3351C41.3706 30.6072 41.3623 30.9007 41.2602 31.1675L41.1747 31.2274C39.6946 32.1675 38.0438 32.8069 36.3165 33.1091C37.0917 32.4621 37.7892 31.7272 38.395 30.9195L38.3865 30.911ZM15.3956 21.3828V9.40842C15.3956 8.72789 15.6659 8.07524 16.1472 7.59403C16.6284 7.11283 17.2811 6.84249 17.9616 6.84249H29.9359C30.6165 6.84249 31.2691 7.11283 31.7504 7.59403C32.2315 8.07524 32.5019 8.72789 32.5019 9.40842V21.3828C32.5019 22.0633 32.2315 22.716 31.7504 23.1972C31.2691 23.6783 30.6165 23.9486 29.9359 23.9486H27.37C27.2931 23.8632 27.2246 23.7776 27.1391 23.6921C26.6931 23.2054 26.1453 22.8228 25.5348 22.5715C24.9243 22.3203 24.2661 22.2064 23.6067 22.2381C22.3041 22.4003 21.0966 23.004 20.1854 23.9486H17.9616C17.2811 23.9486 16.6284 23.6783 16.1472 23.1972C15.6659 22.716 15.3956 22.0633 15.3956 21.3828ZM9.40848 42.9537C9.40623 43.384 9.2343 43.7961 8.93003 44.1003C8.62575 44.4046 8.2137 44.5765 7.78339 44.5787H5.0464C4.61609 44.5765 4.20404 44.4046 3.89977 44.1003C3.59549 43.7961 3.42355 43.384 3.42131 42.9537V31.6464C3.42357 31.2169 3.59578 30.8058 3.9003 30.503C4.20482 30.2 4.61688 30.03 5.0464 30.03H7.78339C8.21291 30.03 8.62497 30.2 8.9295 30.503C9.23401 30.8058 9.40622 31.2169 9.40848 31.6464V42.9537ZM46.1868 34.5203C45.9067 35.2571 45.393 35.882 44.7243 36.2993C44.5617 36.402 27.8832 46.9652 12.8553 41.6365V34.1183C14.7316 33.6339 16.4368 32.6393 17.7819 31.2445L22.0586 26.968L22.2125 26.7969C22.6145 26.2418 23.1938 25.8406 23.8547 25.6593C23.9658 25.6593 24.2652 25.6593 24.71 26.1126C25.3429 26.7455 24.6244 28.02 24.5133 28.2082L21.9901 31.5781C21.7813 31.8574 21.6628 32.1938 21.6506 32.5424C21.6384 32.8909 21.7329 33.2349 21.9217 33.5281C22.2809 34.0928 24.4877 36.8809 32.767 36.8809C39.2503 36.8809 43.0307 34.0842 43.1933 33.973C43.8249 33.4799 44.5989 33.2039 45.4 33.186C45.5027 33.2066 45.5991 33.2504 45.6822 33.3142C45.7652 33.378 45.8325 33.4599 45.8789 33.5538C45.9994 33.6816 46.0896 33.8348 46.1429 34.002C46.1962 34.1694 46.2112 34.3465 46.1868 34.5203Z" fill="white"/>
<path d="M19.3992 18.449H20.6052C20.6714 18.4513 20.737 18.434 20.7934 18.3988C20.8498 18.3638 20.8944 18.3127 20.9216 18.2522L21.2552 17.3456H23.6843L24.0179 18.2522C24.0425 18.3129 24.0854 18.3642 24.1405 18.3995C24.1956 18.4347 24.2604 18.452 24.3258 18.449H25.5318C25.5576 18.4494 25.5831 18.4442 25.6067 18.434C25.6303 18.4236 25.6514 18.4083 25.6685 18.3891C25.6876 18.3735 25.7029 18.354 25.7133 18.3318C25.7236 18.3095 25.7288 18.2852 25.7284 18.2607C25.7343 18.2325 25.7343 18.2034 25.7284 18.1752L23.573 12.1881C23.5498 12.1077 23.4999 12.0376 23.4315 11.9893C23.3631 11.9411 23.2803 11.9176 23.1967 11.9229H21.7427C21.66 11.9165 21.5775 11.9395 21.5102 11.988C21.4428 12.0366 21.3948 12.1074 21.3749 12.1881L19.2109 18.1752C19.2109 18.1752 19.2109 18.1752 19.2109 18.2607C19.2143 18.3095 19.2357 18.3553 19.2708 18.3891C19.287 18.4072 19.3067 18.4219 19.3288 18.4321C19.351 18.4425 19.3748 18.4482 19.3992 18.449ZM22.4697 13.5993L23.325 15.96H21.64L22.4697 13.5993Z" fill="white"/>
<path d="M26.6607 18.4569H27.9865C28.0184 18.4596 28.0504 18.4548 28.0801 18.4429C28.1098 18.4311 28.1363 18.4124 28.1576 18.3884C28.1783 18.367 28.1943 18.3415 28.2047 18.3135C28.215 18.2855 28.2193 18.2557 28.2174 18.2258V12.2387C28.2193 12.2089 28.215 12.1791 28.2047 12.1511C28.1943 12.1231 28.1783 12.0977 28.1576 12.0762C28.1349 12.0541 28.1082 12.0366 28.0789 12.025C28.0495 12.0132 28.0181 12.0073 27.9865 12.0078H26.6607C26.6318 12.0082 26.6033 12.0145 26.5767 12.0263C26.5502 12.0379 26.5265 12.055 26.5068 12.0762C26.4819 12.0952 26.4621 12.1199 26.4486 12.1481C26.4352 12.1764 26.4288 12.2075 26.4298 12.2387V18.2258C26.4288 18.2572 26.4352 18.2882 26.4486 18.3165C26.4621 18.3447 26.4819 18.3694 26.5068 18.3884C26.5253 18.411 26.5489 18.429 26.5756 18.4408C26.6024 18.4527 26.6315 18.4582 26.6607 18.4569Z" fill="white"/>
</svg>
