<svg width="53" height="53" viewBox="0 0 53 53" fill="none" xmlns="http://www.w3.org/2000/svg">
<path d="M28.0878 2.53446C27.4624 2.24919 26.783 2.10156 26.0956 2.10156C25.4082 2.10156 24.7288 2.24919 24.1034 2.53446L3.53341 11.8954C3.10749 12.0832 2.74536 12.3908 2.49114 12.7807C2.23692 13.1706 2.10156 13.6261 2.10156 14.0916C2.10156 14.5571 2.23692 15.0125 2.49114 15.4024C2.74536 15.7924 3.10749 16.1 3.53341 16.2878L24.1274 25.6727C24.7528 25.9579 25.4322 26.1056 26.1196 26.1056C26.807 26.1056 27.4864 25.9579 28.1118 25.6727L48.7057 16.3118C49.1317 16.124 49.4938 15.8164 49.748 15.4264C50.0022 15.0365 50.1376 14.5811 50.1376 14.1156C50.1376 13.6501 50.0022 13.1946 49.748 12.8047C49.4938 12.4148 49.1317 12.1072 48.7057 11.9194L28.0878 2.53446Z" stroke="white" stroke-opacity="0.8" stroke-width="4.2004" stroke-linecap="round" stroke-linejoin="round"/>
<path d="M2.10157 26.1016C2.10043 26.5606 2.23098 27.0104 2.47773 27.3976C2.72447 27.7847 3.07707 28.093 3.4937 28.2858L24.1357 37.6707C24.7578 37.9524 25.4329 38.0981 26.1159 38.0981C26.7988 38.0981 27.4739 37.9524 28.0961 37.6707L48.69 28.3098C49.1149 28.1188 49.475 27.8083 49.7265 27.4162C49.9779 27.0241 50.1099 26.5674 50.1062 26.1016" stroke="white" stroke-opacity="0.8" stroke-width="4.2004" stroke-linecap="round" stroke-linejoin="round"/>
<path d="M2.10157 38.1016C2.10043 38.5606 2.23098 39.0104 2.47773 39.3976C2.72447 39.7847 3.07707 40.093 3.4937 40.2858L24.1357 49.6707C24.7578 49.9524 25.4329 50.0981 26.1159 50.0981C26.7988 50.0981 27.4739 49.9524 28.0961 49.6707L48.69 40.3098C49.1149 40.1188 49.475 39.8083 49.7265 39.4162C49.9779 39.0241 50.1099 38.5674 50.1062 38.1016" stroke="white" stroke-opacity="0.8" stroke-width="4.2004" stroke-linecap="round" stroke-linejoin="round"/>
</svg>
