<svg width="58" height="53" viewBox="0 0 58 53" fill="none" xmlns="http://www.w3.org/2000/svg">
<path d="M39.6634 50.3334V45.0009C39.6634 42.1724 38.5398 39.4597 36.5397 37.4596C34.5397 35.4596 31.827 34.3359 28.9984 34.3359H13.0009C10.1724 34.3359 7.45972 35.4596 5.45964 37.4596C3.45957 39.4597 2.33594 42.1724 2.33594 45.0009V50.3334" stroke="white" stroke-opacity="0.8" stroke-width="4.66594" stroke-linecap="round" stroke-linejoin="round"/>
<path d="M21.0009 23.6659C26.8911 23.6659 31.6659 18.8911 31.6659 13.0009C31.6659 7.11082 26.8911 2.33594 21.0009 2.33594C15.1108 2.33594 10.3359 7.11082 10.3359 13.0009C10.3359 18.8911 15.1108 23.6659 21.0009 23.6659Z" stroke="white" stroke-opacity="0.8" stroke-width="4.66594" stroke-linecap="round" stroke-linejoin="round"/>
<path d="M55.6628 50.3384V45.0059C55.661 42.6429 54.8746 40.3473 53.4268 38.4797C51.9791 36.6122 49.9521 35.2783 47.6641 34.6875" stroke="white" stroke-opacity="0.8" stroke-width="4.66594" stroke-linecap="round" stroke-linejoin="round"/>
<path d="M39.6641 2.69531C41.9581 3.28269 43.9915 4.61688 45.4435 6.48755C46.8956 8.35821 47.6837 10.6589 47.6837 13.027C47.6837 15.3951 46.8956 17.6958 45.4435 19.5665C43.9915 21.4372 41.9581 22.7714 39.6641 23.3588" stroke="white" stroke-opacity="0.8" stroke-width="4.66594" stroke-linecap="round" stroke-linejoin="round"/>
</svg>
