<svg width="43" height="53" viewBox="0 0 43 53" fill="none" xmlns="http://www.w3.org/2000/svg">
<path d="M28.5031 2.10156H14.1031C12.7776 2.10156 11.7031 3.17608 11.7031 4.50156V9.30156C11.7031 10.627 12.7776 11.7016 14.1031 11.7016H28.5031C29.8286 11.7016 30.9031 10.627 30.9031 9.30156V4.50156C30.9031 3.17608 29.8286 2.10156 28.5031 2.10156Z" stroke="white" stroke-opacity="0.8" stroke-width="4.2" stroke-linecap="round" stroke-linejoin="round"/>
<path d="M30.9016 6.89844H35.7016C36.9746 6.89844 38.1955 7.40415 39.0957 8.30432C39.9959 9.2045 40.5016 10.4254 40.5016 11.6984V45.2984C40.5016 46.5715 39.9959 47.7924 39.0957 48.6926C38.1955 49.5927 36.9746 50.0984 35.7016 50.0984H6.90156C5.62852 50.0984 4.40762 49.5927 3.50745 48.6926C2.60728 47.7924 2.10156 46.5715 2.10156 45.2984V11.6984C2.10156 10.4254 2.60728 9.2045 3.50745 8.30432C4.40762 7.40415 5.62852 6.89844 6.90156 6.89844H11.7016" stroke="white" stroke-opacity="0.8" stroke-width="4.2" stroke-linecap="round" stroke-linejoin="round"/>
<path d="M14.1016 30.9016L18.9016 35.7016L28.5016 26.1016" stroke="white" stroke-opacity="0.8" stroke-width="4.2" stroke-linecap="round" stroke-linejoin="round"/>
</svg>
