<svg width="43" height="53" viewBox="0 0 43 53" fill="none" xmlns="http://www.w3.org/2000/svg">
<path d="M40.4951 28.4982C40.4951 40.4962 32.0965 46.4952 22.1142 49.9746C21.5915 50.1518 21.0237 50.1433 20.5065 49.9506C10.5002 46.4952 2.10156 40.4962 2.10156 28.4982V11.701C2.10156 11.0646 2.35438 10.4543 2.80439 10.0043C3.2544 9.55425 3.86475 9.30144 4.50116 9.30144C9.30036 9.30144 15.2994 6.42192 19.4747 2.77453C19.983 2.3402 20.6297 2.10156 21.2983 2.10156C21.967 2.10156 22.6137 2.3402 23.122 2.77453C27.3213 6.44591 33.2963 9.30144 38.0955 9.30144C38.7319 9.30144 39.3423 9.55425 39.7923 10.0043C40.2423 10.4543 40.4951 11.0646 40.4951 11.701V28.4982Z" stroke="white" stroke-opacity="0.8" stroke-width="4.1993" stroke-linecap="round" stroke-linejoin="round"/>
<path d="M14.1016 26.0961L18.9008 30.8953L28.4991 21.2969" stroke="white" stroke-opacity="0.8" stroke-width="4.1993" stroke-linecap="round" stroke-linejoin="round"/>
</svg>
