<svg width="543" height="147" viewBox="0 0 543 147" fill="none" xmlns="http://www.w3.org/2000/svg">
<g clip-path="url(#clip0_12227_29549)">
<path d="M58.35 85.6317H97.6544V113.709C94.8721 116.208 91.2344 118.119 86.7402 119.589C81.4617 121.279 75.541 122.088 69.1211 122.088C62.8442 122.088 56.9947 120.912 51.6448 118.56C46.2948 116.208 41.6582 112.9 37.8062 108.637C33.9543 104.374 30.9583 99.3027 28.747 93.3492C26.6071 87.3957 25.5371 80.9277 25.5371 73.9452C25.5371 67.0362 26.6784 60.7152 28.961 54.835C31.2437 48.955 34.4536 43.8835 38.5909 39.547C42.7282 35.2105 47.5075 31.8295 53.0001 29.404C58.4924 26.9785 64.5562 25.729 71.0474 25.729C77.1818 25.729 83.1025 26.6845 88.8089 28.669C94.5153 30.6535 99.8656 33.5935 104.859 37.489L115.059 15.8065C103.075 5.81052 88.3097 0.8125 70.7618 0.8125C60.6324 0.8125 51.2881 2.65 42.6569 6.39852C34.0256 10.147 26.5357 15.2185 20.2584 21.76C13.9812 28.3015 8.98792 36.019 5.42127 44.986C1.78331 53.8795 0 63.5082 0 73.9452C0 84.7497 1.64065 94.5987 4.99328 103.492C8.34592 112.386 13.0538 120.103 19.1171 126.571C25.1804 133.039 32.4563 138.111 40.8022 141.639C49.2194 145.24 58.4212 147.004 68.4794 147.004C79.4642 147.004 89.6649 145.167 98.9383 141.418C108.211 137.743 116.129 132.304 122.692 125.101V62.1852H69.3354L58.35 85.6317Z" fill="black"/>
<path d="M154.078 144.795H182.968L223.912 55.9335L264.501 144.795H293.604L223.841 0L154.078 144.795Z" fill="black"/>
<path d="M477.931 120.469V85.85H519.945L531.358 61.5215H477.931V27.3441H538.064V3.01562H452.75V144.797H542.772V120.469H477.931Z" fill="black"/>
<path d="M355.876 3.01562H330.695V144.797H414.654V120.469H355.876V3.01562Z" fill="black"/>
</g>
<defs>
<clipPath id="clip0_12227_29549">
<rect width="542.769" height="147" fill="white"/>
</clipPath>
</defs>
</svg>
