<svg width="650" height="147" viewBox="0 0 650 147" fill="none" xmlns="http://www.w3.org/2000/svg">
<path d="M211.117 104.556V42.5078H219.564V96.9222H246.527V104.556H211.117Z" fill="black"/>
<path d="M277.555 104.556V42.5078H286.001V104.556H277.555Z" fill="black"/>
<path d="M333.431 77.9223V104.236H324.984V42.1875H356.334V49.8218H333.268V70.2881H356.334V77.9223H333.431Z" fill="black"/>
<path d="M409.929 50.1421V104.556H401.482V50.1421H385.727V42.5078H425.522V50.1421C425.685 50.1421 409.929 50.1421 409.929 50.1421Z" fill="black"/>
<path d="M484.815 105.698C466.947 105.698 453.141 91.4037 453.141 73.5363C453.141 55.6689 466.947 41.375 484.815 41.375C502.682 41.375 516.489 55.6689 516.489 73.5363C516.489 91.4037 502.682 105.698 484.815 105.698ZM484.815 49.1717C471.658 49.1717 461.749 59.7297 461.749 73.5363C461.749 87.343 471.17 97.901 484.815 97.901C497.972 97.901 507.88 87.343 507.88 73.5363C507.88 59.7297 497.972 49.1717 484.815 49.1717Z" fill="black"/>
<path d="M560.993 77.9223V104.236H552.547V42.1875H583.896V49.8218H560.831V70.2881H583.896V77.9223C584.058 77.9223 560.993 77.9223 560.993 77.9223Z" fill="black"/>
<path d="M626.618 77.9223V104.236H618.172V42.1875H649.683V49.8218H626.618V70.2881H649.683V77.9223H626.618Z" fill="black"/>
<path d="M43.9782 134.939L12.3041 103.103C-4.10138 86.6975 -4.10138 60.3837 12.3041 43.9782L43.9782 12.3041C60.3837 -4.10138 86.6975 -4.10138 103.103 12.3041L134.777 43.9782C151.183 60.3837 151.183 86.6975 134.777 103.103L103.103 134.939C86.6975 150.858 60.3837 150.858 43.9782 134.939Z" fill="#FED232"/>
<path d="M45.7627 134.127L24.6467 113.011C9.37819 97.7425 9.37819 72.8906 24.6467 57.6221L45.7627 36.5061C61.0312 21.2376 85.8832 21.2376 101.152 36.5061L122.268 57.6221C137.536 72.8906 137.536 97.7425 122.268 113.011L101.152 134.127C86.0456 149.396 61.1937 149.396 45.7627 134.127Z" fill="#FAA229"/>
<path d="M48.686 132.668L33.4175 117.399C19.6108 103.593 19.6108 81.3396 33.4175 67.8579L48.686 52.5893C62.4926 38.7827 84.7457 38.7827 98.2274 52.5893L113.496 67.8579C127.303 81.6645 127.303 103.918 113.496 117.399L98.2274 132.668C84.9081 146.474 62.655 146.474 48.686 132.668Z" fill="#F37225"/>
<path d="M52.4263 130.879L42.1931 120.646C30.4981 108.951 30.4981 89.9465 42.1931 78.7388L52.4263 68.5056C64.1213 56.8106 83.1257 56.8106 94.3335 68.5056L104.567 78.7388C116.262 90.4338 116.262 109.438 104.567 120.646L94.3335 130.879C83.1257 142.574 64.1213 142.574 52.4263 130.879Z" fill="#DB1F26"/>
<path d="M57.4563 127.144L53.0706 122.758C44.2994 113.987 44.2994 99.693 53.0706 90.5969L57.4563 86.2113C66.2275 77.44 80.5215 77.44 89.6176 86.2113L94.0032 90.5969C102.775 99.3682 102.775 113.662 94.0032 122.758L89.6176 127.144C80.8463 135.915 66.7148 135.915 57.4563 127.144Z" fill="#90191C"/>
<path d="M69.1523 111.877C66.5534 109.278 66.5534 105.704 69.1523 103.105C71.7512 100.507 75.3247 100.507 77.9236 103.105C80.5225 105.704 80.5225 109.278 77.9236 111.877C75.3247 114.476 71.7512 114.476 69.1523 111.877Z" fill="black"/>
</svg>
