<svg width="543" height="147" viewBox="0 0 543 147" fill="none" xmlns="http://www.w3.org/2000/svg">
<path d="M196.645 17.2656C194.432 17.2656 192.623 18.0108 191.22 19.4811C189.817 20.9582 189.115 22.7272 189.115 24.7917V54.8926C189.115 58.4408 188.044 61.0189 185.906 62.6436C183.768 64.2683 181.371 65.0773 178.716 65.0773C176.06 65.0773 173.697 64.2683 171.633 62.6436C169.565 61.0189 168.534 58.4408 168.534 54.8926V17.2656H153.039V51.7942C153.039 61.9789 155.657 68.6893 160.897 71.9387C166.131 75.1848 171.925 76.9505 178.273 77.2493C184.765 77.2493 190.74 75.6279 196.201 72.3785C201.66 69.1357 204.389 62.2743 204.389 51.7942V17.2656H196.641H196.645Z" fill="#333333"/>
<path d="M227.109 60.7739C225.783 59.5218 225.118 57.8568 225.118 55.7688C225.118 54.2415 225.639 52.7107 226.666 51.18C227.848 50.0689 229.764 49.1693 232.423 48.471L237.512 47.4304C241.205 46.5979 244.081 45.6916 246.146 44.7214V49.9313C246.146 53.8286 244.964 56.8867 242.608 59.1089C240.241 61.3345 236.995 62.4423 232.866 62.4423C230.355 62.4423 228.438 61.8884 227.109 60.7739ZM218.479 20.73C214.934 23.5128 212.869 27.0543 212.285 31.3645H227.109C227.848 29.8371 229.029 28.7965 230.654 28.2393C232.275 27.6854 234.118 27.4001 236.189 27.4001C238.103 27.4001 240.208 27.7156 242.497 28.3433C244.786 28.9644 245.928 30.3239 245.928 32.4085C245.928 35.1913 242.682 36.9939 236.189 37.8332C234.86 37.9741 233.678 38.1453 232.645 38.3535C231.614 38.5616 230.724 38.6657 229.986 38.6657C224.38 39.5049 219.771 41.1699 216.156 43.6707C212.537 46.1749 210.734 50.3475 210.734 56.1884C210.734 62.4423 212.725 66.927 216.71 69.6394C220.691 72.3517 225.34 73.7045 230.654 73.7045C233.313 73.7045 236.371 73.5299 239.835 73.1808C243.303 72.8317 246.589 71.8985 249.684 70.3678C252.641 68.9781 255.182 66.7155 257.321 63.5869C259.459 60.455 260.53 56.1146 260.53 50.5523V31.5693C260.53 26.5676 258.392 22.6736 254.112 19.8908C249.983 17.2523 243.783 15.9297 235.518 15.9297C228.136 15.9297 222.46 17.5276 218.479 20.7266" fill="#333333"/>
<path d="M277.585 21.473C272.342 24.8667 269.727 31.5838 269.727 41.6107V76.1427H285.222V38.5123C285.222 34.9742 286.249 32.3894 288.32 30.7647C290.385 29.1434 292.748 28.331 295.403 28.331C298.058 28.331 300.455 29.1434 302.594 30.7647C304.732 32.3894 305.806 34.9709 305.806 38.5123V68.6133C305.806 70.8288 306.501 72.6381 307.904 74.0379C309.304 75.4411 311.113 76.1427 313.325 76.1427H321.073V41.6107C321.073 31.285 318.341 24.4236 312.886 21.0298C307.424 17.6361 301.449 15.9375 294.96 15.9375C288.612 16.2295 282.822 18.0758 277.585 21.473Z" fill="#333333"/>
<path d="M332.253 0V65.0726C332.253 71.8602 335.097 75.4789 340.78 75.9186C346.46 76.3617 351.73 76.4322 356.601 76.1402V64.6295H351.955C348.997 64.6295 347.527 63.3774 347.527 60.8665V28.1069H349.075C351.139 28.1069 352.911 27.4121 354.388 26.0089C355.862 24.6091 356.601 22.7998 356.601 20.5842V17.4859H347.527V7.52607C347.527 5.45825 346.789 3.68918 345.312 2.21217C343.835 0.738508 342.139 0 340.223 0H332.25L332.253 0Z" fill="#333333"/>
<path d="M368.714 17.2656V76.1415H382.159V24.7917C382.159 22.7272 381.514 20.9582 380.238 19.4811C378.953 18.0075 377.415 17.2656 375.626 17.2656H368.711H368.714Z" fill="#333333"/>
<path d="M414.716 59.5352C412.5 56.7322 411.396 52.5328 411.396 46.9235C411.396 40.8745 412.423 36.4468 414.494 33.6438C416.706 30.5421 419.801 28.9946 423.789 28.9946C427.777 28.9946 431.097 30.5421 433.306 33.6438C435.522 36.7422 436.629 41.1699 436.629 46.9235C436.629 52.2341 435.525 56.4402 433.306 59.5352C431.097 62.637 428.069 64.1845 424.232 64.1845C420.104 64.1845 416.928 62.637 414.716 59.5352ZM405.421 21.5793C399.368 25.339 396.344 32.385 396.344 42.714V97.8269H403.873C405.938 97.8269 407.707 97.0883 409.184 95.6113C410.657 94.1343 411.399 92.3653 411.399 90.3008V68.3906C413.168 71.489 415.525 73.775 418.479 75.252C421.282 76.5746 424.528 77.2426 428.22 77.2426C435.159 77.2426 440.839 74.4397 445.26 68.8337C449.688 63.0733 451.903 55.5506 451.903 46.2589C451.903 36.9671 449.688 29.8774 445.26 24.1204C443.048 21.4651 440.06 19.4376 436.3 18.0344C432.537 16.6313 428.808 15.9297 425.122 15.9297C418.036 15.9297 411.473 17.8129 405.424 21.5759" fill="#333333"/>
<path d="M461.535 0V76.1402H476.583V45.8143C476.583 40.6549 477.688 36.5964 479.903 33.6424C482.115 30.6917 485.284 29.2147 489.42 29.2147C493.257 29.2147 496.285 30.7622 498.497 33.8606C499.826 35.7841 500.669 37.6605 501.041 39.5068C501.407 41.3531 501.595 43.3806 501.595 45.5928V76.1402H516.419V41.8331C516.419 35.0489 515.016 29.735 512.216 25.8948C509.413 22.0612 505.942 19.2549 501.817 17.4859C497.389 15.7168 492.74 15.4214 487.869 16.5996C483.002 17.7813 479.239 20.5809 476.583 25.0086V7.52607C476.583 5.45825 475.838 3.68918 474.368 2.21217C472.891 0.738508 471.122 0 469.057 0H461.531L461.535 0Z" fill="#333333"/>
<path d="M382.155 0H368.711V13.4442H382.155V0Z" fill="#333333"/>
<path d="M4.30349 136.475C2.97082 135.877 1.92683 135.044 1.17154 133.984C0.41625 132.923 0.0268548 131.694 0 130.301H3.55155C3.67576 131.496 4.16921 132.507 5.03528 133.322C5.90135 134.141 7.16353 134.551 8.82517 134.551C10.4868 134.551 11.6617 134.155 12.5781 133.359C13.4912 132.567 13.9511 131.547 13.9511 130.301C13.9511 129.324 13.6825 128.529 13.1454 127.921C12.6083 127.31 11.937 126.847 11.1313 126.528C10.3257 126.209 9.24142 125.867 7.87182 125.501C6.18668 125.065 4.83723 124.621 3.82346 124.182C2.80969 123.745 1.94362 123.054 1.22525 122.114C0.503528 121.177 0.144345 119.912 0.144345 118.327C0.144345 116.934 0.500171 115.702 1.20511 114.628C1.91341 113.554 2.90704 112.725 4.18935 112.137C5.46832 111.55 6.94198 111.258 8.60362 111.258C10.9937 111.258 12.9541 111.855 14.4781 113.05C16.0055 114.249 16.8648 115.833 17.0595 117.81H13.4006C13.2764 116.834 12.7628 115.974 11.8631 115.229C10.9601 114.487 9.76173 114.114 8.27465 114.114C6.88491 114.114 5.74693 114.474 4.8708 115.192C3.9913 115.914 3.55155 116.921 3.55155 118.213C3.55155 119.14 3.81339 119.895 4.34041 120.482C4.86408 121.07 5.51196 121.516 6.28067 121.822C7.04939 122.124 8.1303 122.473 9.52004 122.862C11.2052 123.329 12.5613 123.786 13.5852 124.235C14.6124 124.689 15.4919 125.383 16.2237 126.323C16.9555 127.263 17.3214 128.539 17.3214 130.15C17.3214 131.396 16.9924 132.567 16.3311 133.665C15.6698 134.766 14.6963 135.655 13.4039 136.34C12.1082 137.022 10.5842 137.364 8.82517 137.364C7.06618 137.364 5.6328 137.065 4.30349 136.468" fill="#333333"/>
<path d="M34.2938 136.157C32.7698 135.301 31.5714 134.089 30.7054 132.512C29.8393 130.937 29.4062 129.111 29.4062 127.037C29.4062 124.962 29.8527 123.173 30.7423 121.599C31.6352 120.024 32.847 118.816 34.3878 117.973C35.9253 117.131 37.6473 116.711 39.5507 116.711C41.454 116.711 43.1761 117.131 44.7169 117.973C46.2543 118.816 47.4695 120.017 48.359 121.582C49.252 123.143 49.6951 124.965 49.6951 127.037C49.6951 129.108 49.2352 130.937 48.3221 132.512C47.4091 134.086 46.167 135.301 44.6061 136.157C43.0418 137.01 41.3097 137.436 39.403 137.436C37.4963 137.436 35.8212 137.01 34.2938 136.157ZM42.7699 133.666C43.8206 133.106 44.6699 132.267 45.3177 131.139C45.9623 130.018 46.2879 128.648 46.2879 127.037C46.2879 125.425 45.9723 124.056 45.3379 122.935C44.7034 121.813 43.8743 120.977 42.8471 120.43C41.8233 119.88 40.7121 119.608 39.5137 119.608C38.3153 119.608 37.1774 119.883 36.1636 120.43C35.1498 120.977 34.3375 121.813 33.7299 122.935C33.1189 124.056 32.8135 125.425 32.8135 127.037C32.8135 128.648 33.1122 130.051 33.7097 131.176C34.3073 132.3 35.1062 133.133 36.1099 133.683C37.1102 134.234 38.2079 134.506 39.403 134.506C40.598 134.506 41.7225 134.224 42.7732 133.663" fill="#333333"/>
<path d="M65.8412 110.008H62.5078V137.104H65.8412V110.008Z" fill="#333333"/>
<path d="M87.4071 134.031L93.6307 117.039H97.1856L89.3104 137.106H85.4299L77.5547 117.039H81.1432L87.4071 134.031Z" fill="#333333"/>
<path d="M109.017 113.123C108.578 112.683 108.359 112.146 108.359 111.511C108.359 110.877 108.578 110.34 109.017 109.903C109.457 109.464 109.994 109.242 110.629 109.242C111.263 109.242 111.76 109.46 112.186 109.903C112.613 110.34 112.827 110.88 112.827 111.511C112.827 112.143 112.613 112.686 112.186 113.123C111.76 113.562 111.24 113.784 110.629 113.784C110.018 113.784 109.457 113.562 109.017 113.123ZM112.24 137.107H108.907V117.04H112.24V137.107Z" fill="#333333"/>
<path d="M142.043 118.895C143.557 120.372 144.315 122.504 144.315 125.287V137.113H141.019V125.76C141.019 123.759 140.515 122.229 139.518 121.164C138.518 120.1 137.152 119.573 135.416 119.573C133.681 119.573 132.261 120.12 131.224 121.218C130.183 122.319 129.666 123.917 129.666 126.018V137.113H126.336V117.046H129.666V119.902C130.327 118.878 131.224 118.086 132.358 117.522C133.493 116.962 134.745 116.68 136.111 116.68C138.552 116.68 140.529 117.418 142.043 118.895Z" fill="#333333"/>
<path d="M171.025 117.846C172.331 118.601 173.301 119.554 173.935 120.702V117.04H177.306V137.55C177.306 139.38 176.916 141.011 176.134 142.438C175.352 143.868 174.238 144.982 172.784 145.788C171.331 146.594 169.642 146.996 167.712 146.996C165.077 146.996 162.878 146.372 161.122 145.127C159.363 143.881 158.326 142.186 158.011 140.038H161.307C161.673 141.26 162.428 142.24 163.576 142.985C164.724 143.73 166.104 144.103 167.715 144.103C169.548 144.103 171.042 143.529 172.203 142.381C173.361 141.233 173.942 139.621 173.942 137.547V133.334C173.284 134.506 172.307 135.482 171.012 136.265C169.719 137.043 168.205 137.436 166.473 137.436C164.741 137.436 163.073 136.996 161.623 136.117C160.169 135.237 159.028 134.002 158.199 132.418C157.369 130.833 156.953 129.024 156.953 127C156.953 124.976 157.366 123.149 158.199 121.599C159.028 120.048 160.169 118.846 161.623 117.993C163.076 117.137 164.691 116.711 166.473 116.711C168.256 116.711 169.726 117.09 171.032 117.846M173.022 123.082C172.411 121.961 171.586 121.098 170.552 120.497C169.511 119.903 168.373 119.605 167.128 119.605C165.882 119.605 164.748 119.897 163.721 120.484C162.693 121.071 161.878 121.924 161.267 123.045C160.656 124.167 160.354 125.486 160.354 127C160.354 128.514 160.659 129.877 161.267 131.011C161.878 132.146 162.693 133.015 163.721 133.613C164.748 134.21 165.882 134.509 167.128 134.509C168.373 134.509 169.514 134.21 170.552 133.613C171.589 133.015 172.411 132.149 173.022 131.011C173.63 129.877 173.935 128.551 173.935 127.037C173.935 125.523 173.63 124.203 173.022 123.082Z" fill="#333333"/>
<path d="M241.649 111.586L234.251 137.111H230.518L224.586 116.568L218.433 137.111L214.734 137.148L207.594 111.586H211.145L216.711 133.231L222.864 111.586H226.6L232.458 133.157L238.061 111.586H241.649Z" fill="#333333"/>
<path d="M267.796 117.649C269.018 118.294 269.975 119.267 270.67 120.56C271.368 121.852 271.714 123.43 271.714 125.286V137.112H268.417V125.759C268.417 123.759 267.917 122.225 266.917 121.164C265.916 120.103 264.55 119.573 262.815 119.573C261.079 119.573 259.659 120.12 258.622 121.217C257.585 122.318 257.068 123.916 257.068 126.014V137.112H253.734V110.016H257.068V119.902C257.726 118.878 258.635 118.086 259.797 117.522C260.955 116.961 262.254 116.682 263.698 116.682C265.141 116.682 266.578 117.005 267.8 117.652" fill="#333333"/>
<path d="M285.592 121.606C286.422 120.055 287.563 118.854 289.016 118.001C290.47 117.145 292.085 116.719 293.867 116.719C295.65 116.719 297.15 117.098 298.443 117.853C299.735 118.609 300.702 119.562 301.336 120.71V117.048H304.706V137.115H301.336V133.379C300.678 134.55 299.695 135.52 298.389 136.289C297.083 137.058 295.562 137.444 293.83 137.444C292.098 137.444 290.436 137.004 288.996 136.125C287.556 135.245 286.422 134.01 285.589 132.425C284.76 130.841 284.344 129.032 284.344 127.008C284.344 124.983 284.757 123.157 285.589 121.606M300.423 123.087C299.812 121.966 298.986 121.103 297.952 120.502C296.912 119.908 295.774 119.609 294.528 119.609C293.283 119.609 292.148 119.901 291.121 120.488C290.094 121.076 289.278 121.929 288.667 123.05C288.056 124.171 287.754 125.49 287.754 127.004C287.754 128.518 288.06 129.881 288.667 131.016C289.278 132.15 290.094 133.02 291.121 133.617C292.148 134.215 293.283 134.513 294.528 134.513C295.774 134.513 296.915 134.215 297.952 133.617C298.99 133.02 299.812 132.154 300.423 131.016C301.031 129.881 301.336 128.555 301.336 127.041C301.336 125.527 301.031 124.208 300.423 123.087Z" fill="#333333"/>
<path d="M322.838 119.79V131.62C322.838 132.593 323.043 133.285 323.459 133.688C323.872 134.09 324.593 134.292 325.621 134.292H328.074V137.112H325.07C323.214 137.112 321.824 136.682 320.898 135.829C319.971 134.977 319.504 133.573 319.504 131.62V119.79H316.906V117.044H319.504V111.992H322.838V117.044H328.074V119.79H322.838Z" fill="#333333"/>
<path d="M384.607 111.773V137.114H381.273V118.219L372.854 137.114H370.511L362.049 118.182V137.114H358.719V111.773H362.307L371.68 132.72L381.055 111.773H384.607Z" fill="#333333"/>
<path d="M398.671 121.606C399.5 120.055 400.641 118.854 402.095 118.001C403.548 117.145 405.163 116.719 406.945 116.719C408.728 116.719 410.228 117.098 411.521 117.853C412.813 118.609 413.78 119.562 414.414 120.71V117.048H417.785V137.115H414.414V133.379C413.756 134.55 412.773 135.52 411.467 136.289C410.161 137.058 408.64 137.444 406.908 137.444C405.176 137.444 403.515 137.004 402.074 136.125C400.634 135.245 399.5 134.01 398.667 132.425C397.838 130.841 397.422 129.032 397.422 127.008C397.422 124.983 397.835 123.157 398.667 121.606M413.501 123.087C412.89 121.966 412.064 121.103 411.031 120.502C409.99 119.908 408.852 119.609 407.607 119.609C406.361 119.609 405.227 119.901 404.199 120.488C403.172 121.076 402.356 121.929 401.749 123.05C401.138 124.171 400.832 125.49 400.832 127.004C400.832 128.518 401.138 129.881 401.749 131.016C402.356 132.15 403.176 133.02 404.199 133.617C405.227 134.215 406.361 134.513 407.607 134.513C408.852 134.513 409.993 134.215 411.031 133.617C412.068 133.02 412.89 132.154 413.501 131.016C414.109 129.881 414.414 128.555 414.414 127.041C414.414 125.527 414.109 124.208 413.501 123.087Z" fill="#333333"/>
<path d="M435.908 119.79V131.62C435.908 132.593 436.113 133.285 436.529 133.688C436.942 134.09 437.664 134.292 438.691 134.292H441.145V137.112H438.14C436.284 137.112 434.894 136.682 433.968 135.829C433.041 134.977 432.575 133.573 432.575 131.62V119.79H429.977V117.044H432.575V111.992H435.908V117.044H441.145V119.79H435.908Z" fill="#333333"/>
<path d="M457.666 119.79V131.62C457.666 132.593 457.871 133.285 458.287 133.688C458.7 134.09 459.422 134.292 460.449 134.292H462.903V137.112H459.898C458.042 137.112 456.652 136.682 455.726 135.829C454.799 134.977 454.333 133.573 454.333 131.62V119.79H451.734V117.044H454.333V111.992H457.666V117.044H462.903V119.79H457.666Z" fill="#333333"/>
<path d="M493.549 128.322H477.51C477.631 130.299 478.309 131.844 479.544 132.951C480.776 134.066 482.273 134.62 484.029 134.62C485.469 134.62 486.671 134.284 487.638 133.613C488.601 132.941 489.279 132.045 489.672 130.921H493.26C492.723 132.851 491.649 134.418 490.038 135.627C488.426 136.835 486.426 137.44 484.032 137.44C482.129 137.44 480.427 137.01 478.926 136.157C477.426 135.301 476.244 134.089 475.392 132.512C474.536 130.937 474.109 129.115 474.109 127.037C474.109 124.959 474.526 123.143 475.355 121.582C476.184 120.017 477.349 118.819 478.853 117.973C480.353 117.134 482.082 116.711 484.032 116.711C485.983 116.711 487.621 117.127 489.084 117.956C490.548 118.785 491.679 119.927 492.471 121.38C493.264 122.834 493.663 124.475 493.663 126.305C493.663 126.939 493.626 127.611 493.552 128.319M489.373 122.337C488.812 121.424 488.047 120.726 487.084 120.252C486.12 119.776 485.049 119.537 483.881 119.537C482.196 119.537 480.763 120.075 479.578 121.149C478.393 122.223 477.715 123.71 477.543 125.613H490.216C490.216 124.344 489.934 123.25 489.373 122.337Z" fill="#333333"/>
<path d="M512.321 117.63C513.408 116.995 514.731 116.68 516.292 116.68V120.12H515.413C511.676 120.12 509.81 122.148 509.81 126.2V137.113H506.477V117.046H509.81V120.305C510.394 119.16 511.23 118.267 512.317 117.633" fill="#333333"/>
<path d="M531.526 136.651C530.304 136.124 529.341 135.392 528.632 134.452C527.924 133.512 527.535 132.434 527.461 131.213H530.902C530.999 132.216 531.469 133.032 532.312 133.666C533.154 134.301 534.255 134.62 535.625 134.62C536.894 134.62 537.894 134.338 538.626 133.777C539.358 133.217 539.724 132.508 539.724 131.656C539.724 130.803 539.334 130.125 538.552 129.695C537.77 129.269 536.561 128.846 534.927 128.43C533.436 128.04 532.221 127.641 531.281 127.241C530.341 126.839 529.535 126.238 528.864 125.445C528.193 124.653 527.857 123.609 527.857 122.314C527.857 121.286 528.163 120.346 528.77 119.494C529.381 118.638 530.247 117.96 531.372 117.463C532.493 116.959 533.775 116.711 535.215 116.711C537.438 116.711 539.23 117.272 540.6 118.393C541.966 119.517 542.698 121.058 542.795 123.008H539.462C539.388 121.958 538.968 121.118 538.2 120.481C537.431 119.846 536.397 119.531 535.105 119.531C533.909 119.531 532.956 119.786 532.248 120.299C531.54 120.813 531.184 121.484 531.184 122.314C531.184 122.971 531.399 123.515 531.825 123.942C532.251 124.368 532.788 124.707 533.436 124.965C534.084 125.221 534.98 125.509 536.128 125.825C537.568 126.214 538.74 126.6 539.643 126.98C540.546 127.359 541.321 127.926 541.969 128.681C542.617 129.44 542.953 130.427 542.976 131.649C542.976 132.747 542.671 133.734 542.06 134.613C541.449 135.493 540.59 136.181 539.478 136.681C538.367 137.181 537.092 137.433 535.652 137.433C534.114 137.433 532.735 137.171 531.513 136.644" fill="#333333"/>
</svg>
