<svg width="24" height="24" viewBox="0 0 24 24" fill="none" xmlns="http://www.w3.org/2000/svg">
<path d="M3.04893 12.9355C2.28492 11.5081 2.05936 9.85376 2.41337 8.274C2.76737 6.69424 3.67738 5.29434 4.97743 4.32955C6.27749 3.36476 7.881 2.89937 9.49557 3.01823C11.1101 3.13708 12.6282 3.83228 13.773 4.97704C14.9177 6.1218 15.6129 7.63988 15.7318 9.25445C15.8507 10.869 15.3853 12.4725 14.4205 13.7726C13.4557 15.0726 12.0558 15.9826 10.476 16.3367C8.89626 16.6907 7.24188 16.4651 5.81456 15.7011L3.21206 16.4661C3.08283 16.504 2.94576 16.5065 2.81526 16.4732C2.68476 16.4399 2.56564 16.372 2.4704 16.2768C2.37516 16.1816 2.30733 16.0624 2.27402 15.9319C2.24072 15.8014 2.24317 15.6644 2.28112 15.5352L3.04893 12.9355Z" stroke="#45A735" stroke-width="1.5" stroke-linecap="round" stroke-linejoin="round"/>
<path d="M15.3716 7.50781C16.5055 7.56946 17.6055 7.91619 18.5699 8.51591C19.5342 9.11563 20.3316 9.94895 20.8883 10.9387C21.4451 11.9285 21.7431 13.0427 21.7548 14.1783C21.7665 15.3138 21.4915 16.434 20.9553 17.435L21.7203 20.0375C21.7583 20.1667 21.7607 20.3038 21.7274 20.4343C21.6941 20.5648 21.6263 20.6839 21.531 20.7792C21.4358 20.8744 21.3167 20.9422 21.1862 20.9755C21.0557 21.0088 20.9186 21.0064 20.7894 20.9684L18.1897 20.2006C17.3309 20.6599 16.383 20.928 15.4109 20.9867C14.4388 21.0453 13.4655 20.893 12.5578 20.5403C11.6501 20.1876 10.8293 19.6428 10.1519 18.9432C9.47438 18.2436 8.95619 17.4058 8.63281 16.4872" stroke="#45A735" stroke-width="1.5" stroke-linecap="round" stroke-linejoin="round"/>
</svg>
