<svg width="61" height="60" viewBox="0 0 61 60" fill="none" xmlns="http://www.w3.org/2000/svg">
<path d="M33.354 16.1328H30.2242C29.8684 16.1328 29.5272 16.2741 29.2757 16.5257C29.0241 16.7772 28.8828 17.1184 28.8828 17.4742V42.5126C28.8828 42.8683 29.0241 43.2095 29.2757 43.461C29.5272 43.7126 29.8684 43.8539 30.2242 43.8539H33.354C34.3026 43.8539 35.2124 43.4771 35.8832 42.8062C36.554 42.1354 36.9309 41.2256 36.9309 40.277V19.7097C36.9309 18.7611 36.554 17.8513 35.8832 17.1805C35.2124 16.5097 34.3026 16.1328 33.354 16.1328Z" fill="white"/>
<path d="M29.585 12.9775C28.9718 12.516 28.2582 12.2062 27.5023 12.0734C26.7465 11.9406 25.9699 11.9885 25.2362 12.2134L14.5054 15.4323C13.4897 15.7319 12.5987 16.3533 11.9666 17.203C11.3344 18.0526 10.9952 19.0846 11.0001 20.1436V39.8585C10.9952 40.9175 11.3344 41.9495 11.9666 42.7991C12.5987 43.6487 13.4897 44.2701 14.5054 44.5698L25.2362 47.7887C25.6995 47.9285 26.1809 47.9997 26.6648 48C27.9666 47.9942 29.2131 47.4732 30.1318 46.5509C31.0505 45.6286 31.5666 44.38 31.5673 43.0782V16.9238C31.5708 16.1565 31.3931 15.3991 31.0486 14.7134C30.7041 14.0276 30.2027 13.4329 29.585 12.9775Z" fill="#45A735"/>
<path d="M44.5369 35.803C44.2842 35.8029 44.0367 35.7315 43.8228 35.597C43.6089 35.4625 43.4373 35.2703 43.3278 35.0425C43.2183 34.8148 43.1754 34.5607 43.2039 34.3097C43.2324 34.0586 43.3312 33.8207 43.489 33.6233L46.3953 29.9905L43.489 26.3577C43.2676 26.0796 43.1656 25.7252 43.2052 25.372C43.2449 25.0188 43.423 24.6958 43.7005 24.4738C43.978 24.2518 44.3323 24.1489 44.6855 24.1877C45.0388 24.2266 45.3622 24.404 45.5849 24.681L49.1618 29.1521C49.3517 29.3903 49.4552 29.6858 49.4552 29.9905C49.4552 30.2951 49.3517 30.5907 49.1618 30.8288L45.5849 35.3C45.4592 35.4571 45.2997 35.5839 45.1183 35.671C44.9369 35.7581 44.7382 35.8032 44.5369 35.803Z" fill="white"/>
<path d="M46.3239 31.3311H40.9585C40.6028 31.3311 40.2616 31.1898 40.0101 30.9383C39.7585 30.6867 39.6172 30.3455 39.6172 29.9898C39.6172 29.634 39.7585 29.2929 40.0101 29.0413C40.2616 28.7898 40.6028 28.6484 40.9585 28.6484H46.3239C46.6796 28.6484 47.0208 28.7898 47.2724 29.0413C47.5239 29.2929 47.6652 29.634 47.6652 29.9898C47.6652 30.3455 47.5239 30.6867 47.2724 30.9383C47.0208 31.1898 46.6796 31.3311 46.3239 31.3311Z" fill="white"/>
<path d="M24.8648 34.0168C24.5091 34.0167 24.1679 33.8754 23.9164 33.6238C23.6649 33.3723 23.5235 33.0312 23.5234 32.6755V27.3101C23.5234 26.9543 23.6648 26.6132 23.9163 26.3616C24.1679 26.1101 24.509 25.9688 24.8648 25.9688C25.2205 25.9688 25.5617 26.1101 25.8133 26.3616C26.0648 26.6132 26.2061 26.9543 26.2061 27.3101V32.6755C26.206 33.0312 26.0647 33.3723 25.8131 33.6238C25.5616 33.8754 25.2205 34.0167 24.8648 34.0168Z" fill="#F3F5F7"/>
</svg>
