<svg width="30" height="30" viewBox="0 0 30 30" fill="none" xmlns="http://www.w3.org/2000/svg">
<g clip-path="url(#clip0_14476_24032)">
<path d="M21.3949 0H7.95052C6.93801 0 6.11719 0.820818 6.11719 1.83333C6.11719 2.84585 6.93801 3.66667 7.95052 3.66667H21.395C22.4075 3.66667 23.2283 2.84585 23.2283 1.83333C23.2283 0.820818 22.4074 0 21.3949 0Z" fill="#455A64"/>
<path d="M21.3915 26.8897H7.94707C7.60956 26.8897 7.33594 26.6161 7.33594 26.2786V21.1636C7.33588 19.5774 8.02063 18.0683 9.21447 17.0239L11.3815 15.1271C11.6353 14.9046 11.6607 14.5185 11.4382 14.2647C11.4205 14.2446 11.4016 14.2256 11.3815 14.208L9.21447 12.3111C8.02063 11.2667 7.33588 9.75768 7.33594 8.17144V3.05644C7.33594 2.71894 7.60956 2.44531 7.94707 2.44531H21.3915C21.729 2.44531 22.0027 2.71894 22.0027 3.05644V8.17144C22.0027 9.75768 21.318 11.2667 20.1241 12.3111L17.9571 14.208C17.7033 14.4304 17.6779 14.8165 17.9004 15.0703C17.9181 15.0904 17.937 15.1094 17.9571 15.1271L20.1241 17.0239C21.318 18.0683 22.0027 19.5774 22.0027 21.1636V26.2786C22.0026 26.6161 21.729 26.8897 21.3915 26.8897Z" fill="#455A64"/>
<path d="M8.5625 25.6641H20.7847V21.1602C20.7832 19.9257 20.2485 18.7521 19.318 17.9409L17.151 16.044C16.3889 15.3773 16.3116 14.2191 16.9782 13.457C17.0319 13.3957 17.0897 13.3379 17.151 13.2843L19.318 11.3874C20.2485 10.5762 20.7832 9.40251 20.7847 8.16805V3.66406H8.5625V8.16793C8.56399 9.4024 9.09869 10.5761 10.0292 11.3873L12.1962 13.2841C12.9579 13.9512 13.0347 15.1094 12.3677 15.8712C12.3144 15.9321 12.2571 15.9894 12.1962 16.0427L10.0292 17.9409C9.09869 18.7521 8.56399 19.9257 8.5625 21.1602V25.6641Z" fill="#ECEFF1"/>
<path d="M18.288 10.1511C18.1935 9.92257 17.9706 9.7735 17.7233 9.77344H11.6122C11.2747 9.77281 11.0006 10.046 11 10.3835C10.9997 10.5462 11.0643 10.7023 11.1796 10.8172L14.2351 13.8728C14.4737 14.1113 14.8605 14.1113 15.0992 13.8728L18.1548 10.8172C18.3298 10.6426 18.3824 10.3796 18.288 10.1511Z" fill="#FFC107"/>
<path d="M21.3949 25.6641H7.95052C6.93801 25.6641 6.11719 26.4849 6.11719 27.4974C6.11719 28.5099 6.93801 29.3307 7.95052 29.3307H21.395C22.4075 29.3307 23.2283 28.5099 23.2283 27.4974C23.2283 26.4849 22.4074 25.6641 21.3949 25.6641Z" fill="#455A64"/>
<path d="M15.0843 19.1034C14.8429 18.8848 14.4725 18.894 14.2422 19.1242L8.5625 24.8026V25.6667H20.7847V24.2856L15.0843 19.1034Z" fill="#FFC107"/>
</g>
<defs>
<clipPath id="clip0_14476_24032">
<rect width="29.3333" height="29.3333" fill="white"/>
</clipPath>
</defs>
</svg>
