<svg width="16" height="16" viewBox="0 0 16 16" fill="none" xmlns="http://www.w3.org/2000/svg">
<g clip-path="url(#clip0_14562_310)">
<path d="M9.68533 14.4616C9.71066 14.5247 9.75469 14.5786 9.81151 14.616C9.86833 14.6533 9.93523 14.6724 10.0032 14.6707C10.0712 14.669 10.137 14.6465 10.1919 14.6062C10.2467 14.566 10.2879 14.5099 10.31 14.4456L14.6433 1.77894C14.6647 1.71986 14.6687 1.65594 14.6551 1.59464C14.6414 1.53334 14.6106 1.4772 14.5661 1.43279C14.5217 1.38838 14.4656 1.35753 14.4043 1.34386C14.343 1.33019 14.2791 1.33427 14.22 1.3556L1.55333 5.68894C1.48899 5.711 1.43295 5.75221 1.39271 5.80705C1.35247 5.86189 1.32998 5.92772 1.32823 5.99571C1.32649 6.0637 1.34559 6.1306 1.38297 6.18742C1.42034 6.24424 1.47421 6.28827 1.53733 6.3136L6.824 8.4336C6.99112 8.50051 7.14296 8.60058 7.27037 8.72776C7.39778 8.85494 7.49812 9.0066 7.56533 9.1736L9.68533 14.4616Z" stroke="white" stroke-width="1.33333" stroke-linecap="round" stroke-linejoin="round"/>
<path d="M14.5746 1.42969L7.28125 8.72235" stroke="white" stroke-width="1.33333" stroke-linecap="round" stroke-linejoin="round"/>
</g>
<defs>
<clipPath id="clip0_14562_310">
<rect width="16" height="16" fill="white"/>
</clipPath>
</defs>
</svg>
