<svg width="24" height="24" viewBox="0 0 24 24" fill="none" xmlns="http://www.w3.org/2000/svg">
<path d="M20.1816 4.18137C18.841 4.03934 17.5215 3.7411 16.25 3.29273C15.0836 2.88052 13.9646 2.34476 12.9121 1.69458C12.6376 1.52647 12.3219 1.4375 12 1.4375C11.6781 1.4375 11.3624 1.52647 11.0879 1.69458C10.0354 2.34477 8.91643 2.88054 7.75 3.29273C6.47855 3.74111 5.15905 4.03936 3.81836 4.1814C3.38805 4.22557 2.98943 4.42785 2.6997 4.74906C2.40996 5.07027 2.24972 5.48756 2.25 5.92014V11.1154C2.25069 13.0324 2.76365 14.9144 3.73578 16.5666C4.70792 18.2189 6.10391 19.5813 7.7793 20.5129L11.1494 22.385C11.4091 22.5306 11.7018 22.6071 11.9994 22.6071C12.2971 22.6072 12.5899 22.5309 12.8496 22.3855L16.2207 20.5129C17.8961 19.5813 19.2921 18.2189 20.2642 16.5666C21.2364 14.9144 21.7493 13.0324 21.75 11.1154V5.92014C21.7503 5.48756 21.5901 5.07026 21.3003 4.74904C21.0106 4.42782 20.612 4.22554 20.1816 4.18137Z" fill="#0DB561"/>
<path d="M11.3017 15.2319C11.0077 15.2323 10.724 15.1242 10.5048 14.9282L7.6552 12.3955C7.53695 12.291 7.44049 12.1642 7.37133 12.0224C7.30217 11.8805 7.26168 11.7264 7.25218 11.5689C7.24267 11.4113 7.26435 11.2535 7.31595 11.1044C7.36756 10.9552 7.44808 10.8177 7.55291 10.6998C7.65774 10.5818 7.78482 10.4857 7.92686 10.4169C8.0689 10.3481 8.22311 10.3081 8.38066 10.299C8.53822 10.2899 8.69601 10.312 8.84501 10.364C8.994 10.416 9.13127 10.4969 9.24895 10.6021L11.2255 12.3584L15.1767 8.14404C15.3945 7.91236 15.6952 7.7765 16.013 7.76625C16.3308 7.756 16.6397 7.87219 16.872 8.08935C17.1042 8.3071 17.2405 8.60809 17.2509 8.92623C17.2613 9.24437 17.1451 9.55364 16.9277 9.78613L12.1777 14.853C12.0656 14.9731 11.93 15.0687 11.7792 15.1339C11.6285 15.1991 11.4659 15.2325 11.3017 15.2319Z" fill="white"/>
</svg>
