<svg width="24" height="24" viewBox="0 0 24 24" fill="none" xmlns="http://www.w3.org/2000/svg">
<path d="M22.5 15.375C22.3667 15.1634 22.1902 14.9822 21.9822 14.8433C21.7741 14.7043 21.5391 14.6108 21.2925 14.5687C21.0998 14.5407 20.904 14.5407 20.7113 14.5687C20.6123 14.0714 20.3332 13.6281 19.9275 13.3237C19.7317 13.1676 19.5057 13.0537 19.2636 12.9891C19.0216 12.9246 18.7689 12.9108 18.5213 12.9487C17.505 13.11 16.7963 14.1038 16.7213 14.2125C16.027 15.0482 15.1313 15.6935 14.1188 16.0875C13.5331 16.0353 12.9602 15.8858 12.4238 15.645L13.125 14.745L13.1475 14.7113C13.3757 14.3437 13.5192 13.9299 13.5675 13.5H14.25C14.8814 13.5002 15.4916 13.2728 15.9689 12.8595C16.4462 12.4463 16.7586 11.8749 16.8488 11.25H17.625C17.8239 11.25 18.0147 11.171 18.1554 11.0303C18.296 10.8897 18.375 10.6989 18.375 10.5C18.375 10.3011 18.296 10.1103 18.1554 9.96967C18.0147 9.82902 17.8239 9.75 17.625 9.75H16.875V9H17.625C17.8239 9 18.0147 8.92098 18.1554 8.78033C18.296 8.63968 18.375 8.44891 18.375 8.25C18.375 8.05109 18.296 7.86032 18.1554 7.71967C18.0147 7.57902 17.8239 7.5 17.625 7.5H16.875V6.75H17.625C17.8239 6.75 18.0147 6.67098 18.1554 6.53033C18.296 6.38968 18.375 6.19891 18.375 6C18.375 5.80109 18.296 5.61032 18.1554 5.46967C18.0147 5.32902 17.8239 5.25 17.625 5.25H16.845C16.7636 4.69015 16.5035 4.17157 16.1035 3.77153C15.7035 3.37149 15.1849 3.1114 14.625 3.03V2.25C14.625 2.05109 14.546 1.86032 14.4054 1.71967C14.2647 1.57902 14.0739 1.5 13.875 1.5C13.6761 1.5 13.4853 1.57902 13.3447 1.71967C13.204 1.86032 13.125 2.05109 13.125 2.25V3H12.375V2.25C12.375 2.05109 12.296 1.86032 12.1554 1.71967C12.0147 1.57902 11.8239 1.5 11.625 1.5C11.4261 1.5 11.2354 1.57902 11.0947 1.71967C10.954 1.86032 10.875 2.05109 10.875 2.25V3H10.125V2.25C10.125 2.05109 10.046 1.86032 9.90536 1.71967C9.76471 1.57902 9.57394 1.5 9.37503 1.5C9.17612 1.5 8.98535 1.57902 8.8447 1.71967C8.70405 1.86032 8.62503 2.05109 8.62503 2.25V3.03C8.06517 3.1114 7.5466 3.37149 7.14656 3.77153C6.74652 4.17157 6.48643 4.69015 6.40503 5.25H5.62503C5.42612 5.25 5.23535 5.32902 5.0947 5.46967C4.95405 5.61032 4.87503 5.80109 4.87503 6C4.87503 6.19891 4.95405 6.38968 5.0947 6.53033C5.23535 6.67098 5.42612 6.75 5.62503 6.75H6.37503V7.5H5.62503C5.42612 7.5 5.23535 7.57902 5.0947 7.71967C4.95405 7.86032 4.87503 8.05109 4.87503 8.25C4.87503 8.44891 4.95405 8.63968 5.0947 8.78033C5.23535 8.92098 5.42612 9 5.62503 9H6.37503V9.75H5.62503C5.42612 9.75 5.23535 9.82902 5.0947 9.96967C4.95405 10.1103 4.87503 10.3011 4.87503 10.5C4.87503 10.6989 4.95405 10.8897 5.0947 11.0303C5.23535 11.171 5.42612 11.25 5.62503 11.25H6.40503C6.48402 11.7939 6.73171 12.2992 7.11318 12.6948C7.49465 13.0904 7.99066 13.3563 8.53128 13.455L7.84878 14.1375C7.52197 14.4656 7.1297 14.7211 6.69753 14.8875C6.58905 14.3954 6.31582 13.955 5.92304 13.6393C5.53026 13.3236 5.04147 13.1514 4.53753 13.1512H3.33753C3.04603 13.1512 2.7574 13.2088 2.48823 13.3207C2.21907 13.4326 1.97466 13.5966 1.76906 13.8032C1.56347 14.0099 1.40073 14.2551 1.29021 14.5249C1.17968 14.7946 1.12355 15.0835 1.12503 15.375V20.3325C1.12602 20.919 1.35944 21.4812 1.77415 21.8959C2.18886 22.3106 2.75104 22.544 3.33753 22.545H4.53753C4.95732 22.544 5.36817 22.4236 5.72209 22.1978C6.07601 21.972 6.3584 21.6502 6.53628 21.27C7.90439 21.7086 9.33337 21.9275 10.77 21.9188C12.73 21.8988 14.6747 21.5723 16.5338 20.9513C18.2831 20.3947 19.9599 19.6318 21.5288 18.6788C22.1591 18.2824 22.622 17.6686 22.83 16.9537C22.8866 16.6821 22.8864 16.4016 22.8297 16.13C22.7729 15.8583 22.6607 15.6013 22.5 15.375ZM17.955 15.0525C18.1473 14.7651 18.4256 14.5459 18.75 14.4263C18.796 14.4193 18.843 14.4231 18.8873 14.4374C18.9315 14.4518 18.9718 14.4762 19.005 14.5087C19.1094 14.578 19.187 14.6807 19.2252 14.8C19.2634 14.9193 19.2598 15.048 19.215 15.165L19.1775 15.1912C18.5286 15.6034 17.8048 15.8838 17.0475 16.0162C17.3874 15.7325 17.6932 15.4104 17.9588 15.0563L17.955 15.0525ZM7.87503 10.875V5.625C7.87503 5.32663 7.99355 5.04048 8.20453 4.8295C8.41551 4.61853 8.70166 4.5 9.00003 4.5H14.25C14.5484 4.5 14.8345 4.61853 15.0455 4.8295C15.2565 5.04048 15.375 5.32663 15.375 5.625V10.875C15.375 11.1734 15.2565 11.4595 15.0455 11.6705C14.8345 11.8815 14.5484 12 14.25 12H13.125C13.0913 11.9625 13.0613 11.925 13.0238 11.8875C12.8282 11.6741 12.5881 11.5064 12.3204 11.3962C12.0528 11.286 11.7641 11.2361 11.475 11.25C10.904 11.3211 10.3746 11.5858 9.97503 12H9.00003C8.70166 12 8.41551 11.8815 8.20453 11.6705C7.99355 11.4595 7.87503 11.1734 7.87503 10.875ZM5.25003 20.3325C5.24904 20.5212 5.17366 20.7018 5.04025 20.8352C4.90685 20.9686 4.72619 21.044 4.53753 21.045H3.33753C3.14887 21.044 2.96821 20.9686 2.8348 20.8352C2.7014 20.7018 2.62601 20.5212 2.62503 20.3325V15.375C2.62602 15.1867 2.70152 15.0064 2.83504 14.8736C2.96855 14.7408 3.14921 14.6662 3.33753 14.6663H4.53753C4.72585 14.6662 4.90651 14.7408 5.04002 14.8736C5.17353 15.0064 5.24904 15.1867 5.25003 15.375V20.3325ZM21.375 16.635C21.2522 16.958 21.027 17.232 20.7338 17.415C20.6625 17.46 13.35 22.0912 6.76128 19.755V16.4587C7.58386 16.2464 8.33152 15.8103 8.92128 15.1987L10.7963 13.3237L10.8638 13.2488C11.04 13.0054 11.294 12.8295 11.5838 12.75C11.6325 12.75 11.7638 12.75 11.9588 12.9487C12.2363 13.2262 11.9213 13.785 11.8725 13.8675L10.7663 15.345C10.6747 15.4675 10.6228 15.615 10.6174 15.7678C10.612 15.9206 10.6535 16.0714 10.7363 16.2C10.8938 16.4475 11.8613 17.67 15.4913 17.67C18.3338 17.67 19.9913 16.4438 20.0625 16.395C20.3395 16.1788 20.6788 16.0578 21.03 16.05C21.075 16.059 21.1174 16.0782 21.1538 16.1062C21.1902 16.1342 21.2197 16.1701 21.24 16.2113C21.2928 16.2673 21.3324 16.3344 21.3558 16.4078C21.3791 16.4811 21.3857 16.5588 21.375 16.635Z" fill="#45A735"/>
<path d="M9.62938 9.5961H10.1581C10.1872 9.59716 10.2159 9.58952 10.2407 9.57415C10.2654 9.55879 10.285 9.5364 10.2969 9.50985L10.4431 9.11235H11.5081L11.6544 9.50985C11.6652 9.53642 11.684 9.55898 11.7082 9.57442C11.7323 9.58987 11.7607 9.59744 11.7894 9.5961H12.3181C12.3294 9.59628 12.3406 9.59403 12.351 9.5895C12.3613 9.58497 12.3706 9.57827 12.3781 9.56985C12.3865 9.56306 12.3932 9.55447 12.3977 9.54473C12.4022 9.53499 12.4045 9.52434 12.4044 9.5136C12.4069 9.50122 12.4069 9.48847 12.4044 9.4761L11.4594 6.8511C11.4492 6.81584 11.4273 6.7851 11.3973 6.76396C11.3673 6.74283 11.331 6.73256 11.2944 6.73485H10.6569C10.6206 6.732 10.5845 6.74212 10.5549 6.76341C10.5254 6.78469 10.5044 6.81577 10.4956 6.8511L9.54688 9.4761C9.54688 9.4761 9.54688 9.4761 9.54688 9.5136C9.54834 9.53495 9.5577 9.555 9.57313 9.56985C9.58023 9.5778 9.58889 9.58423 9.59856 9.58875C9.60822 9.59326 9.61871 9.59576 9.62938 9.5961ZM10.9756 7.46985L11.3506 8.50485H10.6119L10.9756 7.46985Z" fill="#45A735"/>
<path d="M12.8122 9.59314H13.3935C13.4075 9.59432 13.4215 9.59223 13.4345 9.58702C13.4476 9.58181 13.4592 9.57363 13.4685 9.56314C13.4776 9.55375 13.4846 9.54256 13.4891 9.53029C13.4937 9.51802 13.4956 9.50494 13.4947 9.49189V6.86689C13.4956 6.85384 13.4937 6.84075 13.4891 6.82848C13.4846 6.81621 13.4776 6.80502 13.4685 6.79564C13.4586 6.78593 13.4469 6.77828 13.434 6.77313C13.4211 6.76799 13.4073 6.76544 13.3935 6.76564H12.8122C12.7995 6.7658 12.787 6.76855 12.7754 6.77371C12.7638 6.77886 12.7534 6.78632 12.7447 6.79564C12.7338 6.80397 12.7251 6.81479 12.7192 6.82718C12.7134 6.83957 12.7105 6.85318 12.711 6.86689V9.49189C12.7105 9.50559 12.7134 9.5192 12.7192 9.53159C12.7251 9.54398 12.7338 9.5548 12.7447 9.56314C12.7529 9.57304 12.7632 9.5809 12.7749 9.58611C12.7867 9.59132 12.7994 9.59372 12.8122 9.59314Z" fill="#45A735"/>
</svg>
