<svg width="24" height="24" viewBox="0 0 24 24" fill="none" xmlns="http://www.w3.org/2000/svg">
<path d="M9 18C9 18.7956 9.31607 19.5587 9.87868 20.1213C10.4413 20.6839 11.2044 21 12 21C12.7956 21 13.5587 20.6839 14.1213 20.1213C14.6839 19.5587 15 18.7956 15 18" stroke="#434343" stroke-width="1.5" stroke-linecap="round" stroke-linejoin="round"/>
<path d="M5.24939 9.75C5.24939 7.95979 5.96055 6.2429 7.22642 4.97703C8.49229 3.71116 10.2092 3 11.9994 3C13.7896 3 15.5065 3.71116 16.7724 4.97703C18.0382 6.2429 18.7494 7.95979 18.7494 9.75C18.7494 13.1081 19.5275 15.8063 20.1463 16.875C20.212 16.9888 20.2466 17.1179 20.2468 17.2493C20.2469 17.3808 20.2124 17.5099 20.1469 17.6239C20.0814 17.7378 19.9871 17.8325 19.8735 17.8985C19.7598 17.9645 19.6308 17.9995 19.4994 18H4.49939C4.36813 17.9992 4.23936 17.964 4.12598 17.8978C4.01259 17.8317 3.91855 17.7369 3.85326 17.6231C3.78797 17.5092 3.75371 17.3801 3.75391 17.2489C3.75411 17.1176 3.78876 16.9887 3.85439 16.875C4.47221 15.8063 5.24939 13.1072 5.24939 9.75Z" stroke="#434343" stroke-width="1.5" stroke-linecap="round" stroke-linejoin="round"/>
</svg>
