<svg width="24" height="24" viewBox="0 0 24 24" fill="none" xmlns="http://www.w3.org/2000/svg">
<path d="M12.0031 18.7955H3.91062C2.95513 18.7955 2.17813 18.0185 2.17813 17.063V6.00875C2.17813 5.05325 2.95513 4.27625 3.91062 4.27625H5.53963V4.68425C5.53963 5.057 5.84187 5.35925 6.21462 5.35925C6.58737 5.35925 6.88962 5.057 6.88962 4.68425V4.27625H14.9626V4.68425C14.9626 5.057 15.2649 5.35925 15.6376 5.35925C16.0104 5.35925 16.3126 5.057 16.3126 4.68425V4.27625H17.9356C18.8904 4.27625 19.6681 5.05325 19.6681 6.00875V10.8312C19.6681 11.204 19.9704 11.5063 20.3431 11.5063C20.7159 11.5063 21.0181 11.204 21.0181 10.8312V6.00875C21.0181 4.30925 19.6351 2.92625 17.9356 2.92625H16.3126V2.58125C16.3126 2.2085 16.0104 1.90625 15.6376 1.90625C15.2649 1.90625 14.9626 2.2085 14.9626 2.58125V2.92625H6.88962V2.58125C6.88962 2.2085 6.58737 1.90625 6.21462 1.90625C5.84187 1.90625 5.53963 2.2085 5.53963 2.58125V2.92625H3.91062C2.21113 2.92625 0.828125 4.30925 0.828125 6.00875V17.0638C0.828125 18.764 2.21113 20.1463 3.91062 20.1463H12.0031C12.3759 20.1463 12.6781 19.844 12.6781 19.4713C12.6781 19.0985 12.3759 18.7955 12.0031 18.7955Z" fill="#484848"/>
<path d="M6.06831 9.17969C5.63781 9.17969 5.28906 9.52844 5.28906 9.95894C5.28906 10.3894 5.63781 10.7382 6.06831 10.7382C6.49881 10.7382 6.84756 10.3894 6.84756 9.95894C6.84756 9.52844 6.49881 9.17969 6.06831 9.17969Z" fill="#484848"/>
<path d="M10.9277 9.17969C10.4972 9.17969 10.1484 9.52844 10.1484 9.95894C10.1484 10.3894 10.4972 10.7382 10.9277 10.7382C11.3582 10.7382 11.7069 10.3894 11.7069 9.95894C11.7069 9.52844 11.3574 9.17969 10.9277 9.17969Z" fill="#484848"/>
<path d="M14.9922 9.95894C14.9922 10.3894 15.3409 10.7382 15.7714 10.7382C16.2019 10.7382 16.5507 10.3894 16.5507 9.95894C16.5507 9.52844 16.2019 9.17969 15.7714 9.17969C15.3409 9.17969 14.9922 9.52844 14.9922 9.95894Z" fill="#484848"/>
<path d="M6.06831 13.4219C5.63781 13.4219 5.28906 13.7706 5.28906 14.2011C5.28906 14.6316 5.63781 14.9804 6.06831 14.9804C6.49881 14.9804 6.84756 14.6316 6.84756 14.2011C6.84756 13.7706 6.49881 13.4219 6.06831 13.4219Z" fill="#484848"/>
<path d="M10.9277 13.4219C10.4972 13.4219 10.1484 13.7706 10.1484 14.2011C10.1484 14.6316 10.4972 14.9804 10.9277 14.9804C11.3582 14.9804 11.7069 14.6316 11.7069 14.2011C11.7069 13.7706 11.3574 13.4219 10.9277 13.4219Z" fill="#484848"/>
<path d="M18.3814 12.5C15.7377 12.5 13.5859 14.651 13.5859 17.2947C13.5859 19.9377 15.7369 22.0895 18.3814 22.0895C21.0259 22.0895 23.1769 19.9385 23.1769 17.2947C23.1762 14.6502 21.0252 12.5 18.3814 12.5ZM18.3814 20.738C16.4824 20.738 14.9367 19.193 14.9367 17.294C14.9367 15.395 16.4824 13.8492 18.3814 13.8492C20.2804 13.8492 21.8262 15.395 21.8262 17.294C21.8262 19.193 20.2804 20.738 18.3814 20.738Z" fill="#484848"/>
<path d="M19.3581 16.0633L17.8791 17.255L17.5109 16.7848C17.2799 16.4915 16.8576 16.4405 16.5629 16.6708C16.2696 16.901 16.2186 17.3248 16.4489 17.6188L17.2394 18.6268C17.3504 18.7685 17.5139 18.8608 17.6931 18.881C17.7186 18.884 17.7441 18.8855 17.7704 18.8855C17.9234 18.8855 18.0734 18.833 18.1934 18.7363L20.2049 17.1163C20.4959 16.8815 20.5409 16.457 20.3076 16.1668C20.0736 15.8765 19.6484 15.8285 19.3581 16.0633Z" fill="#484848"/>
</svg>
