<svg width="23" height="21" viewBox="0 0 23 21" fill="none" xmlns="http://www.w3.org/2000/svg">
<path d="M11.175 16.8893H3.0825C2.127 16.8893 1.35 16.1123 1.35 15.1568V4.1025C1.35 3.147 2.127 2.37 3.0825 2.37H4.7115V2.778C4.7115 3.15075 5.01375 3.453 5.3865 3.453C5.75925 3.453 6.0615 3.15075 6.0615 2.778V2.37H14.1345V2.778C14.1345 3.15075 14.4368 3.453 14.8095 3.453C15.1823 3.453 15.4845 3.15075 15.4845 2.778V2.37H17.1075C18.0623 2.37 18.84 3.147 18.84 4.1025V8.925C18.84 9.29775 19.1423 9.6 19.515 9.6C19.8878 9.6 20.19 9.29775 20.19 8.925V4.1025C20.19 2.403 18.807 1.02 17.1075 1.02H15.4845V0.675C15.4845 0.30225 15.1823 0 14.8095 0C14.4368 0 14.1345 0.30225 14.1345 0.675V1.02H6.0615V0.675C6.0615 0.30225 5.75925 0 5.3865 0C5.01375 0 4.7115 0.30225 4.7115 0.675V1.02H3.0825C1.383 1.02 0 2.403 0 4.1025V15.1575C0 16.8577 1.383 18.24 3.0825 18.24H11.175C11.5477 18.24 11.85 17.9377 11.85 17.565C11.85 17.1922 11.5477 16.8893 11.175 16.8893Z" fill="white"/>
<path d="M5.24019 7.27344C4.80969 7.27344 4.46094 7.62219 4.46094 8.05269C4.46094 8.48319 4.80969 8.83194 5.24019 8.83194C5.67069 8.83194 6.01944 8.48319 6.01944 8.05269C6.01944 7.62219 5.67069 7.27344 5.24019 7.27344Z" fill="white"/>
<path d="M10.0996 7.27344C9.66906 7.27344 9.32031 7.62219 9.32031 8.05269C9.32031 8.48319 9.66906 8.83194 10.0996 8.83194C10.5301 8.83194 10.8788 8.48319 10.8788 8.05269C10.8788 7.62219 10.5293 7.27344 10.0996 7.27344Z" fill="white"/>
<path d="M14.1641 8.05269C14.1641 8.48319 14.5128 8.83194 14.9433 8.83194C15.3738 8.83194 15.7226 8.48319 15.7226 8.05269C15.7226 7.62219 15.3738 7.27344 14.9433 7.27344C14.5128 7.27344 14.1641 7.62219 14.1641 8.05269Z" fill="white"/>
<path d="M5.24019 11.5156C4.80969 11.5156 4.46094 11.8644 4.46094 12.2949C4.46094 12.7254 4.80969 13.0741 5.24019 13.0741C5.67069 13.0741 6.01944 12.7254 6.01944 12.2949C6.01944 11.8644 5.67069 11.5156 5.24019 11.5156Z" fill="white"/>
<path d="M10.0996 11.5156C9.66906 11.5156 9.32031 11.8644 9.32031 12.2949C9.32031 12.7254 9.66906 13.0741 10.0996 13.0741C10.5301 13.0741 10.8788 12.7254 10.8788 12.2949C10.8788 11.8644 10.5293 11.5156 10.0996 11.5156Z" fill="white"/>
<path d="M17.5533 10.5938C14.9096 10.5938 12.7578 12.7447 12.7578 15.3885C12.7578 18.0315 14.9088 20.1832 17.5533 20.1832C20.1978 20.1832 22.3488 18.0322 22.3488 15.3885C22.3481 12.744 20.1971 10.5938 17.5533 10.5938ZM17.5533 18.8317C15.6543 18.8317 14.1086 17.2867 14.1086 15.3877C14.1086 13.4887 15.6543 11.943 17.5533 11.943C19.4523 11.943 20.9981 13.4887 20.9981 15.3877C20.9981 17.2867 19.4523 18.8317 17.5533 18.8317Z" fill="white"/>
<path d="M18.53 14.157L17.051 15.3488L16.6827 14.8785C16.4517 14.5853 16.0295 14.5343 15.7347 14.7645C15.4415 14.9948 15.3905 15.4185 15.6207 15.7125L16.4112 16.7205C16.5222 16.8623 16.6857 16.9545 16.865 16.9748C16.8905 16.9778 16.916 16.9793 16.9422 16.9793C17.0952 16.9793 17.2452 16.9268 17.3652 16.83L19.3767 15.21C19.6677 14.9753 19.7127 14.5508 19.4795 14.2605C19.2455 13.9703 18.8202 13.9223 18.53 14.157Z" fill="white"/>
</svg>
