<svg width="24" height="24" viewBox="0 0 24 24" fill="none" xmlns="http://www.w3.org/2000/svg">
<path d="M21.19 10.0048C20.8652 9.81599 20.5734 9.5755 20.326 9.2928C20.351 8.89921 20.4448 8.51305 20.603 8.1518C20.894 7.3308 21.223 6.4008 20.695 5.6778C20.167 4.9548 19.17 4.9778 18.295 4.9978C17.9084 5.03758 17.5178 5.01121 17.14 4.9198C16.9387 4.59231 16.795 4.23279 16.715 3.8568C16.467 3.0118 16.184 2.0568 15.315 1.7708C14.477 1.5008 13.701 2.0948 13.015 2.6168C12.719 2.88712 12.376 3.10098 12.003 3.2478C11.6261 3.10217 11.2793 2.88826 10.98 2.6168C10.296 2.0978 9.523 1.4978 8.681 1.7718C7.814 2.0538 7.531 3.0118 7.281 3.8568C7.20113 4.23157 7.05881 4.59023 6.86 4.9178C6.48152 5.00896 6.09043 5.036 5.703 4.9978C4.825 4.9738 3.836 4.9478 3.303 5.6778C2.77 6.4078 3.103 7.3308 3.395 8.1508C3.55544 8.51151 3.65058 8.89784 3.676 9.2918C3.42908 9.57488 3.13757 9.81572 2.813 10.0048C2.081 10.5048 1.25 11.0738 1.25 11.9978C1.25 12.9218 2.081 13.4888 2.813 13.9908C3.1375 14.1796 3.429 14.4201 3.676 14.7028C3.65326 15.0966 3.56082 15.4833 3.403 15.8448C3.113 16.6648 2.785 17.5948 3.312 18.3178C3.839 19.0408 4.833 19.0178 5.712 18.9978C6.09897 18.958 6.48989 18.9844 6.868 19.0758C7.06838 19.4036 7.21174 19.7631 7.292 20.1388C7.54 20.9838 7.823 21.9388 8.692 22.2248C8.83132 22.2695 8.97669 22.2924 9.123 22.2928C9.82621 22.1919 10.4798 21.8721 10.991 21.3788C11.287 21.1085 11.63 20.8946 12.003 20.7478C12.3799 20.8934 12.7267 21.1073 13.026 21.3788C13.711 21.9018 14.487 22.4988 15.326 22.2238C16.193 21.9418 16.476 20.9838 16.726 20.1398C16.8061 19.7643 16.9495 19.4052 17.15 19.0778C17.527 18.986 17.9169 18.959 18.303 18.9978C19.181 19.0188 20.17 19.0478 20.703 18.3178C21.236 17.5878 20.903 16.6648 20.611 15.8438C20.4517 15.4834 20.3566 15.0979 20.33 14.7048C20.5771 14.4215 20.8689 14.1806 21.194 13.9918C21.926 13.4918 22.757 12.9218 22.757 11.9978C22.757 11.0738 21.923 10.5058 21.19 10.0048Z" fill="#45A735"/>
<path d="M11.0047 14.75C10.9062 14.7502 10.8087 14.7308 10.7177 14.6931C10.6267 14.6553 10.5441 14.5999 10.4747 14.53L8.47473 12.53C8.34225 12.3878 8.27013 12.1998 8.27355 12.0055C8.27698 11.8112 8.3557 11.6258 8.49311 11.4884C8.63052 11.351 8.81591 11.2723 9.01021 11.2688C9.20451 11.2654 9.39255 11.3375 9.53473 11.47L11.0747 13.01L14.5547 10.4C14.7139 10.2807 14.9139 10.2294 15.1108 10.2575C15.3077 10.2857 15.4854 10.3909 15.6047 10.55C15.7241 10.7091 15.7753 10.9092 15.7472 11.1061C15.7191 11.303 15.6139 11.4807 15.4547 11.6L11.4547 14.6C11.3249 14.6973 11.167 14.7499 11.0047 14.75Z" fill="white"/>
</svg>
