<svg width="28" height="28" viewBox="0 0 28 28" fill="none" xmlns="http://www.w3.org/2000/svg">
<rect x="0.5" y="0.5" width="27" height="27" rx="5.5" stroke="#D9D9D9"/>
<path fill-rule="evenodd" clip-rule="evenodd" d="M8.96967 8.96967C9.26256 8.67678 9.73744 8.67678 10.0303 8.96967L14 12.9393L17.9697 8.96967C18.2626 8.67678 18.7374 8.67678 19.0303 8.96967C19.3232 9.26256 19.3232 9.73744 19.0303 10.0303L15.0607 14L19.0303 17.9697C19.3232 18.2626 19.3232 18.7374 19.0303 19.0303C18.7374 19.3232 18.2626 19.3232 17.9697 19.0303L14 15.0607L10.0303 19.0303C9.73744 19.3232 9.26256 19.3232 8.96967 19.0303C8.67678 18.7374 8.67678 18.2626 8.96967 17.9697L12.9393 14L8.96967 10.0303C8.67678 9.73744 8.67678 9.26256 8.96967 8.96967Z" fill="#343741"/>
</svg>
