<svg width="27" height="25" viewBox="0 0 27 25" fill="none" xmlns="http://www.w3.org/2000/svg">
<path d="M21.8775 20.0405C22.7116 18.9568 23.3609 17.7575 23.8254 16.4428C24.2898 15.128 24.5209 13.7555 24.5186 12.3298C24.5139 10.093 23.9617 8.02961 22.8664 6.13948C22.8017 6.02626 22.7347 5.91535 22.6654 5.80443C22.365 7.20239 21.1219 8.25143 19.6361 8.25143C19.5206 8.25143 19.4074 8.2445 19.2964 8.23295C20.022 9.49689 20.3871 10.8648 20.3894 12.3367C20.3917 14.0073 19.9296 15.5439 18.9984 16.9488L17.3836 14.9505L14.2517 17.7177L15.8697 19.6823C14.7398 20.2739 13.5498 20.5719 12.2951 20.5742C10.8209 20.5766 9.45529 20.2115 8.2006 19.4767C6.94591 18.7419 5.95463 17.7483 5.22677 16.4959C4.49891 15.2435 4.13382 13.8687 4.13151 12.369C4.1292 10.8694 4.48735 9.49226 5.21059 8.23757C5.93383 6.98288 6.92049 5.98467 8.17287 5.24525C9.42525 4.50584 10.7886 4.13382 12.2628 4.13151C13.737 4.1292 15.0956 4.49429 16.3388 5.22908C16.4081 5.27067 16.4774 5.31226 16.5467 5.35616C16.5421 5.28915 16.5398 5.22215 16.5398 5.15283C16.5398 3.62316 17.6536 2.34998 19.1139 2.10043C18.8805 1.9433 18.6425 1.79311 18.3976 1.64754C16.5144 0.545348 14.4671 -0.00459246 12.2558 2.88835e-05C10.0445 0.00465023 7.99957 0.561521 6.121 1.67064C4.24242 2.77976 2.75204 4.2817 1.64985 6.17645C0.545347 8.07813 -0.00459246 10.1416 2.88834e-05 12.3783C0.00465022 14.615 0.561522 16.6785 1.67064 18.5686C2.77977 20.4587 4.27708 21.956 6.15797 23.0582C8.04116 24.1604 10.0884 24.7103 12.2997 24.7057C14.6335 24.7011 16.7963 24.0703 18.7835 22.8133L20.3709 24.47L26.0482 24.4585L21.8728 20.0428L21.8775 20.0405Z" fill="#45A735"/>
<path d="M7.28082 14.1328L9.44285 7.784H11.2016L13.3637 14.1328H11.9738L11.5706 12.8888H9.08251L8.6707 14.1328H7.28082ZM9.45143 11.7391H11.2016L10.3265 9.08808L9.45143 11.7391ZM14.8098 8.96797C14.581 8.96797 14.3951 8.89647 14.2521 8.75348C14.1091 8.60477 14.0376 8.43032 14.0376 8.23013C14.0376 8.01851 14.1091 7.8412 14.2521 7.69821C14.3951 7.5495 14.581 7.47514 14.8098 7.47514C15.0271 7.47514 15.2102 7.5495 15.3589 7.69821C15.5076 7.8412 15.5819 8.01851 15.5819 8.23013C15.5819 8.43032 15.5076 8.60477 15.3589 8.75348C15.2102 8.89647 15.0271 8.96797 14.8098 8.96797ZM14.1577 14.1328V9.58569H15.4618V14.1328H14.1577Z" fill="#F0BF49"/>
</svg>
