<svg width="72" height="68" viewBox="0 0 72 68" fill="none" xmlns="http://www.w3.org/2000/svg">
<path d="M53.6383 9.375H12.7873C5.72512 9.375 0 15.1001 0 22.1623V65.1508C0 67.3365 2.71931 68.3426 4.14188 66.6831L12.8565 56.5159H53.6383C60.7005 56.5159 66.4256 50.7908 66.4256 43.7286V22.1623C66.4256 15.1001 60.7005 9.375 53.6383 9.375Z" fill="url(#paint0_linear_11277_41110)"/>
<path d="M54.6375 24.3736H13.9251C12.15 24.3736 10.7109 22.9345 10.7109 21.1594C10.7109 19.3844 12.15 17.9453 13.9251 17.9453H54.6375C56.4126 17.9453 57.8516 19.3844 57.8516 21.1594C57.8516 22.9347 56.4128 24.3736 54.6375 24.3736Z" fill="url(#paint1_linear_11277_41110)"/>
<path d="M54.6375 37.2329H13.9251C12.15 37.2329 10.7109 35.7939 10.7109 34.0188C10.7109 32.2437 12.15 30.8047 13.9251 30.8047H54.6375C56.4126 30.8047 57.8516 32.2437 57.8516 34.0188C57.8516 35.7939 56.4128 37.2329 54.6375 37.2329Z" fill="url(#paint2_linear_11277_41110)"/>
<path d="M31.0671 50.0923H13.9251C12.15 50.0923 10.7109 48.6532 10.7109 46.8782C10.7109 45.1031 12.15 43.6641 13.9251 43.6641H31.0671C32.8421 43.6641 34.2812 45.1031 34.2812 46.8782C34.2812 48.6532 32.8421 50.0923 31.0671 50.0923Z" fill="url(#paint3_linear_11277_41110)"/>
<path d="M52.5 37.5C62.8553 37.5 71.25 29.1053 71.25 18.75C71.25 8.39466 62.8553 0 52.5 0C42.1447 0 33.75 8.39466 33.75 18.75C33.75 29.1053 42.1447 37.5 52.5 37.5Z" fill="url(#paint4_linear_11277_41110)"/>
<path d="M63.2971 15.7989C63.1726 15.4276 62.8514 15.1569 62.4638 15.0976L56.5167 14.1899L53.8477 8.50644C53.6753 8.14025 53.3071 7.90625 52.9023 7.90625C52.4973 7.90625 52.1292 8.14025 51.9567 8.50644L49.2877 14.1899L43.3405 15.0976C42.953 15.1567 42.6316 15.4276 42.5073 15.7989C42.3828 16.1701 42.4767 16.5796 42.7501 16.8601L47.0847 21.2988L46.0587 27.5795C45.9944 27.9742 46.1617 28.3709 46.4881 28.6014C46.8155 28.8318 47.2469 28.8553 47.5947 28.6616L52.9025 25.7304L58.2102 28.6616C58.3683 28.7493 58.5417 28.7921 58.7152 28.7921C58.9263 28.7921 59.1374 28.7278 59.3168 28.6014C59.6433 28.3709 59.8105 27.9742 59.7462 27.5795L58.7202 21.2988L63.0548 16.8601C63.3277 16.5796 63.4216 16.1701 63.2971 15.7989Z" fill="#FFF9E9"/>
<defs>
<linearGradient id="paint0_linear_11277_41110" x1="38.1469" y1="25.3061" x2="12.1275" y2="65.5961" gradientUnits="userSpaceOnUse">
<stop offset="0.0009" stop-color="#009DFF"/>
<stop offset="0.3554" stop-color="#217FFF"/>
<stop offset="0.7721" stop-color="#4261FF"/>
<stop offset="1" stop-color="#4F56FF"/>
</linearGradient>
<linearGradient id="paint1_linear_11277_41110" x1="10.7109" y1="21.1598" x2="57.8522" y2="21.1598" gradientUnits="userSpaceOnUse">
<stop stop-color="#C2CFFD"/>
<stop offset="1" stop-color="white"/>
</linearGradient>
<linearGradient id="paint2_linear_11277_41110" x1="10.7109" y1="34.0194" x2="57.8522" y2="34.0194" gradientUnits="userSpaceOnUse">
<stop stop-color="#C2CFFD"/>
<stop offset="1" stop-color="white"/>
</linearGradient>
<linearGradient id="paint3_linear_11277_41110" x1="10.7107" y1="46.8791" x2="34.2814" y2="46.8791" gradientUnits="userSpaceOnUse">
<stop stop-color="#C2CFFD"/>
<stop offset="1" stop-color="white"/>
</linearGradient>
<linearGradient id="paint4_linear_11277_41110" x1="52.5" y1="0.045" x2="52.5" y2="35.4394" gradientUnits="userSpaceOnUse">
<stop stop-color="#FFE878"/>
<stop offset="1" stop-color="#FEAD00"/>
</linearGradient>
</defs>
</svg>
