<svg width="20" height="20" viewBox="0 0 20 20" fill="none" xmlns="http://www.w3.org/2000/svg">
<path d="M17.845 1.2552H16.2344V0.585938C16.2344 0.262344 15.972 0 15.6484 0C15.3248 0 15.0625 0.262344 15.0625 0.585938V1.2552H12.4688V0.585938C12.4688 0.262344 12.2064 0 11.8828 0C11.5592 0 11.2969 0.262344 11.2969 0.585938V1.2552H8.70312V0.585938C8.70312 0.262344 8.44078 0 8.11719 0C7.79359 0 7.53125 0.262344 7.53125 0.585938V1.2552H4.9375V0.585938C4.9375 0.262344 4.67516 0 4.35156 0C4.02797 0 3.76562 0.262344 3.76562 0.585938V1.2552H2.15492C0.966719 1.2552 0 2.22188 0 3.41016V17.845C0 19.0333 0.966719 20 2.15492 20H17.845C19.0332 20 20 19.0333 20 17.845V3.41016C20 2.22188 19.0332 1.2552 17.845 1.2552ZM2.15492 2.42707H3.76562V3.09637C3.76562 3.41996 4.02797 3.6823 4.35156 3.6823C4.67516 3.6823 4.9375 3.41996 4.9375 3.09637V2.42707H7.53117V3.09637C7.53117 3.41996 7.79352 3.6823 8.11711 3.6823C8.4407 3.6823 8.70305 3.41996 8.70305 3.09637V2.42707H11.2968V3.09637C11.2968 3.41996 11.5591 3.6823 11.8827 3.6823C12.2063 3.6823 12.4687 3.41996 12.4687 3.09637V2.42707H15.0624V3.09637C15.0624 3.41996 15.3248 3.6823 15.6484 3.6823C15.972 3.6823 16.2343 3.41996 16.2343 3.09637V2.42707H17.8449C18.3871 2.42707 18.8281 2.86809 18.8281 3.41016V5.02082H1.17188V3.41016C1.17188 2.86809 1.61289 2.42707 2.15492 2.42707ZM17.845 18.8281H2.15492C1.61289 18.8281 1.17188 18.3871 1.17188 17.845V6.1927H18.8281V17.845C18.8281 18.3871 18.3871 18.8281 17.845 18.8281Z" fill="white"/>
<path d="M5.92449 8.15625H3.41406C3.09047 8.15625 2.82812 8.41859 2.82812 8.74219V11.2526C2.82812 11.5762 3.09047 11.8385 3.41406 11.8385H5.92453C6.24812 11.8385 6.51047 11.5762 6.51047 11.2526V8.74219C6.51043 8.41859 6.24812 8.15625 5.92449 8.15625ZM5.33855 10.6666H3.99996V9.32812H5.33855V10.6666Z" fill="white"/>
<path d="M16.5885 8.15625H14.0781C13.7545 8.15625 13.4922 8.41859 13.4922 8.74219V11.2526C13.4922 11.5762 13.7545 11.8385 14.0781 11.8385H16.5885C16.9121 11.8385 17.1745 11.5762 17.1745 11.2526V8.74219C17.1745 8.41859 16.9121 8.15625 16.5885 8.15625ZM16.0026 10.6666H14.6641V9.32812H16.0026V10.6666Z" fill="white"/>
<path d="M5.92449 13.1797H3.41406C3.09047 13.1797 2.82812 13.442 2.82812 13.7656V16.276C2.82812 16.5996 3.09047 16.862 3.41406 16.862H5.92453C6.24812 16.862 6.51047 16.5996 6.51047 16.276V13.7656C6.51043 13.442 6.24812 13.1797 5.92449 13.1797ZM5.33855 15.6901H3.99996V14.3516H5.33855V15.6901Z" fill="white"/>
<path d="M16.5885 13.1797H14.0781C13.7545 13.1797 13.4922 13.442 13.4922 13.7656V16.276C13.4922 16.5996 13.7545 16.862 14.0781 16.862H16.5885C16.9121 16.862 17.1745 16.5996 17.1745 16.276V13.7656C17.1745 13.442 16.9121 13.1797 16.5885 13.1797ZM16.0026 15.6901H14.6641V14.3516H16.0026V15.6901Z" fill="white"/>
<path d="M11.2527 13.1797H8.74219C8.41859 13.1797 8.15625 13.442 8.15625 13.7656V16.276C8.15625 16.5996 8.41859 16.862 8.74219 16.862H11.2527C11.5762 16.862 11.8386 16.5996 11.8386 16.276V13.7656C11.8386 13.442 11.5762 13.1797 11.2527 13.1797ZM10.6667 15.6901H9.32812V14.3516H10.6667V15.6901Z" fill="white"/>
<path d="M10.9202 8.70287L9.55947 10.0637L9.08619 9.59037C8.8574 9.36154 8.48639 9.36154 8.25756 9.59037C8.02873 9.8192 8.02873 10.1902 8.25756 10.419L9.14518 11.3066C9.25506 11.4165 9.40408 11.4783 9.55947 11.4783C9.7149 11.4783 9.86393 11.4165 9.97381 11.3066L11.7488 9.5315C11.9776 9.30268 11.9776 8.9317 11.7488 8.70287C11.52 8.47404 11.149 8.47404 10.9202 8.70287Z" fill="white"/>
</svg>
