<svg width="24" height="24" viewBox="0 0 24 24" fill="none" xmlns="http://www.w3.org/2000/svg">
<path d="M20.8281 11.5829V9.22493C20.8281 8.06649 19.9064 7.11981 18.7578 7.07849V5.63118C18.7578 4.87731 18.1445 4.26399 17.3906 4.26399H13.6266L13.1406 2.91294C13.0166 2.56841 12.7658 2.2931 12.4342 2.13774C12.1027 1.98235 11.7305 1.96579 11.3865 2.09102L4.55625 4.577C4.21258 4.70208 3.9384 4.9536 3.78418 5.28524C3.62996 5.61688 3.6143 5.98864 3.74012 6.33208L4.01453 7.0811C2.89207 7.15052 2 8.08528 2 9.22493V19.8499C2 21.0346 2.96379 21.9984 4.14844 21.9984H18.6797C19.8643 21.9984 20.8281 21.0346 20.8281 19.8499V17.4139C21.4898 17.3188 22 16.7484 22 16.0609V12.9359C22 12.2483 21.4898 11.6779 20.8281 11.5829ZM20.8281 16.0609C20.8281 16.1686 20.7405 16.2562 20.6328 16.2562H17.5078C16.5386 16.2562 15.75 15.4676 15.75 14.4984C15.75 13.5291 16.5386 12.7406 17.5078 12.7406H20.6328C20.7405 12.7406 20.8281 12.8282 20.8281 12.9359V16.0609ZM4.84047 5.92895C4.81621 5.86274 4.83398 5.80684 4.84676 5.77938C4.85953 5.75196 4.89082 5.70231 4.95707 5.67821L11.7873 3.19224C11.8536 3.16813 11.9095 3.18606 11.937 3.19892C11.9645 3.21177 12.014 3.24325 12.0379 3.30966L12.3813 4.26403H12.1172C11.3633 4.26403 10.75 4.87735 10.75 5.63122V7.07653H5.2609L4.84047 5.92895ZM17.5859 5.63118V7.07649H11.9219V5.63118C11.9219 5.52349 12.0095 5.43587 12.1172 5.43587H17.3906C17.4983 5.43587 17.5859 5.52349 17.5859 5.63118ZM18.6797 20.8265H4.14844C3.60996 20.8265 3.17188 20.3884 3.17188 19.8499V9.22493C3.17188 8.68645 3.60996 8.24837 4.14844 8.24837H18.6797C19.2182 8.24837 19.6562 8.68645 19.6562 9.22493V11.5687H17.5078C15.8924 11.5687 14.5781 12.8829 14.5781 14.4984C14.5781 16.1138 15.8924 17.4281 17.5078 17.4281H19.6562V19.8499C19.6562 20.3884 19.2182 20.8265 18.6797 20.8265Z" fill="#484848"/>
<path d="M17.5078 15.0781C17.8314 15.0781 18.0938 14.8158 18.0938 14.4922C18.0938 14.1686 17.8314 13.9062 17.5078 13.9062C17.1842 13.9062 16.9219 14.1686 16.9219 14.4922C16.9219 14.8158 17.1842 15.0781 17.5078 15.0781Z" fill="#484848"/>
</svg>
