<svg width="138" height="30" viewBox="0 0 138 30" fill="none" xmlns="http://www.w3.org/2000/svg">
<path d="M32.3162 26.2973C31.2065 26.2973 30.285 26.0595 29.5518 25.5838C28.8384 25.1082 28.3033 24.4741 27.9466 23.6814C27.5899 22.8689 27.4116 21.9574 27.4116 20.9467V10.2456H31.9001V20.055C31.9001 20.808 32.0982 21.4223 32.4946 21.8979C32.8909 22.3537 33.4755 22.5816 34.2484 22.5816C34.9023 22.5816 35.4176 22.4231 35.7941 22.106C36.1904 21.7889 36.4778 21.3827 36.6561 20.8873C36.8345 20.3918 36.9236 19.8667 36.9236 19.3118V10.2456H41.4419V26H36.9236V23.7706H36.7453C36.4084 24.3849 35.8832 24.9596 35.1698 25.4947C34.4763 26.0297 33.525 26.2973 32.3162 26.2973ZM46.1055 8.10542C45.3128 8.10542 44.6687 7.85771 44.1733 7.36229C43.6779 6.84706 43.4302 6.24264 43.4302 5.54906C43.4302 4.81583 43.6779 4.20151 44.1733 3.70609C44.6687 3.19086 45.3128 2.93324 46.1055 2.93324C46.8585 2.93324 47.4926 3.19086 48.0079 3.70609C48.5231 4.20151 48.7807 4.81583 48.7807 5.54906C48.7807 6.24264 48.5231 6.84706 48.0079 7.36229C47.4926 7.85771 46.8585 8.10542 46.1055 8.10542ZM43.8464 26V10.2456H48.3646V26H43.8464ZM58.7654 26.2973C57.3782 26.2973 56.1694 26.0694 55.1389 25.6136C54.1084 25.138 53.2563 24.5137 52.5825 23.7409C51.9088 22.968 51.4034 22.0961 51.0666 21.1251C50.7297 20.1342 50.5612 19.1335 50.5612 18.1228C50.5612 17.1122 50.7297 16.1213 51.0666 15.1503C51.4034 14.1793 51.9088 13.3073 52.5825 12.5345C53.2563 11.7418 54.1084 11.1176 55.1389 10.6618C56.1694 10.1862 57.3782 9.94839 58.7654 9.94839C60.1724 9.94839 61.3317 10.1565 62.2432 10.5726C63.1548 10.969 63.8781 11.4743 64.4132 12.0886C64.968 12.6831 65.3743 13.2875 65.6319 13.9018C65.8895 14.4963 66.0481 15.0017 66.1075 15.4178C66.1868 15.8142 66.2264 16.0123 66.2264 16.0123H62.0054C62.0054 16.0123 61.9658 15.8934 61.8865 15.6556C61.8271 15.398 61.6884 15.1107 61.4704 14.7936C61.2722 14.4567 60.9651 14.1694 60.5489 13.9316C60.1327 13.6739 59.5779 13.5451 58.8843 13.5451C58.0322 13.5451 57.3188 13.7631 56.7441 14.1991C56.1892 14.6152 55.773 15.1701 55.4956 15.8637C55.2182 16.5573 55.0795 17.3103 55.0795 18.1228C55.0795 18.9353 55.2182 19.6883 55.4956 20.3819C55.773 21.0755 56.1892 21.6403 56.7441 22.0763C57.3188 22.4924 58.0322 22.7005 58.8843 22.7005C59.5779 22.7005 60.1327 22.5816 60.5489 22.3438C60.9651 22.0862 61.2722 21.7988 61.4704 21.4818C61.6884 21.1449 61.8271 20.8575 61.8865 20.6197C61.9658 20.3621 62.0054 20.2333 62.0054 20.2333H66.2264C66.2264 20.2333 66.1868 20.4414 66.1075 20.8575C66.0481 21.2539 65.8895 21.7592 65.6319 22.3735C65.3743 22.968 64.968 23.5724 64.4132 24.1868C63.8781 24.7813 63.1548 25.2866 62.2432 25.7027C61.3317 26.0991 60.1724 26.2973 58.7654 26.2973ZM68.3044 26V3.40884H72.8226V16.4285L78.0245 10.2456H83.167L76.9842 17.4391L83.4345 26H78.1137L72.8226 18.9254V26H68.3044ZM84.6423 26V4.00335H89.22V12.7723H97.7809V4.00335H102.359V26H97.7809V16.7555H89.22V26H84.6423ZM107.335 8.10542C106.543 8.10542 105.898 7.85771 105.403 7.36229C104.908 6.84706 104.66 6.24264 104.66 5.54906C104.66 4.81583 104.908 4.20151 105.403 3.70609C105.898 3.19086 106.543 2.93324 107.335 2.93324C108.088 2.93324 108.722 3.19086 109.238 3.70609C109.753 4.20151 110.01 4.81583 110.01 5.54906C110.01 6.24264 109.753 6.84706 109.238 7.36229C108.722 7.85771 108.088 8.10542 107.335 8.10542ZM105.076 26V10.2456H109.594V26H105.076ZM111.999 26V10.2456H116.488V12.5345H116.636C116.815 12.1183 117.062 11.7121 117.379 11.3157C117.696 10.9194 118.132 10.5924 118.687 10.3348C119.242 10.0772 119.956 9.94839 120.827 9.94839C121.263 9.94839 121.61 9.97811 121.868 10.0376C122.125 10.0772 122.254 10.097 122.254 10.097V14.5558C122.254 14.5558 122.106 14.5261 121.808 14.4666C121.531 14.4072 121.164 14.3774 120.709 14.3774C119.302 14.3774 118.251 14.7639 117.558 15.5367C116.864 16.2898 116.517 17.5283 116.517 19.2524V26H111.999ZM130.466 26.2973C129.079 26.2973 127.88 26.0694 126.869 25.6136C125.858 25.138 125.026 24.5137 124.372 23.7409C123.718 22.9482 123.223 22.0664 122.886 21.0953C122.569 20.1243 122.41 19.1236 122.41 18.0931C122.41 17.1023 122.559 16.1312 122.856 15.18C123.173 14.209 123.649 13.3272 124.283 12.5345C124.937 11.7418 125.759 11.1176 126.75 10.6618C127.761 10.1862 128.95 9.94839 130.317 9.94839C131.764 9.94839 133.042 10.2655 134.152 10.8996C135.281 11.5337 136.163 12.475 136.797 13.7235C137.431 14.9521 137.749 16.4483 137.749 18.212V19.3118H126.958C127.018 20.263 127.345 21.0854 127.939 21.779C128.554 22.4726 129.396 22.8194 130.466 22.8194C131.08 22.8194 131.576 22.7302 131.952 22.5519C132.348 22.3537 132.656 22.1357 132.874 21.8979C133.092 21.6403 133.24 21.4124 133.319 21.2142C133.399 21.0161 133.438 20.917 133.438 20.917H137.6C137.6 20.917 137.55 21.1052 137.451 21.4818C137.372 21.8385 137.194 22.2843 136.916 22.8194C136.639 23.3545 136.233 23.8895 135.697 24.4246C135.182 24.9596 134.499 25.4055 133.646 25.7622C132.794 26.1189 131.734 26.2973 130.466 26.2973ZM126.958 16.5771H133.409C133.349 15.4872 133.022 14.6747 132.428 14.1396C131.833 13.6046 131.1 13.3371 130.228 13.3371C129.356 13.3371 128.613 13.6244 127.999 14.1991C127.384 14.754 127.038 15.5466 126.958 16.5771Z" fill="#45A735"/>
<path d="M21.8775 23.8374C22.7116 22.7536 23.3609 21.5544 23.8254 20.2396C24.2898 18.9249 24.5209 17.5523 24.5186 16.1266C24.5139 13.8899 23.9617 11.8265 22.8664 9.93635C22.8017 9.82313 22.7347 9.71222 22.6654 9.60131C22.365 10.9993 21.1219 12.0483 19.6361 12.0483C19.5206 12.0483 19.4074 12.0414 19.2964 12.0298C20.022 13.2938 20.3871 14.6617 20.3894 16.1336C20.3917 17.8042 19.9296 19.3408 18.9984 20.7457L17.3836 18.7474L14.2517 21.5145L15.8697 23.4792C14.7398 24.0707 13.5498 24.3688 12.2951 24.3711C10.8209 24.3734 9.45529 24.0083 8.2006 23.2735C6.94591 22.5388 5.95463 21.5452 5.22677 20.2928C4.49891 19.0404 4.13382 17.6656 4.13151 16.1659C4.1292 14.6663 4.48735 13.2891 5.21059 12.0344C5.93383 10.7798 6.92049 9.78154 8.17287 9.04213C9.42525 8.30271 10.7886 7.9307 12.2628 7.92838C13.737 7.92607 15.0956 8.29116 16.3388 9.02595C16.4081 9.06755 16.4774 9.10913 16.5467 9.15304C16.5421 9.08603 16.5398 9.01902 16.5398 8.9497C16.5398 7.42004 17.6536 6.14686 19.1139 5.8973C18.8805 5.74018 18.6425 5.58999 18.3976 5.44441C16.5144 4.34222 14.4671 3.79228 12.2558 3.7969C10.0445 3.80153 7.99957 4.3584 6.121 5.46752C4.24242 6.57664 2.75204 8.07858 1.64985 9.97333C0.545347 11.875 -0.00459246 13.9384 2.88834e-05 16.1752C0.00465022 18.4119 0.561522 20.4753 1.67064 22.3655C2.77977 24.2556 4.27708 25.7529 6.15797 26.8551C8.04116 27.9573 10.0884 28.5072 12.2997 28.5026C14.6335 28.498 16.7963 27.8672 18.7835 26.6102L20.3709 28.2669L26.0482 28.2554L21.8728 23.8397L21.8775 23.8374Z" fill="#45A735"/>
<path d="M7.28082 17.9297L9.44285 11.5809H11.2016L13.3637 17.9297H11.9738L11.5706 16.6857H9.08251L8.6707 17.9297H7.28082ZM9.45143 15.536H11.2016L10.3265 12.885L9.45143 15.536ZM14.8098 12.7648C14.581 12.7648 14.3951 12.6933 14.2521 12.5504C14.1091 12.4016 14.0376 12.2272 14.0376 12.027C14.0376 11.8154 14.1091 11.6381 14.2521 11.4951C14.3951 11.3464 14.581 11.272 14.8098 11.272C15.0271 11.272 15.2102 11.3464 15.3589 11.4951C15.5076 11.6381 15.5819 11.8154 15.5819 12.027C15.5819 12.2272 15.5076 12.4016 15.3589 12.5504C15.2102 12.6933 15.0271 12.7648 14.8098 12.7648ZM14.1577 17.9297V13.3826H15.4618V17.9297H14.1577Z" fill="#F0BF49"/>
</svg>
