<svg width="24" height="24" viewBox="0 0 24 24" fill="none" xmlns="http://www.w3.org/2000/svg">
<path fill-rule="evenodd" clip-rule="evenodd" d="M3.14844 11.5679C3.14844 12.1202 3.59616 12.5679 4.14844 12.5679C4.68512 12.5518 5.11332 12.1148 5.11844 11.5779C5.15934 9.25993 6.53203 7.17289 8.64428 6.21725C10.7565 5.2616 13.2303 5.60837 14.9984 7.10795H14.6784C14.1261 7.10795 13.6784 7.55566 13.6784 8.10795C13.6784 8.66023 14.1261 9.10795 14.6784 9.10795H17.5084C18.0607 9.10795 18.5084 8.66023 18.5084 8.10795V5.27795C18.5084 4.72566 18.0607 4.27795 17.5084 4.27795C16.9561 4.27795 16.5084 4.72566 16.5084 5.27795V5.71795C14.1736 3.61034 10.8204 3.06651 7.9391 4.32815C5.05782 5.58979 3.18322 8.42274 3.14844 11.5679ZM17.8384 12.2779C17.8384 11.7256 18.2861 11.2779 18.8384 11.2779C19.3829 11.2833 19.823 11.7234 19.8284 12.2679C19.8618 14.4199 19.0169 16.4926 17.4884 18.0079C14.4756 21.0056 9.64472 21.1241 6.48844 18.2779V18.7179C6.48844 19.2702 6.04073 19.7179 5.48844 19.7179C4.93616 19.7179 4.48844 19.2702 4.48844 18.7179V15.8879C4.48844 15.3356 4.93616 14.8879 5.48844 14.8879H8.34844C8.90073 14.8879 9.34844 15.3356 9.34844 15.8879C9.34844 16.4402 8.90073 16.8879 8.34844 16.8879H7.99844C9.78707 18.3777 12.276 18.6985 14.3839 17.711C16.4918 16.7234 17.8383 14.6057 17.8384 12.2779Z" fill="#45A735"/>
</svg>
