<svg width="38" height="38" viewBox="0 0 38 38" fill="none" xmlns="http://www.w3.org/2000/svg">
<path d="M35.625 24.3438C35.4139 24.0086 35.1345 23.7218 34.8051 23.5018C34.4757 23.2819 34.1036 23.1338 33.7132 23.0672C33.408 23.0228 33.098 23.0228 32.7929 23.0672C32.6361 22.2797 32.1942 21.5778 31.5519 21.0959C31.2418 20.8487 30.884 20.6683 30.5008 20.5661C30.1176 20.4639 29.7174 20.4422 29.3254 20.5022C27.7163 20.7575 26.5941 22.3309 26.4754 22.5031C25.376 23.8264 23.958 24.848 22.3547 25.4719C21.4274 25.3893 20.5204 25.1525 19.671 24.7713L20.7813 23.3463L20.8169 23.2928C21.1782 22.7108 21.4054 22.0557 21.4819 21.375H22.5625C23.5622 21.3753 24.5284 21.0152 25.2841 20.3609C26.0398 19.7066 26.5344 18.8019 26.6772 17.8125H27.9063C28.2212 17.8125 28.5233 17.6874 28.746 17.4647C28.9687 17.242 29.0938 16.9399 29.0938 16.625C29.0938 16.3101 28.9687 16.008 28.746 15.7853C28.5233 15.5626 28.2212 15.4375 27.9063 15.4375H26.7188V14.25H27.9063C28.2212 14.25 28.5233 14.1249 28.746 13.9022C28.9687 13.6795 29.0938 13.3774 29.0938 13.0625C29.0938 12.7476 28.9687 12.4455 28.746 12.2228C28.5233 12.0001 28.2212 11.875 27.9063 11.875H26.7188V10.6875H27.9063C28.2212 10.6875 28.5233 10.5624 28.746 10.3397C28.9687 10.117 29.0938 9.81494 29.0938 9.5C29.0938 9.18506 28.9687 8.88301 28.746 8.66031C28.5233 8.43761 28.2212 8.3125 27.9063 8.3125H26.6713C26.5424 7.42606 26.1306 6.60499 25.4972 5.97159C24.8638 5.3382 24.0427 4.92638 23.1563 4.7975V3.5625C23.1563 3.24756 23.0312 2.94551 22.8085 2.72281C22.5858 2.50011 22.2837 2.375 21.9688 2.375C21.6539 2.375 21.3518 2.50011 21.1291 2.72281C20.9064 2.94551 20.7813 3.24756 20.7813 3.5625V4.75H19.5938V3.5625C19.5938 3.24756 19.4687 2.94551 19.246 2.72281C19.0233 2.50011 18.7212 2.375 18.4063 2.375C18.0914 2.375 17.7893 2.50011 17.5666 2.72281C17.3439 2.94551 17.2188 3.24756 17.2188 3.5625V4.75H16.0313V3.5625C16.0313 3.24756 15.9062 2.94551 15.6835 2.72281C15.4608 2.50011 15.1587 2.375 14.8438 2.375C14.5289 2.375 14.2268 2.50011 14.0041 2.72281C13.7814 2.94551 13.6563 3.24756 13.6563 3.5625V4.7975C12.7699 4.92638 11.9488 5.3382 11.3154 5.97159C10.682 6.60499 10.2702 7.42606 10.1413 8.3125H8.9063C8.59135 8.3125 8.28931 8.43761 8.06661 8.66031C7.84391 8.88301 7.7188 9.18506 7.7188 9.5C7.7188 9.81494 7.84391 10.117 8.06661 10.3397C8.28931 10.5624 8.59135 10.6875 8.9063 10.6875H10.0938V11.875H8.9063C8.59135 11.875 8.28931 12.0001 8.06661 12.2228C7.84391 12.4455 7.7188 12.7476 7.7188 13.0625C7.7188 13.3774 7.84391 13.6795 8.06661 13.9022C8.28931 14.1249 8.59135 14.25 8.9063 14.25H10.0938V15.4375H8.9063C8.59135 15.4375 8.28931 15.5626 8.06661 15.7853C7.84391 16.008 7.7188 16.3101 7.7188 16.625C7.7188 16.9399 7.84391 17.242 8.06661 17.4647C8.28931 17.6874 8.59135 17.8125 8.9063 17.8125H10.1413C10.2664 18.6736 10.6585 19.4737 11.2625 20.1001C11.8665 20.7265 12.6519 21.1475 13.5079 21.3038L12.4272 22.3844C11.9098 22.9039 11.2887 23.3085 10.6044 23.5719C10.4327 22.7927 10.0001 22.0954 9.37815 21.5956C8.75625 21.0957 7.98233 20.823 7.18442 20.8228H5.28442C4.82288 20.8228 4.36589 20.914 3.93971 21.0912C3.51352 21.2683 3.12655 21.528 2.80102 21.8551C2.47549 22.1823 2.21782 22.5706 2.04282 22.9977C1.86783 23.4248 1.77895 23.8822 1.7813 24.3438V32.1931C1.78287 33.1217 2.15245 34.0119 2.80907 34.6685C3.46569 35.3251 4.35582 35.6947 5.28442 35.6963H7.18442C7.8491 35.6947 8.49961 35.504 9.05998 35.1465C9.62035 34.7891 10.0675 34.2796 10.3491 33.6775C12.5153 34.3719 14.7778 34.7186 17.0525 34.7047C20.1558 34.673 23.235 34.1562 26.1785 33.1728C28.9482 32.2916 31.6032 31.0837 34.0872 29.5747C35.0852 28.9472 35.8183 27.9754 36.1475 26.8434C36.2371 26.4132 36.2369 25.9692 36.147 25.5391C36.0571 25.109 35.8794 24.7021 35.625 24.3438ZM28.4288 23.8331C28.7333 23.3781 29.1739 23.031 29.6875 22.8416C29.7604 22.8305 29.8347 22.8366 29.9048 22.8593C29.9749 22.882 30.0387 22.9206 30.0913 22.9722C30.2565 23.0819 30.3795 23.2445 30.4399 23.4334C30.5003 23.6222 30.4947 23.826 30.4238 24.0112L30.3644 24.0528C29.3369 24.7055 28.191 25.1493 26.9919 25.3591C27.53 24.9099 28.0142 24.3998 28.4347 23.8391L28.4288 23.8331ZM12.4688 17.2188V8.90625C12.4688 8.43383 12.6565 7.98076 12.9905 7.64672C13.3246 7.31267 13.7776 7.125 14.25 7.125H22.5625C23.035 7.125 23.488 7.31267 23.8221 7.64672C24.1561 7.98076 24.3438 8.43383 24.3438 8.90625V17.2188C24.3438 17.6912 24.1561 18.1442 23.8221 18.4783C23.488 18.8123 23.035 19 22.5625 19H20.7813C20.7279 18.9406 20.6804 18.8813 20.621 18.8219C20.3113 18.484 19.9311 18.2184 19.5073 18.044C19.0835 17.8696 18.6266 17.7905 18.1688 17.8125C17.2646 17.9251 16.4264 18.3442 15.7938 19H14.25C13.7776 19 13.3246 18.8123 12.9905 18.4783C12.6565 18.1442 12.4688 17.6912 12.4688 17.2188ZM8.31255 32.1931C8.31099 32.4918 8.19163 32.7779 7.9804 32.9891C7.76918 33.2003 7.48314 33.3197 7.18442 33.3212H5.28442C4.9857 33.3197 4.69967 33.2003 4.48844 32.9891C4.27721 32.7779 4.15786 32.4918 4.1563 32.1931V24.3438C4.15786 24.0456 4.27741 23.7602 4.48881 23.5499C4.7002 23.3396 4.98625 23.2216 5.28442 23.2216H7.18442C7.48259 23.2216 7.76864 23.3396 7.98003 23.5499C8.19143 23.7602 8.31098 24.0456 8.31255 24.3438V32.1931ZM33.8438 26.3388C33.6493 26.8502 33.2927 27.284 32.8285 27.5737C32.7157 27.645 21.1375 34.9778 10.7054 31.2787V26.0597C12.0078 25.7234 13.1916 25.0329 14.1254 24.0647L17.0941 21.0959L17.201 20.9772C17.48 20.5919 17.8822 20.3133 18.341 20.1875C18.4182 20.1875 18.626 20.1875 18.9347 20.5022C19.3741 20.9416 18.8754 21.8263 18.7982 21.9569L17.0466 24.2962C16.9016 24.4902 16.8194 24.7237 16.8109 24.9657C16.8024 25.2076 16.8681 25.4464 16.9991 25.65C17.2485 26.0419 18.7804 27.9775 24.5279 27.9775C29.0285 27.9775 31.6529 26.0359 31.7657 25.9588C32.2042 25.6165 32.7414 25.4249 33.2976 25.4125C33.3688 25.4268 33.4358 25.4572 33.4935 25.5015C33.5511 25.5458 33.5979 25.6027 33.63 25.6678C33.7137 25.7565 33.7763 25.8628 33.8133 25.979C33.8503 26.0951 33.8607 26.218 33.8438 26.3388Z" fill="white"/>
<path d="M15.2478 15.1873H16.085C16.1311 15.189 16.1766 15.1769 16.2157 15.1526C16.2548 15.1282 16.2858 15.0928 16.3047 15.0507L16.5363 14.4214H18.2225L18.4541 15.0507C18.4712 15.0928 18.501 15.1285 18.5392 15.153C18.5775 15.1774 18.6224 15.1894 18.6678 15.1873H19.505C19.5229 15.1876 19.5406 15.184 19.557 15.1769C19.5734 15.1697 19.5881 15.1591 19.6 15.1457C19.6132 15.135 19.6238 15.1214 19.631 15.106C19.6382 15.0906 19.6418 15.0737 19.6416 15.0567C19.6456 15.0371 19.6456 15.0169 19.6416 14.9973L18.1453 10.8411C18.1292 10.7852 18.0945 10.7366 18.047 10.7031C17.9995 10.6696 17.9421 10.6534 17.8841 10.657H16.8747C16.8172 10.6525 16.76 10.6685 16.7133 10.7022C16.6665 10.7359 16.6333 10.7851 16.6194 10.8411L15.1172 14.9973C15.1172 14.9973 15.1172 14.9973 15.1172 15.0567C15.1195 15.0905 15.1343 15.1222 15.1588 15.1457C15.17 15.1583 15.1837 15.1685 15.199 15.1757C15.2143 15.1828 15.2309 15.1868 15.2478 15.1873ZM17.3794 11.8207L17.9731 13.4595H16.8034L17.3794 11.8207Z" fill="white"/>
<path d="M20.2854 15.1878H21.2057C21.2278 15.1897 21.2501 15.1864 21.2707 15.1781C21.2913 15.1699 21.3097 15.157 21.3244 15.1403C21.3389 15.1255 21.35 15.1077 21.3572 15.0883C21.3643 15.0689 21.3673 15.0482 21.366 15.0275V10.8713C21.3673 10.8506 21.3643 10.8299 21.3572 10.8105C21.35 10.791 21.3389 10.7733 21.3244 10.7585C21.3088 10.7431 21.2902 10.731 21.2698 10.7228C21.2494 10.7147 21.2276 10.7106 21.2057 10.711H20.2854C20.2653 10.7112 20.2454 10.7156 20.2271 10.7237C20.2087 10.7319 20.1922 10.7437 20.1785 10.7585C20.1613 10.7717 20.1474 10.7888 20.1381 10.8084C20.1289 10.828 20.1244 10.8496 20.1251 10.8713V15.0275C20.1244 15.0492 20.1289 15.0708 20.1381 15.0904C20.1474 15.11 20.1613 15.1271 20.1785 15.1403C20.1914 15.156 20.2078 15.1685 20.2263 15.1767C20.2449 15.185 20.2651 15.1888 20.2854 15.1878Z" fill="white"/>
</svg>
