<svg width="36" height="36" viewBox="0 0 36 36" fill="none" xmlns="http://www.w3.org/2000/svg">
<path d="M26.625 11.64V6C26.625 2.745 18.84 1.875 14.25 1.875C9.66 1.875 1.875 2.745 1.875 6V24C1.875 27.27 9.54 27.93 12.3 28.065C14.28 31.665 18.105 34.125 22.5 34.125C28.905 34.125 34.125 28.905 34.125 22.5C34.125 17.55 31.005 13.32 26.625 11.64ZM22.5 10.875C18.15 10.875 14.37 13.275 12.375 16.815C7.305 16.59 4.5 15.495 4.125 14.94C4.125 14.94 4.125 14.925 4.125 14.91V8.535C6.765 9.75 11.205 10.14 14.265 10.14C17.325 10.14 21.75 9.75 24.39 8.535V11.055C23.775 10.95 23.16 10.89 22.515 10.89L22.5 10.875ZM24.33 5.955C23.79 6.675 20.145 7.875 14.25 7.875C8.355 7.875 4.65 6.66 4.17 6.045C4.725 5.325 8.37 4.125 14.25 4.125C20.13 4.125 23.85 5.34 24.33 5.955ZM4.125 24V17.55C6.24 18.51 9.405 18.885 11.415 19.02C11.07 20.115 10.875 21.285 10.875 22.5C10.875 23.625 11.04 24.705 11.34 25.74C6.855 25.41 4.38 24.42 4.125 24ZM22.5 31.875C17.325 31.875 13.125 27.675 13.125 22.5C13.125 17.325 17.325 13.125 22.5 13.125C27.675 13.125 31.875 17.325 31.875 22.5C31.875 27.675 27.675 31.875 22.5 31.875ZM20.79 19.545L17.835 22.5L20.79 25.455C21.225 25.89 21.225 26.61 20.79 27.045C20.565 27.27 20.28 27.375 19.995 27.375C19.71 27.375 19.425 27.27 19.2 27.045L15.45 23.295C15.015 22.86 15.015 22.14 15.45 21.705L19.2 17.955C19.635 17.52 20.355 17.52 20.79 17.955C21.225 18.39 21.225 19.11 20.79 19.545ZM29.535 23.295L25.785 27.045C25.56 27.27 25.275 27.375 24.99 27.375C24.705 27.375 24.42 27.27 24.195 27.045C23.76 26.61 23.76 25.89 24.195 25.455L27.15 22.5L24.195 19.545C23.76 19.11 23.76 18.39 24.195 17.955C24.63 17.52 25.35 17.52 25.785 17.955L29.535 21.705C29.97 22.14 29.97 22.86 29.535 23.295Z" fill="#78EB54"/>
</svg>
