<svg width="36" height="36" viewBox="0 0 36 36" fill="none" xmlns="http://www.w3.org/2000/svg">
<path d="M8.25 7.875C8.87132 7.875 9.375 7.37132 9.375 6.75C9.375 6.12868 8.87132 5.625 8.25 5.625C7.62868 5.625 7.125 6.12868 7.125 6.75C7.125 7.37132 7.62868 7.875 8.25 7.875Z" fill="#78EB54"/>
<path d="M12 7.875C12.6213 7.875 13.125 7.37132 13.125 6.75C13.125 6.12868 12.6213 5.625 12 5.625C11.3787 5.625 10.875 6.12868 10.875 6.75C10.875 7.37132 11.3787 7.875 12 7.875Z" fill="#78EB54"/>
<path d="M15.75 7.875C16.3713 7.875 16.875 7.37132 16.875 6.75C16.875 6.12868 16.3713 5.625 15.75 5.625C15.1287 5.625 14.625 6.12868 14.625 6.75C14.625 7.37132 15.1287 7.875 15.75 7.875Z" fill="#78EB54"/>
<path fill-rule="evenodd" clip-rule="evenodd" d="M34.125 13.5C34.125 14.121 33.621 14.625 33 14.625C32.379 14.625 31.875 14.121 31.875 13.5V6.75C31.875 5.301 30.7005 4.125 29.25 4.125H6.75C5.2995 4.125 4.125 5.2995 4.125 6.75V29.25C4.125 30.7005 5.2995 31.875 6.75 31.875H19.5C20.121 31.875 20.625 32.379 20.625 33C20.625 33.621 20.121 34.125 19.5 34.125H6.75C4.0575 34.125 1.875 31.9425 1.875 29.25V6.75C1.875 4.0575 4.0575 1.875 6.75 1.875H29.25C31.9425 1.875 34.125 4.0575 34.125 6.75V13.5Z" fill="#78EB54"/>
<path fill-rule="evenodd" clip-rule="evenodd" d="M26.4029 16.3051C27.0164 14.9911 28.5779 14.4226 29.8919 15.0361L32.6099 16.3036C33.9239 16.9171 34.4924 18.4786 33.8804 19.7926L28.8089 30.6676C28.7144 30.8686 28.5629 31.0381 28.3739 31.1536L23.7524 33.9646C23.4314 34.1596 23.0339 34.1821 22.6934 34.0231C22.3514 33.8641 22.1129 33.5446 22.0559 33.1726L21.2399 27.8266C21.2054 27.6076 21.2384 27.3826 21.3314 27.1816L26.4029 16.3051ZM28.4429 17.2561L23.5154 27.8236L24.0254 31.1656L26.9129 29.4091L31.8404 18.8416C31.9289 18.6541 31.8479 18.4306 31.6589 18.3436L28.9409 17.0746C28.7534 16.9876 28.5299 17.0686 28.4429 17.2561Z" fill="#78EB54"/>
<path fill-rule="evenodd" clip-rule="evenodd" d="M33 9.375C33.621 9.375 34.125 9.879 34.125 10.5C34.125 11.121 33.621 11.625 33 11.625H3C2.379 11.625 1.875 11.121 1.875 10.5C1.875 9.879 2.379 9.375 3 9.375H33Z" fill="#78EB54"/>
<path fill-rule="evenodd" clip-rule="evenodd" d="M25.6815 20.5205C25.1175 20.258 24.8745 19.5875 25.137 19.025C25.3995 18.4625 26.0685 18.218 26.6325 18.4805L32.07 21.017C32.6325 21.2795 32.877 21.9485 32.6145 22.511C32.352 23.075 31.6815 23.318 31.119 23.0555L25.6815 20.5205Z" fill="#78EB54"/>
<path fill-rule="evenodd" clip-rule="evenodd" d="M9 16.875C8.379 16.875 7.875 16.371 7.875 15.75C7.875 15.129 8.379 14.625 9 14.625H19.5C20.121 14.625 20.625 15.129 20.625 15.75C20.625 16.371 20.121 16.875 19.5 16.875H9Z" fill="#78EB54"/>
<path fill-rule="evenodd" clip-rule="evenodd" d="M9 22.875C8.379 22.875 7.875 22.371 7.875 21.75C7.875 21.129 8.379 20.625 9 20.625H19.5C20.121 20.625 20.625 21.129 20.625 21.75C20.625 22.371 20.121 22.875 19.5 22.875H9Z" fill="#78EB54"/>
<path fill-rule="evenodd" clip-rule="evenodd" d="M9 28.875C8.379 28.875 7.875 28.371 7.875 27.75C7.875 27.129 8.379 26.625 9 26.625H16.5C17.121 26.625 17.625 27.129 17.625 27.75C17.625 28.371 17.121 28.875 16.5 28.875H9Z" fill="#78EB54"/>
</svg>
