<svg width="36" height="36" viewBox="0 0 36 36" fill="none" xmlns="http://www.w3.org/2000/svg">
<g clip-path="url(#clip0_11795_799)">
<path d="M34.9453 0H30.7266C30.1441 0 29.6719 0.472219 29.6719 1.05469V2.10938H20.9827C20.5473 0.881859 19.375 0 18 0C16.625 0 15.4527 0.881859 15.0173 2.10938H6.32812V1.05469C6.32812 0.472219 5.85591 0 5.27344 0H1.05469C0.472219 0 0 0.472219 0 1.05469V5.27344C0 5.85591 0.472219 6.32812 1.05469 6.32812H5.27344C5.85591 6.32812 6.32812 5.85591 6.32812 5.27344V4.20469H10.714C6.90898 6.61458 4.59598 10.6857 4.31775 15.0076C3.07533 15.4349 2.17969 16.6144 2.17969 18C2.17969 19.7447 3.59909 21.1641 5.34375 21.1641C7.08841 21.1641 8.50781 19.7447 8.50781 18C8.50781 16.6373 7.64191 15.4731 6.43148 15.0286C6.80597 10.0612 10.3829 5.78292 15.1661 4.56905C15.6846 5.61052 16.7598 6.32812 18 6.32812C19.2402 6.32812 20.3154 5.61052 20.8339 4.56912C25.6172 5.78299 29.194 10.0613 29.5685 15.0287C28.3581 15.4731 27.4922 16.6373 27.4922 18C27.4922 19.7447 28.9116 21.1641 30.6562 21.1641C32.4009 21.1641 33.8203 19.7447 33.8203 18C33.8203 16.6144 32.9247 15.4349 31.6823 15.0076C31.4035 10.6771 29.0836 6.62393 25.286 4.21875H29.6719V5.27344C29.6719 5.85591 30.1441 6.32812 30.7266 6.32812H34.9453C35.5278 6.32812 36 5.85591 36 5.27344V1.05469C36 0.472219 35.5278 0 34.9453 0ZM4.21875 4.21875H2.10938V2.10938H4.21875V4.21875ZM5.34375 19.0547C4.7622 19.0547 4.28906 18.5816 4.28906 18C4.28906 17.4184 4.7622 16.9453 5.34375 16.9453C5.9253 16.9453 6.39844 17.4184 6.39844 18C6.39844 18.5816 5.9253 19.0547 5.34375 19.0547ZM18 4.21875C17.4184 4.21875 16.9453 3.74562 16.9453 3.16406C16.9453 2.58251 17.4184 2.10938 18 2.10938C18.5816 2.10938 19.0547 2.58251 19.0547 3.16406C19.0547 3.74562 18.5816 4.21875 18 4.21875ZM30.6562 16.9453C31.2378 16.9453 31.7109 17.4184 31.7109 18C31.7109 18.5816 31.2378 19.0547 30.6562 19.0547C30.0747 19.0547 29.6016 18.5816 29.6016 18C29.6016 17.4184 30.0747 16.9453 30.6562 16.9453ZM33.8906 4.21875H31.7812V2.10938H33.8906V4.21875Z" fill="#78EB54"/>
<path d="M27.315 21.633L18.8775 8.97677C18.8772 8.97635 18.8769 8.97593 18.8766 8.97544C18.8736 8.97094 18.8703 8.96665 18.8672 8.96222C18.8527 8.94119 18.8374 8.92095 18.8215 8.90119C18.3771 8.34895 17.5308 8.38622 17.1328 8.96222C17.1297 8.96665 17.1264 8.97094 17.1234 8.97544C17.1231 8.97593 17.1228 8.97628 17.1225 8.97677L8.68499 21.633C8.40606 22.0513 8.46126 22.6083 8.81676 22.9638C10.921 25.0681 12.2603 27.8187 12.6252 30.7616C12.4614 30.894 12.3033 31.0357 12.1534 31.1891C11.1627 32.2025 10.6172 33.5362 10.6172 34.9446C10.6172 35.5271 11.0894 35.9993 11.6719 35.9993H24.3281C24.9106 35.9993 25.3828 35.5271 25.3828 34.9446C25.3828 33.5362 24.8373 32.2025 23.8467 31.1891C23.6967 31.0356 23.5386 30.8939 23.3748 30.7615C23.7396 27.8185 25.0789 25.0679 27.1832 22.9638C27.5387 22.6083 27.5939 22.0512 27.315 21.633ZM18 21.1633C18.5815 21.1633 19.0547 21.6365 19.0547 22.218C19.0547 22.7996 18.5815 23.2727 18 23.2727C17.4184 23.2727 16.9453 22.7996 16.9453 22.218C16.9453 21.6365 17.4184 21.1633 18 21.1633ZM12.9064 33.8899C13.3452 32.636 14.5348 31.7102 15.8906 31.7102H20.1094C21.4652 31.7102 22.6547 32.636 23.0936 33.8899H12.9064ZM21.3922 29.7614C20.9774 29.6555 20.5473 29.6008 20.1094 29.6008H15.8906C15.4526 29.6008 15.0226 29.6555 14.6078 29.7614C14.1142 26.9188 12.8323 24.2615 10.9058 22.1045L16.9453 13.0452V19.2354C15.7177 19.6708 14.8359 20.8431 14.8359 22.2181C14.8359 23.9628 16.2553 25.3822 18 25.3822C19.7447 25.3822 21.1641 23.9628 21.1641 22.2181C21.1641 20.8431 20.2823 19.6708 19.0547 19.2354V13.0452L25.0942 22.1045C23.1677 24.2613 21.8857 26.9186 21.3922 29.7614Z" fill="#78EB54"/>
</g>
<defs>
<clipPath id="clip0_11795_799">
<rect width="36" height="36" fill="white"/>
</clipPath>
</defs>
</svg>
