<svg width="38" height="38" viewBox="0 0 38 38" fill="none" xmlns="http://www.w3.org/2000/svg">
<path fill-rule="evenodd" clip-rule="evenodd" d="M36.0182 9.4974C36.0182 7.5024 35.2266 5.58973 33.8158 4.17898C32.4051 2.76823 30.4924 1.97656 28.4974 1.97656H9.4974C7.5024 1.97656 5.58973 2.76823 4.17898 4.17898C2.76823 5.58973 1.97656 7.5024 1.97656 9.4974V28.4974C1.97656 30.4924 2.76823 32.4051 4.17898 33.8158C5.58973 35.2266 7.5024 36.0182 9.4974 36.0182H28.4974C30.4924 36.0182 32.4051 35.2266 33.8158 33.8158C35.2266 32.4051 36.0182 30.4924 36.0182 28.4974V9.4974ZM33.6432 9.4974V28.4974C33.6432 29.8622 33.1017 31.1716 32.1359 32.1359C31.1716 33.1017 29.8622 33.6432 28.4974 33.6432H9.4974C8.13256 33.6432 6.82315 33.1017 5.8589 32.1359C4.89306 31.1716 4.35156 29.8622 4.35156 28.4974V9.4974C4.35156 8.13256 4.89306 6.82315 5.8589 5.8589C6.82315 4.89306 8.13256 4.35156 9.4974 4.35156H28.4974C29.8622 4.35156 31.1716 4.89306 32.1359 5.8589C33.1017 6.82315 33.6432 8.13256 33.6432 9.4974Z" fill="#78EB54"/>
<path fill-rule="evenodd" clip-rule="evenodd" d="M19.7668 12.922L15.9668 24.322C15.761 24.9443 16.0966 25.6172 16.7189 25.8246C17.3411 26.0304 18.0141 25.6948 18.2215 25.0725L22.0215 13.6725C22.2273 13.0503 21.8916 12.3774 21.2694 12.1699C20.6471 11.9641 19.9742 12.2998 19.7668 12.922Z" fill="#78EB54"/>
<path fill-rule="evenodd" clip-rule="evenodd" d="M23.8558 16.0341L26.815 18.9949L23.8558 21.9557C23.3918 22.4181 23.3918 23.1718 23.8558 23.6341C24.3181 24.098 25.0717 24.098 25.5341 23.6341L29.3341 19.8341C29.798 19.3702 29.798 18.6197 29.3341 18.1558L25.5341 14.3557C25.0717 13.8918 24.3181 13.8918 23.8558 14.3557C23.3918 14.8181 23.3918 15.5718 23.8558 16.0341Z" fill="#78EB54"/>
<path fill-rule="evenodd" clip-rule="evenodd" d="M12.4604 14.3557L8.66044 18.1558C8.19652 18.6197 8.19652 19.3702 8.66044 19.8341L12.4604 23.6341C12.9228 24.098 13.6764 24.098 14.1388 23.6341C14.6027 23.1718 14.6027 22.4181 14.1388 21.9557L11.1795 18.9949L14.1388 16.0341C14.6027 15.5718 14.6027 14.8181 14.1388 14.3557C13.6764 13.8918 12.9228 13.8918 12.4604 14.3557Z" fill="#78EB54"/>
</svg>
