<svg width="36" height="36" viewBox="0 0 36 36" fill="none" xmlns="http://www.w3.org/2000/svg">
<path d="M34.5 18C34.5 23.5298 30.6255 25.5 27 25.5C20.1519 25.5 16.7974 18.9492 16.6582 18.6709C16.6348 18.6226 13.9746 13.5 9 13.5C5.28077 13.5 4.5 15.9478 4.5 18C4.5 21.7192 6.94776 22.5 9 22.5C11.1892 22.5 12.9204 21.5224 14.1866 20.4077C14.6022 21.1685 15.1709 22.0234 15.8878 22.8915C14.2055 24.2976 11.9258 25.5 9 25.5C5.37452 25.5 1.5 23.5298 1.5 18C1.5 14.3745 3.47022 10.5 9 10.5C15.8481 10.5 19.2026 17.0508 19.3418 17.3291C19.3652 17.3774 22.0254 22.5 27 22.5C29.0522 22.5 31.5 21.7192 31.5 18C31.5 15.9478 30.7192 13.5 27 13.5C24.8108 13.5 23.0797 14.4777 21.8135 15.5924C21.3978 14.8315 20.8291 13.9766 20.1122 13.1085C21.7945 11.7025 24.0742 10.5 27 10.5C32.5298 10.5 34.5 14.3745 34.5 18Z" fill="#78EB54"/>
</svg>
