<svg width="36" height="36" viewBox="0 0 36 36" fill="none" xmlns="http://www.w3.org/2000/svg">
<g clip-path="url(#clip0_11795_843)">
<path d="M25.5721 18.7733H23.2001C23.1445 15.9106 20.9233 13.5498 18.0507 13.1508C19.1519 11.9915 19.828 10.4298 19.828 8.71399V6.47047C19.828 4.72926 19.1614 3.1021 17.9511 1.88858C16.7365 0.670707 15.1022 0 13.3489 0C11.6071 0.000843745 9.97772 0.658684 8.75274 1.85195C8.7474 1.85715 8.7417 1.862 8.73643 1.86735C8.72771 1.87586 8.71857 1.8838 8.70985 1.89238C7.47749 3.11475 6.79877 4.74058 6.79877 6.47054V8.71406C6.79877 10.4298 7.47482 11.9914 8.57598 13.1508C5.70345 13.5498 3.48229 15.9106 3.42674 18.7733H1.0547C0.746799 18.7733 0.45416 18.9079 0.253841 19.1418C0.0534513 19.3755 -0.0347201 19.6853 0.0124593 19.9896L2.35631 35.1067C2.43598 35.6207 2.87845 35.9998 3.39855 35.9998H23.2258C23.7458 35.9998 24.1882 35.6207 24.268 35.1069L26.6143 19.9898C26.6616 19.6855 26.5734 19.3757 26.3731 19.1418C26.1726 18.9078 25.8801 18.7733 25.5721 18.7733ZM8.90813 6.47054C8.90813 5.96985 8.99335 5.48209 9.15605 5.0231C9.9586 6.13803 11.3486 6.87744 12.9269 6.87744H17.6933C17.7019 6.87744 17.7102 6.87638 17.7187 6.87617V8.71406C17.7187 11.1188 15.7425 13.0752 13.3134 13.0752C10.8843 13.0752 8.90813 11.1188 8.90813 8.71406V6.47054ZM13.3494 2.10929C15.1911 2.10929 16.7325 3.19182 17.3846 4.768H12.9268C11.7149 4.768 10.7119 4.02459 10.5604 3.06575C11.3446 2.43934 12.2991 2.10978 13.3494 2.10929ZM9.43829 15.1996L17.1885 15.1997C19.3029 15.1997 21.0289 16.793 21.0906 18.7733H5.53611C5.59784 16.7929 7.32393 15.1996 9.43829 15.1996ZM22.3221 33.8904H4.30234L2.28551 20.8826H24.3411L22.3221 33.8904Z" fill="#78EB54"/>
<path d="M35.8165 4.97621C35.7037 4.50034 35.2788 4.16495 34.7904 4.16495C34.7861 4.16495 34.7818 4.16502 34.7774 4.16502C34.4786 4.16502 34.2024 4.00745 34.0554 3.75278C33.9075 3.49663 33.91 3.17636 34.062 2.91684C34.31 2.49342 34.2332 1.95483 33.8766 1.61761C33.1068 0.889461 32.1652 0.345316 31.1537 0.0440992C30.6833 -0.0960328 30.1783 0.107028 29.9357 0.533893C29.7871 0.795524 29.5108 0.958016 29.2148 0.958016C28.9188 0.958016 28.6425 0.795454 28.4939 0.533893C28.2513 0.107028 27.7463 -0.0963141 27.2759 0.0440992C26.2651 0.345035 25.3236 0.88925 24.5532 1.61789C24.1967 1.95504 24.1198 2.49342 24.3677 2.91691C24.5196 3.17636 24.5221 3.4967 24.3742 3.75278C24.2272 4.00745 23.951 4.16502 23.6522 4.16502C23.6478 4.16502 23.6435 4.16495 23.6391 4.16495C23.1509 4.16495 22.726 4.50041 22.6131 4.97607C22.4914 5.48893 22.4297 6.01753 22.4297 6.54748C22.4297 7.07707 22.4914 7.60574 22.6131 8.11874C22.726 8.59461 23.1509 8.93 23.6393 8.93C23.6436 8.93 23.648 8.92993 23.6523 8.92993C23.951 8.92993 24.2273 9.0875 24.3743 9.3421C24.5222 9.59825 24.5196 9.91852 24.3677 10.178C24.1197 10.6015 24.1965 11.1401 24.553 11.4773C25.323 12.2055 26.2646 12.7497 27.2759 13.0509C27.7463 13.1913 28.2513 12.9879 28.4939 12.5611C28.6426 12.2994 28.9188 12.1369 29.2148 12.1369C29.5108 12.1369 29.787 12.2994 29.9357 12.5611C30.1268 12.8974 30.4809 13.0949 30.8527 13.0949C30.9527 13.0949 31.054 13.0806 31.1537 13.0509C32.1647 12.7498 33.1062 12.2056 33.8764 11.477C34.2329 11.1398 34.3098 10.6014 34.0619 10.1779C33.91 9.91852 33.9076 9.59825 34.0554 9.3421C34.2024 9.08743 34.4786 8.92993 34.7773 8.92993C34.7817 8.93 34.7861 8.93007 34.7905 8.93C35.2787 8.93 35.7036 8.59461 35.8165 8.11895C35.9383 7.60624 36 7.07749 36 6.54748C36 6.01781 35.9383 5.48921 35.8165 4.97621ZM33.8723 6.96295C33.1882 7.18359 32.5965 7.64997 32.2286 8.28742C31.8608 8.92452 31.7525 9.66982 31.9033 10.3724C31.676 10.5322 31.435 10.6718 31.184 10.7888C30.6508 10.3066 29.9509 10.0274 29.2149 10.0274C28.4788 10.0274 27.7789 10.3066 27.2457 10.7889C26.9946 10.6719 26.7535 10.5324 26.5264 10.3727C26.6772 9.66996 26.569 8.92459 26.2012 8.28742C25.8332 7.65011 25.2416 7.18366 24.5575 6.96295C24.5454 6.825 24.5392 6.68627 24.5392 6.54748C24.5392 6.40854 24.5453 6.26995 24.5575 6.13193C25.2415 5.91122 25.8332 5.44484 26.2012 4.80746C26.569 4.17043 26.6772 3.42513 26.5265 2.7225C26.7537 2.56275 26.9948 2.42311 27.2458 2.30611C27.779 2.78824 28.4788 3.06745 29.2149 3.06745C29.951 3.06745 30.6509 2.78824 31.184 2.30604C31.4351 2.42304 31.6762 2.56247 31.9033 2.72222C31.7525 3.42492 31.8607 4.17029 32.2286 4.80746C32.5965 5.44484 33.1881 5.91129 33.8722 6.132C33.8844 6.26995 33.8906 6.40868 33.8906 6.54748C33.8906 6.68634 33.8845 6.825 33.8723 6.96295Z" fill="#78EB54"/>
<path d="M13.3125 24.2188C11.5678 24.2188 10.1484 25.6382 10.1484 27.3829C10.1484 29.1275 11.5678 30.5469 13.3125 30.5469C15.0572 30.5469 16.4766 29.1275 16.4766 27.3829C16.4766 25.6382 15.0572 24.2188 13.3125 24.2188ZM13.3125 28.4376C12.7309 28.4376 12.2578 27.9644 12.2578 27.3829C12.2578 26.8013 12.7309 26.3281 13.3125 26.3281C13.8941 26.3281 14.3672 26.8013 14.3672 27.3829C14.3672 27.9645 13.8941 28.4376 13.3125 28.4376Z" fill="#78EB54"/>
<path d="M29.2109 7.60156C29.7934 7.60156 30.2656 7.12936 30.2656 6.54688C30.2656 5.96439 29.7934 5.49219 29.2109 5.49219C28.6284 5.49219 28.1562 5.96439 28.1562 6.54688C28.1562 7.12936 28.6284 7.60156 29.2109 7.60156Z" fill="#78EB54"/>
</g>
<defs>
<clipPath id="clip0_11795_843">
<rect width="36" height="36" fill="white"/>
</clipPath>
</defs>
</svg>
