<svg width="36" height="36" viewBox="0 0 36 36" fill="none" xmlns="http://www.w3.org/2000/svg">
<g clip-path="url(#clip0_11795_815)">
<path d="M32.8359 12.7969H20.3906V3.16406C20.3906 1.4194 18.9712 0 17.2266 0H3.16406C1.4194 0 0 1.4194 0 3.16406V15.8203C0 17.3829 1.13857 18.6846 2.62969 18.9392L2.12372 21.975C2.0508 22.4126 2.25949 22.849 2.64586 23.067C2.80772 23.1583 2.98624 23.2031 3.16385 23.2031C3.41023 23.2031 3.6547 23.1169 3.85045 22.9492L8.4761 18.9844H15.6094V28.6172C15.6094 30.3619 17.0288 31.7812 18.7734 31.7812H27.5239L32.1495 35.7461C32.3452 35.9139 32.5898 36.0001 32.8361 36C33.0137 36 33.1923 35.9552 33.3541 35.8639C33.7405 35.6459 33.9492 35.2095 33.8763 34.7719L33.3703 31.7361C34.8614 31.4814 36 30.1797 36 28.6172V15.9609C36 14.2163 34.5806 12.7969 32.8359 12.7969ZM8.08594 16.875C7.83415 16.875 7.59073 16.9651 7.39955 17.1289L4.68162 19.4586L4.90753 18.1031C4.95851 17.7973 4.8723 17.4845 4.67191 17.2479C4.47159 17.0114 4.1772 16.875 3.86719 16.875H3.16406C2.58251 16.875 2.10938 16.4019 2.10938 15.8203V3.16406C2.10938 2.58251 2.58251 2.10938 3.16406 2.10938H17.2266C17.8081 2.10938 18.2812 2.58251 18.2812 3.16406V15.8203C18.2812 16.4019 17.8081 16.875 17.2266 16.875H8.08594ZM33.8906 28.6172C33.8906 29.1987 33.4175 29.6719 32.8359 29.6719H32.1328C31.8228 29.6719 31.5284 29.8083 31.3281 30.0448C31.1277 30.2814 31.0416 30.5942 31.0925 30.9L31.3184 32.2554L28.6005 29.9258C28.4093 29.7619 28.1659 29.6719 27.9141 29.6719H18.7734C18.1919 29.6719 17.7188 29.1987 17.7188 28.6172V18.9459C19.2305 18.7087 20.3906 17.3976 20.3906 15.8203V14.9062H32.8359C33.4175 14.9062 33.8906 15.3794 33.8906 15.9609V28.6172Z" fill="#78EB54"/>
<path d="M26.9858 17.8163C26.9821 17.8067 26.9784 17.7971 26.9745 17.7877C26.7816 17.3185 26.3293 17.0156 25.8222 17.0156H25.821C25.3134 17.016 24.8612 17.3199 24.669 17.7898C24.6657 17.7977 24.6625 17.8057 24.6595 17.8137L21.4912 26.1324C21.2839 26.6768 21.5571 27.2861 22.1015 27.4934C22.6461 27.7008 23.2551 27.4274 23.4624 26.8831L23.9927 25.4907H27.6272L28.1516 26.8802C28.311 27.3026 28.7123 27.5628 29.1385 27.5628C29.2622 27.5628 29.3881 27.5408 29.5107 27.4946C30.0557 27.2889 30.3308 26.6804 30.1251 26.1354L26.9858 17.8163ZM24.7962 23.3813L25.8185 20.6974L26.8313 23.3813H24.7962Z" fill="#78EB54"/>
<path d="M14.5908 12.3299C15.1248 11.5073 15.4363 10.5277 15.4363 9.47602C15.4363 6.57717 13.078 4.21875 10.1791 4.21875C7.28016 4.21875 4.92188 6.57724 4.92188 9.47609C4.92188 12.3749 7.28023 14.7333 10.1791 14.7333C11.2651 14.7333 12.2752 14.4023 13.1138 13.8359L13.6683 14.3904C13.8743 14.5963 14.1442 14.6993 14.4141 14.6993C14.6839 14.6993 14.9539 14.5963 15.1598 14.3904C15.5717 13.9785 15.5717 13.3107 15.1598 12.8988L14.5908 12.3299ZM10.1791 12.6239C8.44341 12.6239 7.03125 11.2118 7.03125 9.47609C7.03125 7.74028 8.44341 6.3282 10.1791 6.3282C11.9149 6.3282 13.327 7.74028 13.327 9.47609C13.327 9.94163 13.2247 10.3835 13.0425 10.7814L12.471 10.21C12.0592 9.79812 11.3914 9.79819 10.9795 10.21C10.5676 10.6218 10.5676 11.2897 10.9795 11.7015L11.5746 12.2967C11.1537 12.5057 10.68 12.6239 10.1791 12.6239Z" fill="#78EB54"/>
</g>
<defs>
<clipPath id="clip0_11795_815">
<rect width="36" height="36" fill="white"/>
</clipPath>
</defs>
</svg>
