<svg width="36" height="36" viewBox="0 0 36 36" fill="none" xmlns="http://www.w3.org/2000/svg">
<g clip-path="url(#clip0_11795_809)">
<path fill-rule="evenodd" clip-rule="evenodd" d="M26.9718 35.8329C27.3375 36.0557 27.7875 36.0557 28.1532 35.8329C28.1532 35.8329 30.2906 34.5184 32.2537 33.3101C34.5825 31.8769 36 29.3378 36 26.6029V16.875C36 16.2967 35.5612 15.8124 34.9875 15.7556C32.2931 15.4879 29.9363 14.9141 28.2094 13.7036C27.8213 13.4319 27.3037 13.4319 26.9156 13.7036C25.1887 14.9141 22.8319 15.4879 20.1375 15.7556C19.5638 15.8124 19.125 16.2967 19.125 16.875V26.6029C19.125 29.3378 20.5425 31.8769 22.8713 33.3101C24.8344 34.5184 26.9718 35.8329 26.9718 35.8329ZM16.875 33.75C17.5669 33.75 18.2475 33.7084 18.9169 33.6274C19.53 33.5531 19.9744 32.9923 19.8956 32.3758C19.8675 32.1092 19.7438 31.8763 19.5638 31.7031C19.5469 31.6597 19.5244 31.6176 19.5019 31.5765C19.1869 31.041 18.495 30.8627 17.9607 31.1777C17.6119 31.383 17.2519 31.5 16.875 31.5C15.7163 31.5 14.7319 30.5061 13.86 29.0166C13.0388 27.6126 12.375 25.7642 11.9193 23.625H16.875C17.4937 23.625 18 23.121 18 22.5C18 21.879 17.4937 21.375 16.875 21.375H11.5369C11.3513 19.9536 11.25 18.4416 11.25 16.875C11.25 15.3084 11.3513 13.7964 11.5369 12.375H22.2131C22.2412 12.5848 22.2637 12.7969 22.2862 13.0106C22.3594 13.6271 22.9162 14.0721 23.5294 14.0029C24.1481 13.9337 24.5925 13.3768 24.525 12.7597C24.5081 12.6309 24.4969 12.5021 24.48 12.375H30.7912C30.8925 12.6742 30.9769 12.9774 31.0556 13.284C31.2075 13.8864 31.8206 14.2515 32.4225 14.0991C33.0244 13.9472 33.39 13.3346 33.2381 12.7327C31.3875 5.41912 24.7612 0 16.875 0C7.56 0 0 7.56169 0 16.875C0 26.1883 7.56 33.75 16.875 33.75ZM27.5625 33.5543L24.0525 31.3937C22.3875 30.3699 21.375 28.5564 21.375 26.6029V17.8768C23.76 17.5573 25.875 16.9594 27.5625 15.9615C29.2556 16.9594 31.365 17.5573 33.75 17.8768V26.6029C33.75 28.5564 32.7375 30.3699 31.0725 31.3937L27.5625 33.5543ZM9.63 23.625H3.89816C5.65316 26.9797 8.6625 29.5723 12.3075 30.771C12.1725 30.5741 12.0431 30.3677 11.9193 30.1523C10.9406 28.4783 10.1419 26.2316 9.63 23.625ZM23.3944 25.5454L25.6444 27.7954C26.0831 28.2347 26.7919 28.2347 27.2306 27.7954L31.7306 23.2954C32.1694 22.8566 32.1694 22.1434 31.7306 21.7046C31.2919 21.2653 30.5831 21.2653 30.1444 21.7046L26.4375 25.4092L24.9806 23.9546C24.5419 23.5153 23.8331 23.5153 23.3944 23.9546C22.9556 24.3934 22.9556 25.1066 23.3944 25.5454ZM9.27562 12.375H2.95876C2.49751 13.7925 2.25 15.3051 2.25 16.875C2.25 18.4449 2.49751 19.9575 2.95876 21.375H9.27562C9.09562 19.9451 9 18.4359 9 16.875C9 15.3141 9.09562 13.8049 9.27562 12.375ZM12.3075 2.979C8.6625 4.17769 5.64753 6.77081 3.89816 10.125H9.63C10.1419 7.51837 10.9406 5.27175 11.9193 3.59775C12.0431 3.38231 12.1725 3.17588 12.3075 2.979ZM21.825 10.125C21.285 7.56787 20.4469 5.42756 19.4006 3.97575C18.6412 2.93118 17.8144 2.25 16.875 2.25C15.7163 2.25 14.7319 3.24394 13.86 4.73344C13.0388 6.13744 12.375 7.98581 11.9193 10.125H21.825ZM21.4425 2.97956C22.6012 4.70981 23.5406 7.18875 24.12 10.125H29.8518C28.1025 6.77081 25.0875 4.17825 21.4425 2.97956Z" fill="#78EB54"/>
</g>
<defs>
<clipPath id="clip0_11795_809">
<rect width="36" height="36" fill="white"/>
</clipPath>
</defs>
</svg>
