<svg width="24" height="24" viewBox="0 0 24 24" fill="none" xmlns="http://www.w3.org/2000/svg">
<rect x="0.25" y="0.25" width="23.5" height="23.5" rx="11.75" fill="#D9E5E3" fill-opacity="0.5"/>
<rect x="0.25" y="0.25" width="23.5" height="23.5" rx="11.75" stroke="#D9E5E3" stroke-width="0.5"/>
<g clip-path="url(#clip0_13251_21372)">
<path fill-rule="evenodd" clip-rule="evenodd" d="M7.89125 7.21425C8.51775 7.16875 9.4565 7.125 10.75 7.125C12.0435 7.125 12.9825 7.16875 13.6087 7.21425C13.9815 7.2415 14.2587 7.5185 14.2858 7.89125C14.3313 8.51775 14.375 9.4565 14.375 10.75C14.375 12.0435 14.3313 12.9825 14.2858 13.6087C14.2585 13.9815 13.9815 14.2587 13.6085 14.2858C12.9823 14.3313 12.0435 14.375 10.75 14.375C9.4565 14.375 8.5175 14.3313 7.89125 14.2858C7.5185 14.2585 7.24125 13.9815 7.21425 13.6085C7.16875 12.9825 7.125 12.0437 7.125 10.75C7.125 9.45625 7.16875 8.5175 7.21425 7.89125C7.2415 7.5185 7.5185 7.24125 7.89125 7.21425ZM10.75 6.125C9.434 6.125 8.471 6.1695 7.81875 6.217C6.95075 6.28 6.28 6.95075 6.217 7.81875C6.1695 8.471 6.125 9.434 6.125 10.75C6.125 12.066 6.1695 13.029 6.217 13.6813C6.28 14.5492 6.95075 15.22 7.81875 15.283C8.471 15.3305 9.434 15.375 10.75 15.375C12.066 15.375 13.029 15.3305 13.6813 15.283C14.5492 15.22 15.22 14.5492 15.283 13.6813C15.3305 13.029 15.375 12.066 15.375 10.75C15.375 9.434 15.3305 8.471 15.283 7.81875C15.22 6.95075 14.5492 6.28 13.6813 6.217C13.029 6.1695 12.066 6.125 10.75 6.125ZM13.25 8.625C13.406 8.625 13.5572 8.62558 13.7035 8.62675C13.7175 8.918 13.7297 9.25075 13.738 9.62725C13.5753 9.62578 13.4127 9.62503 13.25 9.625C11.9565 9.625 11.0175 9.66875 10.3915 9.7145C10.0185 9.7415 9.7415 10.0185 9.7145 10.3913C9.66875 11.0178 9.625 11.9565 9.625 13.25C9.625 13.4187 9.62575 13.5813 9.62725 13.738C9.29362 13.7308 8.96009 13.7193 8.62675 13.7035C8.62558 13.5572 8.625 13.406 8.625 13.25C8.625 11.934 8.6695 10.971 8.717 10.3187C8.78 9.45075 9.45075 8.78 10.3187 8.717C10.971 8.6695 11.934 8.625 13.25 8.625ZM8.717 16.1812L8.702 15.9593C9.06801 15.9748 9.43421 15.9856 9.8005 15.9917C10.433 16.0029 11.0657 16.0029 11.6982 15.9917C12.594 15.9767 13.29 15.9413 13.805 15.9038C14.9395 15.8212 15.8215 14.9392 15.904 13.805C15.9538 13.1205 16 12.1165 16 10.75C15.9998 10.3753 15.9967 10.0273 15.9905 9.706H15.9902C15.9827 9.33583 15.9724 9.00108 15.9593 8.70175C16.0368 8.70675 16.1107 8.71183 16.1812 8.717C17.0492 8.78 17.72 9.45075 17.783 10.3187C17.8305 10.971 17.875 11.934 17.875 13.25C17.875 14.566 17.8305 15.529 17.783 16.1812C17.72 17.0492 17.0492 17.72 16.1812 17.783C15.529 17.8305 14.566 17.875 13.25 17.875C11.934 17.875 10.971 17.8305 10.3187 17.783C9.45075 17.72 8.78 17.0492 8.717 16.1812Z" fill="#45A735"/>
</g>
<defs>
<clipPath id="clip0_13251_21372">
<rect width="12" height="12" fill="white" transform="translate(6 6)"/>
</clipPath>
</defs>
</svg>
