<svg width="24" height="24" viewBox="0 0 24 24" fill="none" xmlns="http://www.w3.org/2000/svg">
<rect x="0.25" y="0.25" width="23.5" height="23.5" rx="11.75" fill="#D9E5E3" fill-opacity="0.5"/>
<rect x="0.25" y="0.25" width="23.5" height="23.5" rx="11.75" stroke="#D9E5E3" stroke-width="0.5"/>
<path d="M17.5 11.9956L16.28 10.6056L16.45 8.76562L14.645 8.35562L13.7 6.76562L12 7.49563L10.3 6.76562L9.355 8.35562L7.55 8.76063L7.72 10.6006L6.5 11.9956L7.72 13.3856L7.55 15.2306L9.355 15.6406L10.3 17.2306L12 16.4956L13.7 17.2256L14.645 15.6356L16.45 15.2256L16.28 13.3856L17.5 11.9956ZM11 14.4956L9 12.4956L9.705 11.7906L11 13.0806L14.295 9.78562L15 10.4956L11 14.4956Z" fill="#45A735"/>
</svg>
