<svg width="24" height="24" viewBox="0 0 24 24" fill="none" xmlns="http://www.w3.org/2000/svg">
<rect x="0.25" y="0.25" width="23.5" height="23.5" rx="11.75" fill="#D9E5E3" fill-opacity="0.5"/>
<rect x="0.25" y="0.25" width="23.5" height="23.5" rx="11.75" stroke="#D9E5E3" stroke-width="0.5"/>
<path fill-rule="evenodd" clip-rule="evenodd" d="M10 9.5C10 8.96957 10.2107 8.46086 10.5858 8.08579C10.9609 7.71071 11.4696 7.5 12 7.5C12.5304 7.5 13.0391 7.71071 13.4142 8.08579C13.7893 8.46086 14 8.96957 14 9.5C14 10.0304 13.7893 10.5391 13.4142 10.9142C13.0391 11.2893 12.5304 11.5 12 11.5C11.4696 11.5 10.9609 11.2893 10.5858 10.9142C10.2107 10.5391 10 10.0304 10 9.5ZM10 12.5C9.33696 12.5 8.70107 12.7634 8.23223 13.2322C7.76339 13.7011 7.5 14.337 7.5 15C7.5 15.3978 7.65804 15.7794 7.93934 16.0607C8.22064 16.342 8.60218 16.5 9 16.5H15C15.3978 16.5 15.7794 16.342 16.0607 16.0607C16.342 15.7794 16.5 15.3978 16.5 15C16.5 14.337 16.2366 13.7011 15.7678 13.2322C15.2989 12.7634 14.663 12.5 14 12.5H10Z" fill="#45A735"/>
</svg>
