<svg width="24" height="24" viewBox="0 0 24 24" fill="none" xmlns="http://www.w3.org/2000/svg">
<rect x="0.25" y="0.25" width="23.5" height="23.5" rx="11.75" fill="#D9E5E3" fill-opacity="0.5"/>
<rect x="0.25" y="0.25" width="23.5" height="23.5" rx="11.75" stroke="#D9E5E3" stroke-width="0.5"/>
<path fill-rule="evenodd" clip-rule="evenodd" d="M9.95889 7.22314C10.5187 6.91737 11.18 6.625 11.9991 6.625C12.8182 6.625 13.4797 6.91737 14.0398 7.22312C14.6339 7.54746 15.0432 7.83515 15.5238 7.99672C15.8462 8.10513 16.2495 8.19511 16.4799 8.46505C16.6644 8.68114 16.706 8.96694 16.7522 9.23706C17.2928 12.3987 16.0555 15.8906 12.9098 17.1609C12.6108 17.2817 12.3798 17.375 12.0006 17.375C11.6214 17.375 11.3903 17.2817 11.0914 17.1609C7.94577 15.8906 6.7076 12.3958 7.24751 9.23712C7.29366 8.96701 7.33524 8.68125 7.51966 8.46517C7.75008 8.1952 8.15336 8.10516 8.47582 7.9967C8.95618 7.83513 9.36496 7.54753 9.95889 7.22314ZM8.78822 8.92288C8.68294 8.95829 8.58408 8.99315 8.49838 9.02448C8.38972 9.0642 8.33539 9.08406 8.29229 9.13559C8.24132 9.19651 8.23492 9.26842 8.20912 9.4193C7.91126 11.1608 8.1541 12.788 8.89623 14.0612C8.97861 14.2025 9.0198 14.2732 9.09328 14.2827C9.16676 14.2923 9.22709 14.2322 9.34774 14.1119L14.446 9.03104C14.5821 8.8954 14.6502 8.82758 14.6397 8.75346C14.6291 8.67933 14.5425 8.63167 14.3693 8.53636C14.0841 8.37941 13.8137 8.21341 13.5706 8.08069C13.0623 7.80324 12.5742 7.60229 11.9992 7.60229C11.4242 7.60229 10.9364 7.8032 10.4285 8.0806C9.95463 8.33939 9.37691 8.72487 8.78822 8.92288Z" fill="#45A735"/>
</svg>
