<svg width="132" height="132" viewBox="0 0 132 132" fill="none" xmlns="http://www.w3.org/2000/svg">
<path d="M69.9387 1.88412C71.6688 4.03056 74.7991 4.39651 76.9776 2.70691V2.70679C79.5272 0.729336 83.2515 1.61197 84.6424 4.52346C85.8308 7.01114 88.7924 8.08899 91.3019 6.94732C94.2388 5.61114 97.6591 7.32897 98.3411 10.4825C98.9239 13.1771 101.557 14.909 104.262 14.3769C107.428 13.754 110.36 16.2143 110.296 19.4402C110.242 22.1965 112.405 24.489 115.16 24.5948C118.384 24.7189 120.669 27.789 119.863 30.9133C119.175 33.5829 120.751 36.3122 123.407 37.0507C126.516 37.915 128.032 41.4294 126.527 44.2837C125.241 46.7225 126.145 49.7416 128.56 51.0728C131.385 52.6306 132.05 56.3999 129.927 58.8302C128.114 60.9067 128.297 64.053 130.339 65.9049C132.73 68.0725 132.507 71.8935 129.881 73.7689C127.638 75.3712 127.091 78.475 128.651 80.748C130.477 83.4083 129.379 87.075 126.392 88.2943C123.839 89.3361 122.591 92.2299 123.585 94.8016C124.748 97.8112 122.834 101.126 119.646 101.623C116.922 102.049 115.04 104.577 115.414 107.308C115.852 110.505 113.225 113.289 110.009 113.038C107.26 112.823 104.846 114.849 104.58 117.593C104.268 120.804 101.071 122.908 97.9984 121.922C95.3734 121.079 92.557 122.493 91.6654 125.102C90.6219 128.155 87.0252 129.464 84.2632 127.796C81.9032 126.371 78.8367 127.098 77.3674 129.431C75.6479 132.161 71.8464 132.605 69.5435 130.345C67.5759 128.414 64.4242 128.414 62.4567 130.345C60.1539 132.605 56.3523 132.161 54.6328 129.431C53.1635 127.098 50.097 126.371 47.737 127.796C44.9751 129.465 41.3784 128.155 40.3349 125.102C39.4432 122.493 36.6268 121.079 34.0018 121.922C30.9296 122.908 27.7318 120.805 27.4205 117.593C27.1545 114.849 24.7403 112.823 21.9917 113.038C18.7748 113.289 16.1484 110.505 16.5861 107.308C16.9602 104.576 15.0781 102.048 12.3541 101.623C9.16617 101.126 7.2523 97.8113 8.4154 94.8016C9.40928 92.23 8.16104 89.3361 5.60848 88.2943C2.62111 87.0751 1.52336 83.4084 3.34927 80.748C4.90936 78.475 4.36213 75.3713 2.11861 73.7689C-0.507026 71.8935 -0.729645 68.0726 1.66061 65.9049C3.70294 64.053 3.88609 60.9067 2.07259 58.8302C-0.0497271 56.3998 0.614846 52.6306 3.4405 51.0728C5.85476 49.7416 6.7587 46.7225 5.47299 44.2837C3.9683 41.4294 5.48424 37.915 8.59294 37.0507C11.2491 36.3122 12.8249 33.583 12.1363 30.9133C11.3304 27.789 13.616 24.7189 16.8402 24.5948C19.5952 24.4889 21.7579 22.1965 21.7035 19.4402C21.6398 16.2142 24.5719 13.754 27.7378 14.3769C30.4429 14.9091 33.0759 13.1772 33.6587 10.4825C34.3407 7.32885 37.761 5.61102 40.698 6.94732C43.2074 8.08899 46.169 7.01114 47.3574 4.52346C48.7484 1.61209 52.4727 0.729336 55.0222 2.70679V2.70691C57.2007 4.39651 60.331 4.03056 62.0611 1.88412C64.0864 -0.62804 67.9138 -0.62804 69.9387 1.88412Z" fill="#45A735"/>
<path d="M24.0529 47.2775C23.975 47.0331 23.8703 46.8142 23.7387 46.6208C23.6097 46.4247 23.4553 46.2582 23.2754 46.1212C23.0954 45.9816 22.8899 45.8755 22.6589 45.803C22.4306 45.7304 22.1795 45.6942 21.9056 45.6942C21.4409 45.6942 21.0219 45.8137 20.6486 46.0528C20.2752 46.2918 19.9798 46.6423 19.7622 47.1043C19.5474 47.5636 19.4399 48.1262 19.4399 48.7923C19.4399 49.4611 19.5487 50.0265 19.7663 50.4885C19.9838 50.9504 20.2819 51.301 20.6607 51.54C21.0394 51.779 21.4704 51.8986 21.9539 51.8986C22.4024 51.8986 22.7932 51.8072 23.1263 51.6246C23.462 51.442 23.7212 51.1841 23.9038 50.8511C24.0892 50.5153 24.1818 50.1205 24.1818 49.6666L24.5041 49.727H22.1433V48.6997H25.3864V49.6384C25.3864 50.3314 25.2387 50.933 24.9433 51.4433C24.6505 51.9509 24.245 52.3431 23.7266 52.6197C23.2109 52.8964 22.62 53.0347 21.9539 53.0347C21.2072 53.0347 20.5519 52.8628 19.9878 52.519C19.4265 52.1752 18.9887 51.6877 18.6745 51.0565C18.3602 50.4227 18.2031 49.6706 18.2031 48.8004C18.2031 48.1424 18.2944 47.5515 18.477 47.0277C18.6597 46.504 18.9162 46.0595 19.2465 45.6942C19.5796 45.3262 19.9704 45.0456 20.4189 44.8522C20.8702 44.6561 21.363 44.5581 21.8975 44.5581C22.3434 44.5581 22.7583 44.6239 23.1424 44.7555C23.5292 44.8871 23.873 45.0738 24.1738 45.3155C24.4773 45.5572 24.7284 45.8446 24.9272 46.1776C25.1259 46.508 25.2602 46.8746 25.33 47.2775H24.0529ZM30.7901 50.3555V46.7336H31.9987V52.9219H30.8143V51.8502H30.7498C30.6074 52.1806 30.3792 52.4559 30.0649 52.6761C29.7533 52.8937 29.3652 53.0025 28.9006 53.0025C28.5031 53.0025 28.1512 52.9152 27.845 52.7406C27.5415 52.5633 27.3025 52.3014 27.1279 51.955C26.956 51.6085 26.8701 51.1801 26.8701 50.6698V46.7336H28.0747V50.5247C28.0747 50.9464 28.1915 51.2821 28.4252 51.5319C28.6588 51.7817 28.9624 51.9066 29.3357 51.9066C29.5613 51.9066 29.7856 51.8502 30.0085 51.7374C30.2341 51.6246 30.4208 51.454 30.5685 51.2257C30.7189 50.9974 30.7928 50.7074 30.7901 50.3555ZM35.4182 53.0589C35.026 53.0589 34.6715 52.9863 34.3546 52.8413C34.0376 52.6936 33.7865 52.48 33.6012 52.2007C33.4186 51.9214 33.3272 51.5789 33.3272 51.1734C33.3272 50.8242 33.3944 50.5368 33.5287 50.3112C33.663 50.0856 33.8443 49.907 34.0726 49.7754C34.3009 49.6438 34.556 49.5444 34.838 49.4772C35.1201 49.4101 35.4074 49.3591 35.7002 49.3241C36.0709 49.2812 36.3717 49.2463 36.6027 49.2194C36.8336 49.1899 37.0015 49.1429 37.1063 49.0784C37.211 49.0139 37.2634 48.9092 37.2634 48.7641V48.7359C37.2634 48.3841 37.164 48.1115 36.9652 47.9181C36.7692 47.7247 36.4764 47.628 36.087 47.628C35.6814 47.628 35.3618 47.718 35.1281 47.8979C34.8971 48.0752 34.7373 48.2726 34.6487 48.4902L33.5166 48.2323C33.6509 47.8563 33.8469 47.5528 34.1048 47.3218C34.3653 47.0882 34.6648 46.9189 35.0032 46.8142C35.3416 46.7068 35.6975 46.653 36.0709 46.653C36.318 46.653 36.5798 46.6826 36.8565 46.7417C37.1358 46.7981 37.3963 46.9028 37.6381 47.0559C37.8825 47.209 38.0826 47.4279 38.2384 47.7126C38.3941 47.9946 38.472 48.3613 38.472 48.8125V52.9219H37.2956V52.0758H37.2473C37.1694 52.2316 37.0525 52.3847 36.8968 52.5351C36.741 52.6855 36.5409 52.8104 36.2965 52.9098C36.0521 53.0092 35.7593 53.0589 35.4182 53.0589ZM35.6801 52.0919C36.0131 52.0919 36.2978 52.0261 36.5342 51.8945C36.7732 51.7629 36.9545 51.591 37.0781 51.3788C37.2043 51.164 37.2674 50.9343 37.2674 50.6899V49.8922C37.2244 49.9352 37.1412 49.9755 37.0176 50.0131C36.8968 50.048 36.7584 50.0789 36.6027 50.1057C36.4469 50.1299 36.2951 50.1527 36.1474 50.1742C35.9997 50.193 35.8761 50.2091 35.7767 50.2226C35.5431 50.2521 35.3296 50.3018 35.1362 50.3716C34.9455 50.4415 34.7924 50.5422 34.6769 50.6738C34.5641 50.8027 34.5077 50.9746 34.5077 51.1895C34.5077 51.4876 34.6178 51.7132 34.838 51.8663C35.0583 52.0167 35.339 52.0919 35.6801 52.0919ZM40.0765 52.9219V46.7336H41.2408V47.7167H41.3053C41.4181 47.3836 41.6168 47.1217 41.9015 46.931C42.1889 46.7377 42.5139 46.641 42.8765 46.641C42.9517 46.641 43.0404 46.6436 43.1424 46.649C43.2472 46.6544 43.3291 46.6611 43.3882 46.6692V47.8214C43.3398 47.808 43.2539 47.7932 43.1303 47.7771C43.0068 47.7583 42.8832 47.7489 42.7597 47.7489C42.475 47.7489 42.2212 47.8093 41.9982 47.9302C41.778 48.0484 41.6034 48.2135 41.4745 48.4257C41.3456 48.6352 41.2811 48.8743 41.2811 49.1429V52.9219H40.0765ZM46.1761 53.0589C45.784 53.0589 45.4294 52.9863 45.1125 52.8413C44.7956 52.6936 44.5444 52.48 44.3591 52.2007C44.1765 51.9214 44.0852 51.5789 44.0852 51.1734C44.0852 50.8242 44.1523 50.5368 44.2866 50.3112C44.4209 50.0856 44.6022 49.907 44.8305 49.7754C45.0588 49.6438 45.3139 49.5444 45.596 49.4772C45.878 49.4101 46.1654 49.3591 46.4581 49.3241C46.8288 49.2812 47.1296 49.2463 47.3606 49.2194C47.5916 49.1899 47.7594 49.1429 47.8642 49.0784C47.9689 49.0139 48.0213 48.9092 48.0213 48.7641V48.7359C48.0213 48.3841 47.9219 48.1115 47.7232 47.9181C47.5271 47.7247 47.2343 47.628 46.8449 47.628C46.4393 47.628 46.1197 47.718 45.886 47.8979C45.6551 48.0752 45.4952 48.2726 45.4066 48.4902L44.2745 48.2323C44.4088 47.8563 44.6049 47.5528 44.8627 47.3218C45.1233 47.0882 45.4227 46.9189 45.7611 46.8142C46.0996 46.7068 46.4554 46.653 46.8288 46.653C47.0759 46.653 47.3378 46.6826 47.6144 46.7417C47.8937 46.7981 48.1543 46.9028 48.396 47.0559C48.6404 47.209 48.8405 47.4279 48.9963 47.7126C49.1521 47.9946 49.23 48.3613 49.23 48.8125V52.9219H48.0535V52.0758H48.0052C47.9273 52.2316 47.8105 52.3847 47.6547 52.5351C47.4989 52.6855 47.2988 52.8104 47.0544 52.9098C46.81 53.0092 46.5172 53.0589 46.1761 53.0589ZM46.438 52.0919C46.771 52.0919 47.0557 52.0261 47.2921 51.8945C47.5311 51.7629 47.7124 51.591 47.836 51.3788C47.9622 51.164 48.0253 50.9343 48.0253 50.6899V49.8922C47.9824 49.9352 47.8991 49.9755 47.7756 50.0131C47.6547 50.048 47.5164 50.0789 47.3606 50.1057C47.2048 50.1299 47.0531 50.1527 46.9053 50.1742C46.7576 50.193 46.6341 50.2091 46.5347 50.2226C46.301 50.2521 46.0875 50.3018 45.8941 50.3716C45.7034 50.4415 45.5503 50.5422 45.4348 50.6738C45.322 50.8027 45.2656 50.9746 45.2656 51.1895C45.2656 51.4876 45.3757 51.7132 45.596 51.8663C45.8162 52.0167 46.0969 52.0919 46.438 52.0919ZM52.039 49.2476V52.9219H50.8344V46.7336H51.9907V47.7408H52.0672C52.2096 47.4131 52.4325 47.1499 52.736 46.9512C53.0422 46.7524 53.4276 46.653 53.8923 46.653C54.314 46.653 54.6833 46.7417 55.0002 46.9189C55.3171 47.0935 55.5629 47.3541 55.7375 47.7005C55.9121 48.047 55.9994 48.4754 55.9994 48.9857V52.9219H54.7947V49.1308C54.7947 48.6822 54.6779 48.3317 54.4442 48.0792C54.2106 47.8241 53.8896 47.6965 53.4814 47.6965C53.202 47.6965 52.9536 47.7569 52.736 47.8778C52.5212 47.9987 52.3506 48.1759 52.2244 48.4096C52.1008 48.6406 52.039 48.9199 52.039 49.2476ZM60.5036 46.7336V47.7005H57.1234V46.7336H60.5036ZM58.0299 45.251H59.2345V51.1049C59.2345 51.3386 59.2694 51.5145 59.3392 51.6327C59.4091 51.7481 59.499 51.8274 59.6092 51.8704C59.722 51.9106 59.8442 51.9308 59.9758 51.9308C60.0725 51.9308 60.1571 51.9241 60.2296 51.9106C60.3021 51.8972 60.3585 51.8865 60.3988 51.8784L60.6164 52.8735C60.5465 52.9004 60.4472 52.9272 60.3182 52.9541C60.1893 52.9837 60.0282 52.9998 59.8348 53.0025C59.5179 53.0078 59.2224 52.9514 58.9484 52.8332C58.6745 52.7151 58.4529 52.5324 58.2837 52.2853C58.1145 52.0382 58.0299 51.728 58.0299 51.3547V45.251ZM64.4367 53.0468C63.827 53.0468 63.3019 52.9165 62.8614 52.656C62.4236 52.3928 62.0852 52.0235 61.8462 51.5481C61.6098 51.07 61.4916 50.51 61.4916 49.868C61.4916 49.2342 61.6098 48.6755 61.8462 48.1921C62.0852 47.7086 62.4183 47.3312 62.8453 47.06C63.2751 46.7887 63.7773 46.653 64.3521 46.653C64.7013 46.653 65.0397 46.7108 65.3673 46.8263C65.695 46.9418 65.9891 47.1231 66.2497 47.3702C66.5102 47.6173 66.7157 47.9382 66.8661 48.3331C67.0165 48.7252 67.0917 49.2019 67.0917 49.7633V50.1903H62.1725V49.2879H65.9112C65.9112 48.971 65.8468 48.6903 65.7179 48.4459C65.5889 48.1988 65.4076 48.004 65.174 47.8617C64.943 47.7193 64.6717 47.6482 64.3601 47.6482C64.0217 47.6482 63.7263 47.7314 63.4738 47.8979C63.224 48.0618 63.0306 48.2767 62.8937 48.5426C62.7594 48.8058 62.6922 49.0918 62.6922 49.4007V50.1057C62.6922 50.5194 62.7647 50.8712 62.9098 51.1613C63.0575 51.4514 63.263 51.6729 63.5262 51.826C63.7894 51.9764 64.0969 52.0517 64.4488 52.0517C64.6771 52.0517 64.8852 52.0194 65.0732 51.955C65.2613 51.8878 65.4238 51.7884 65.5607 51.6568C65.6977 51.5252 65.8025 51.3627 65.875 51.1693L67.0151 51.3748C66.9238 51.7105 66.76 52.0046 66.5236 52.2571C66.2899 52.5069 65.9958 52.7016 65.6413 52.8413C65.2895 52.9783 64.8879 53.0468 64.4367 53.0468ZM71.0953 53.0468C70.4856 53.0468 69.9605 52.9165 69.52 52.656C69.0822 52.3928 68.7438 52.0235 68.5048 51.5481C68.2684 51.07 68.1502 50.51 68.1502 49.868C68.1502 49.2342 68.2684 48.6755 68.5048 48.1921C68.7438 47.7086 69.0769 47.3312 69.5039 47.06C69.9337 46.7887 70.4359 46.653 71.0107 46.653C71.3599 46.653 71.6983 46.7108 72.026 46.8263C72.3536 46.9418 72.6477 47.1231 72.9083 47.3702C73.1688 47.6173 73.3743 47.9382 73.5247 48.3331C73.6751 48.7252 73.7503 49.2019 73.7503 49.7633V50.1903H68.8311V49.2879H72.5699C72.5699 48.971 72.5054 48.6903 72.3765 48.4459C72.2475 48.1988 72.0663 48.004 71.8326 47.8617C71.6016 47.7193 71.3303 47.6482 71.0188 47.6482C70.6803 47.6482 70.3849 47.7314 70.1324 47.8979C69.8826 48.0618 69.6893 48.2767 69.5523 48.5426C69.418 48.8058 69.3508 49.0918 69.3508 49.4007V50.1057C69.3508 50.5194 69.4234 50.8712 69.5684 51.1613C69.7161 51.4514 69.9216 51.6729 70.1848 51.826C70.448 51.9764 70.7555 52.0517 71.1074 52.0517C71.3357 52.0517 71.5439 52.0194 71.7319 51.955C71.9199 51.8878 72.0824 51.7884 72.2193 51.6568C72.3563 51.5252 72.4611 51.3627 72.5336 51.1693L73.6737 51.3748C73.5824 51.7105 73.4186 52.0046 73.1822 52.2571C72.9486 52.5069 72.6545 52.7016 72.2999 52.8413C71.9481 52.9783 71.5465 53.0468 71.0953 53.0468ZM77.4034 53.0427C76.9038 53.0427 76.458 52.9152 76.0659 52.66C75.6764 52.4022 75.3702 52.0355 75.1473 51.5601C74.927 51.0821 74.8169 50.5086 74.8169 49.8398C74.8169 49.1711 74.9284 48.599 75.1513 48.1236C75.3769 47.6482 75.6858 47.2842 76.0779 47.0318C76.4701 46.7793 76.9146 46.653 77.4115 46.653C77.7956 46.653 78.1044 46.7175 78.3381 46.8464C78.5745 46.9727 78.7571 47.1204 78.886 47.2896C79.0176 47.4588 79.1197 47.6079 79.1922 47.7368H79.2647V44.6709H80.4693V52.9219H79.2929V51.959H79.1922C79.1197 52.0906 79.0149 52.241 78.878 52.4102C78.7437 52.5794 78.5583 52.7271 78.322 52.8534C78.0856 52.9796 77.7794 53.0427 77.4034 53.0427ZM77.6693 52.0154C78.0158 52.0154 78.3086 51.9241 78.5476 51.7414C78.7893 51.5561 78.972 51.2996 79.0955 50.9719C79.2218 50.6443 79.2849 50.2629 79.2849 49.8277C79.2849 49.398 79.2231 49.022 79.0995 48.6997C78.976 48.3774 78.7947 48.1262 78.5557 47.9463C78.3166 47.7663 78.0212 47.6764 77.6693 47.6764C77.3067 47.6764 77.0046 47.7704 76.7628 47.9584C76.5211 48.1464 76.3385 48.4029 76.2149 48.7279C76.0941 49.0529 76.0336 49.4195 76.0336 49.8277C76.0336 50.2414 76.0954 50.6134 76.2189 50.9437C76.3425 51.2741 76.5251 51.536 76.7669 51.7293C77.0113 51.92 77.3121 52.0154 77.6693 52.0154ZM88.3054 44.6709V52.9219H87.0564V45.9198H87.0081L85.034 47.209V46.0165L87.0927 44.6709H88.3054ZM93.4099 53.0589C92.7733 53.0562 92.2294 52.8883 91.7782 52.5553C91.327 52.2222 90.9818 51.7374 90.7428 51.1009C90.5038 50.4643 90.3842 49.6975 90.3842 48.8004C90.3842 47.906 90.5038 47.1419 90.7428 46.508C90.9845 45.8741 91.331 45.3907 91.7822 45.0576C92.2362 44.7246 92.7787 44.5581 93.4099 44.5581C94.0411 44.5581 94.5823 44.7259 95.0335 45.0617C95.4847 45.3947 95.8298 45.8782 96.0689 46.512C96.3106 47.1432 96.4315 47.906 96.4315 48.8004C96.4315 49.7002 96.312 50.4683 96.0729 51.1049C95.8339 51.7387 95.4887 52.2235 95.0375 52.5593C94.5863 52.8923 94.0437 53.0589 93.4099 53.0589ZM93.4099 51.9832C93.9685 51.9832 94.405 51.7105 94.7192 51.1653C95.0362 50.6201 95.1946 49.8318 95.1946 48.8004C95.1946 48.1155 95.1221 47.5367 94.9771 47.064C94.8347 46.5886 94.6293 46.2287 94.3607 45.9843C94.0948 45.7372 93.7778 45.6136 93.4099 45.6136C92.8539 45.6136 92.4174 45.8876 92.1005 46.4355C91.7836 46.9834 91.6238 47.7717 91.6211 48.8004C91.6211 49.488 91.6923 50.0695 91.8346 50.5449C91.9796 51.0176 92.1851 51.3762 92.451 51.6206C92.7169 51.8623 93.0365 51.9832 93.4099 51.9832ZM100.733 53.0589C100.097 53.0562 99.5528 52.8883 99.1016 52.5553C98.6504 52.2222 98.3052 51.7374 98.0662 51.1009C97.8271 50.4643 97.7076 49.6975 97.7076 48.8004C97.7076 47.906 97.8271 47.1419 98.0662 46.508C98.3079 45.8741 98.6544 45.3907 99.1056 45.0576C99.5595 44.7246 100.102 44.5581 100.733 44.5581C101.364 44.5581 101.906 44.7259 102.357 45.0617C102.808 45.3947 103.153 45.8782 103.392 46.512C103.634 47.1432 103.755 47.906 103.755 48.8004C103.755 49.7002 103.635 50.4683 103.396 51.1049C103.157 51.7387 102.812 52.2235 102.361 52.5593C101.91 52.8923 101.367 53.0589 100.733 53.0589ZM100.733 51.9832C101.292 51.9832 101.728 51.7105 102.043 51.1653C102.36 50.6201 102.518 49.8318 102.518 48.8004C102.518 48.1155 102.445 47.5367 102.3 47.064C102.158 46.5886 101.953 46.2287 101.684 45.9843C101.418 45.7372 101.101 45.6136 100.733 45.6136C100.177 45.6136 99.7408 45.8876 99.4239 46.4355C99.107 46.9834 98.9471 47.7717 98.9445 48.8004C98.9445 49.488 99.0156 50.0695 99.158 50.5449C99.303 51.0176 99.5085 51.3762 99.7744 51.6206C100.04 51.8623 100.36 51.9832 100.733 51.9832ZM109.491 51.3748V50.9397C109.491 50.6281 109.555 50.3434 109.684 50.0856C109.816 49.8251 110.007 49.6169 110.256 49.4611C110.509 49.3027 110.814 49.2234 111.171 49.2234C111.536 49.2234 111.842 49.3013 112.089 49.4571C112.337 49.6129 112.523 49.821 112.649 50.0816C112.778 50.3421 112.843 50.6281 112.843 50.9397V51.3748C112.843 51.6864 112.778 51.9724 112.649 52.2329C112.521 52.4908 112.331 52.6989 112.081 52.8574C111.834 53.0132 111.531 53.0911 111.171 53.0911C110.808 53.0911 110.502 53.0132 110.252 52.8574C110.003 52.6989 109.813 52.4908 109.684 52.2329C109.555 51.9724 109.491 51.6864 109.491 51.3748ZM110.43 50.9397V51.3748C110.43 51.6058 110.485 51.8153 110.595 52.0033C110.705 52.1913 110.897 52.2853 111.171 52.2853C111.442 52.2853 111.632 52.1913 111.739 52.0033C111.846 51.8153 111.9 51.6058 111.9 51.3748V50.9397C111.9 50.7087 111.848 50.4992 111.743 50.3112C111.641 50.1232 111.45 50.0292 111.171 50.0292C110.902 50.0292 110.712 50.1232 110.599 50.3112C110.486 50.4992 110.43 50.7087 110.43 50.9397ZM105.341 46.653V46.2179C105.341 45.9064 105.406 45.6203 105.535 45.3598C105.666 45.0993 105.857 44.8911 106.107 44.7353C106.359 44.5796 106.664 44.5017 107.021 44.5017C107.386 44.5017 107.693 44.5796 107.94 44.7353C108.187 44.8911 108.374 45.0993 108.5 45.3598C108.626 45.6203 108.689 45.9064 108.689 46.2179V46.653C108.689 46.9646 108.625 47.2507 108.496 47.5112C108.37 47.769 108.182 47.9772 107.932 48.1356C107.685 48.2914 107.381 48.3693 107.021 48.3693C106.656 48.3693 106.348 48.2914 106.099 48.1356C105.852 47.9772 105.664 47.769 105.535 47.5112C105.406 47.2507 105.341 46.9646 105.341 46.653ZM106.284 46.2179V46.653C106.284 46.884 106.338 47.0935 106.445 47.2815C106.555 47.4696 106.747 47.5636 107.021 47.5636C107.29 47.5636 107.478 47.4696 107.585 47.2815C107.695 47.0935 107.75 46.884 107.75 46.653V46.2179C107.75 45.987 107.698 45.7775 107.593 45.5894C107.489 45.4014 107.298 45.3074 107.021 45.3074C106.753 45.3074 106.562 45.4014 106.449 45.5894C106.339 45.7775 106.284 45.987 106.284 46.2179ZM105.724 52.9219L111.396 44.6709H112.359L106.687 52.9219H105.724Z" fill="white"/>
<path d="M19.3079 82.9219V62.8402H27.2307C28.7473 62.8402 30.0416 63.1115 31.1137 63.6541C32.1923 64.1901 33.0127 64.9517 33.5749 65.9387C34.1436 66.9193 34.428 68.0731 34.428 69.4001C34.428 70.7336 34.1403 71.8809 33.5651 72.8418C32.9898 73.7962 32.1564 74.5284 31.0647 75.0382C29.9795 75.5481 28.6656 75.8031 27.1229 75.8031H21.8181V72.3908H26.4365C27.2471 72.3908 27.9204 72.2796 28.4564 72.0574C28.9925 71.8351 29.3912 71.5017 29.6527 71.0572C29.9207 70.6127 30.0547 70.0603 30.0547 69.4001C30.0547 68.7333 29.9207 68.1711 29.6527 67.7135C29.3912 67.2559 28.9892 66.9095 28.4466 66.6742C27.9106 66.4323 27.234 66.3114 26.4169 66.3114H23.5537V82.9219H19.3079ZM30.1528 73.7831L35.1438 82.9219H30.4567L25.5736 73.7831H30.1528ZM43.9712 83.216C42.4219 83.216 41.0884 82.9023 39.9705 82.2747C38.8592 81.6406 38.0029 80.7451 37.4015 79.588C36.8001 78.4244 36.4994 77.0484 36.4994 75.4599C36.4994 73.9106 36.8001 72.5509 37.4015 71.3808C38.0029 70.2107 38.8494 69.2988 39.9411 68.6451C41.0393 67.9914 42.3271 67.6645 43.8045 67.6645C44.7981 67.6645 45.7231 67.8247 46.5794 68.145C47.4423 68.4588 48.1941 68.9327 48.8347 69.5668C49.4819 70.2009 49.9852 70.9984 50.3448 71.9593C50.7043 72.9137 50.8841 74.0316 50.8841 75.3128V76.46H38.1663V73.8714H46.952C46.952 73.27 46.8213 72.7372 46.5598 72.2731C46.2983 71.809 45.9355 71.4462 45.4714 71.1847C45.0138 70.9167 44.4811 70.7827 43.8731 70.7827C43.239 70.7827 42.6768 70.9297 42.1866 71.2239C41.7028 71.5115 41.3237 71.9005 41.0491 72.3908C40.7746 72.8745 40.634 73.4138 40.6275 74.0087V76.4699C40.6275 77.2151 40.7648 77.859 41.0393 78.4015C41.3204 78.9441 41.7159 79.3625 42.2258 79.6566C42.7357 79.9508 43.3404 80.0979 44.0398 80.0979C44.5039 80.0979 44.9288 80.0325 45.3145 79.9018C45.7002 79.771 46.0303 79.5749 46.3049 79.3134C46.5794 79.052 46.7886 78.7317 46.9324 78.3525L50.7958 78.6075C50.5997 79.5357 50.1977 80.3463 49.5897 81.0392C48.9883 81.7256 48.2104 82.2616 47.256 82.6473C46.3082 83.0265 45.2132 83.216 43.9712 83.216ZM61.7093 67.8606V70.9984H52.4137V67.8606H61.7093ZM54.5415 82.9219V66.7722C54.5415 65.6805 54.754 64.7752 55.1789 64.0561C55.6103 63.337 56.1986 62.7977 56.9439 62.4382C57.6891 62.0786 58.5356 61.8989 59.4835 61.8989C60.1241 61.8989 60.7092 61.9479 61.2387 62.046C61.7747 62.144 62.1735 62.2323 62.4349 62.3107L61.6897 65.4485C61.5263 65.3962 61.3236 65.3471 61.0818 65.3014C60.8464 65.2556 60.6046 65.2327 60.3562 65.2327C59.7417 65.2327 59.3135 65.3766 59.0717 65.6642C58.8298 65.9453 58.7088 66.3408 58.7088 66.8507V82.9219H54.5415ZM73.9196 76.5091V67.8606H78.0968V82.9219H74.0863V80.1861H73.9294C73.5895 81.0686 73.0241 81.7779 72.2331 82.3139C71.4487 82.85 70.491 83.118 69.3601 83.118C68.3534 83.118 67.4676 82.8892 66.7028 82.4316C65.938 81.974 65.3398 81.3236 64.9084 80.4803C64.4835 79.637 64.2678 78.6271 64.2612 77.4504V67.8606H68.4384V76.7052C68.4449 77.5942 68.6835 78.2969 69.1542 78.8134C69.6248 79.3298 70.2556 79.588 71.0466 79.588C71.55 79.588 72.0206 79.4736 72.4586 79.2448C72.8966 79.0095 73.2496 78.663 73.5176 78.2054C73.7922 77.7478 73.9262 77.1824 73.9196 76.5091ZM85.6152 74.2146V82.9219H81.438V67.8606H85.419V70.5179H85.5955C85.9289 69.642 86.4878 68.949 87.2723 68.4391C88.0567 67.9227 89.0079 67.6645 90.1257 67.6645C91.1716 67.6645 92.0835 67.8933 92.8614 68.3509C93.6393 68.8085 94.244 69.4622 94.6754 70.312C95.1069 71.1553 95.3226 72.162 95.3226 73.3321V82.9219H91.1455V74.0773C91.152 73.1556 90.9167 72.4365 90.4395 71.9201C89.9623 71.3971 89.3053 71.1357 88.4686 71.1357C87.9064 71.1357 87.4096 71.2566 86.9781 71.4985C86.5532 71.7403 86.2198 72.0933 85.978 72.5575C85.7426 73.015 85.6217 73.5674 85.6152 74.2146ZM104.165 83.167C103.021 83.167 101.985 82.8728 101.056 82.2845C100.135 81.6896 99.4025 80.817 98.8599 79.6664C98.3239 78.5094 98.0559 77.0909 98.0559 75.4109C98.0559 73.6851 98.3337 72.2502 98.8894 71.1062C99.445 69.9557 100.184 69.0961 101.105 68.5274C102.034 67.9521 103.05 67.6645 104.155 67.6645C104.998 67.6645 105.701 67.8083 106.263 68.096C106.832 68.377 107.289 68.73 107.636 69.1549C107.989 69.5733 108.257 69.9851 108.44 70.3904H108.567V62.8402H112.735V82.9219H108.616V80.5097H108.44C108.244 80.9281 107.966 81.3432 107.606 81.755C107.253 82.1603 106.793 82.497 106.224 82.765C105.662 83.033 104.975 83.167 104.165 83.167ZM105.488 79.8429C106.162 79.8429 106.73 79.6599 107.195 79.2938C107.665 78.9212 108.025 78.4015 108.273 77.7348C108.528 77.068 108.656 76.2868 108.656 75.3912C108.656 74.4957 108.531 73.7178 108.283 73.0575C108.035 72.3973 107.675 71.8874 107.204 71.5279C106.734 71.1683 106.162 70.9886 105.488 70.9886C104.802 70.9886 104.224 71.1749 103.753 71.5475C103.282 71.9201 102.926 72.4365 102.684 73.0968C102.442 73.757 102.321 74.5218 102.321 75.3912C102.321 76.2672 102.442 77.0418 102.684 77.7152C102.932 78.3819 103.289 78.9049 103.753 79.284C104.224 79.6566 104.802 79.8429 105.488 79.8429Z" fill="white"/>
</svg>
